<svg width="15" height="15" viewBox="0 0 15 15" fill="none" xmlns="http://www.w3.org/2000/svg">
<path d="M14.4179 8.0322C14.4681 8.06045 14.4782 8.12033 14.4802 8.14315L14.4807 8.15225L14.4249 11.7536C14.4249 13.1902 13.3118 14.3617 11.9102 14.4335L11.7737 14.437H3.37375C1.95442 14.437 0.796993 13.3104 0.72604 11.8918L0.722593 11.7536L0.673756 8.15225C0.673756 8.15225 0.673756 8.06751 0.736547 8.0322C0.79236 7.9969 0.862128 8.03927 0.869104 8.04633C2.2784 8.99256 3.97375 9.62104 5.75282 9.88231C6.00398 9.91762 6.25514 9.7552 6.32491 9.50099C6.4688 8.95814 6.91316 8.58907 7.45678 8.54505L7.56676 8.54063H7.5877C8.18072 8.54063 8.67606 8.92195 8.82955 9.50099C8.89932 9.7552 9.15048 9.91762 9.40164 9.88231C11.1807 9.62104 12.8761 8.99256 14.2854 8.04633C14.2854 8.04633 14.2993 8.03927 14.3133 8.0322C14.3412 8.01808 14.383 8.01102 14.4179 8.0322ZM7.57374 9.55042C7.31153 9.55042 7.09036 9.75216 7.05532 10.0088L7.05049 10.08V10.991C7.05049 11.2875 7.2877 11.5206 7.57374 11.5206C7.84235 11.5206 8.05819 11.3248 8.0923 11.0637L8.097 10.991V10.08C8.097 9.79051 7.86676 9.55042 7.57374 9.55042ZM8.47374 0.490479C9.52025 0.490479 10.3784 1.28843 10.5109 2.31234H11.8923C13.3575 2.31234 14.5505 3.51985 14.5505 5.00276C14.5505 5.00276 14.5086 5.63053 14.4947 6.50474C14.4933 6.57394 14.4598 6.64173 14.4047 6.68269C14.0691 6.93054 13.7621 7.13533 13.7342 7.14945C12.5761 7.92621 11.2302 8.47277 9.79653 8.74464C9.70304 8.763 9.61095 8.71427 9.56351 8.63095C9.16165 7.93469 8.41095 7.48134 7.57374 7.48134C6.74212 7.48134 5.98444 7.92974 5.57072 8.62671C5.52258 8.70862 5.43189 8.75593 5.3391 8.73828C3.91724 8.46571 2.57143 7.91986 1.42027 7.15651L0.7505 6.69045C0.694686 6.65515 0.659802 6.59159 0.659802 6.52098C0.638872 6.16084 0.603989 5.00276 0.603989 5.00276C0.603989 3.51985 1.79701 2.31234 3.26212 2.31234H4.63654C4.7691 1.28843 5.62723 0.490479 6.67374 0.490479H8.47374ZM8.47374 1.5497H6.67374C6.2063 1.5497 5.80863 1.87453 5.697 2.31234H9.45048C9.33885 1.87453 8.94118 1.5497 8.47374 1.5497Z" fill="#BAC0CB"/>
</svg>
