<svg width="22" height="22" viewBox="0 0 22 22" fill="none" xmlns="http://www.w3.org/2000/svg">
<path d="M0.927057 0.00671387C0.428276 0.00671387 0.0239258 0.411064 0.0239258 0.909845C0.0239258 1.40863 0.428276 1.81298 0.927057 1.81298H1.37086C1.77409 1.81298 2.12846 2.08028 2.23923 2.468L5.10317 12.4917C5.43549 13.6549 6.49862 14.4568 7.70831 14.4568H15.9606C17.0684 14.4568 18.0647 13.7823 18.4762 12.7537L21.1391 6.09633C21.6136 4.90987 20.7398 3.61924 19.462 3.61924H4.4467L3.97599 1.97178C3.64368 0.80864 2.58055 0.00671387 1.37086 0.00671387H0.927057Z" fill="#212121"/>
<path d="M8.15202 21.6818C9.64838 21.6818 10.8614 20.4688 10.8614 18.9725C10.8614 17.4761 9.64838 16.2631 8.15202 16.2631C6.65566 16.2631 5.44263 17.4761 5.44263 18.9725C5.44263 20.4688 6.65566 21.6818 8.15202 21.6818Z" fill="#212121"/>
<path d="M15.3771 21.6818C16.8734 21.6818 18.0865 20.4688 18.0865 18.9725C18.0865 17.4761 16.8734 16.2631 15.3771 16.2631C13.8808 16.2631 12.6677 17.4761 12.6677 18.9725C12.6677 20.4688 13.8808 21.6818 15.3771 21.6818Z" fill="#212121"/>
</svg>
