<svg width="9" height="10" viewBox="0 0 9 10" fill="none" xmlns="http://www.w3.org/2000/svg">
<path d="M0.00354004 6.55249V8.26811C0.00354004 9.21565 1.7958 9.98373 4.00666 9.98373C6.21752 9.98373 8.00977 9.21565 8.00977 8.26811V6.55249C8.00977 7.50003 6.21752 8.26811 4.00666 8.26811C1.7958 8.26811 0.00354004 7.50003 0.00354004 6.55249Z" fill="#374151"/>
<path d="M0.00354004 3.69312V5.40874C0.00354004 6.35627 1.7958 7.12436 4.00666 7.12436C6.21752 7.12436 8.00977 6.35627 8.00977 5.40874V3.69312C8.00977 4.64062 6.21752 5.40874 4.00666 5.40874C1.7958 5.40874 0.00354004 4.64062 0.00354004 3.69312Z" fill="#374151"/>
<path d="M8.00977 2.54936C8.00977 3.49687 6.21752 4.26498 4.00666 4.26498C1.7958 4.26498 0.00354004 3.49687 0.00354004 2.54936C0.00354004 1.60185 1.7958 0.83374 4.00666 0.83374C6.21752 0.83374 8.00977 1.60185 8.00977 2.54936Z" fill="#374151"/>
</svg>
