<svg width="22" height="22" viewBox="0 0 22 22" fill="none" xmlns="http://www.w3.org/2000/svg">
<path d="M17.9827 0.378784H3.21273C1.46475 0.378784 0.0477295 1.7958 0.0477295 3.54378V18.3138C0.0477295 20.0617 1.46475 21.4788 3.21273 21.4788H17.9827C19.7307 21.4788 21.1477 20.0617 21.1477 18.3138V3.54378C21.1477 1.7958 19.7307 0.378784 17.9827 0.378784Z" fill="#1877F2"/>
<path d="M14.7023 13.9784L15.1721 10.9288H12.2461V8.95065C12.2461 8.11819 12.6541 7.30222 13.9646 7.30222H15.2958V4.70593C15.2958 4.70593 14.0883 4.49988 12.9344 4.49988C10.5235 4.49988 8.94928 5.95874 8.94928 8.60448V10.9288H6.27057V13.9784H8.94928V21.4788H12.2461V13.9784H14.7023Z" fill="white"/>
</svg>
