<svg width="316" height="253" viewBox="0 0 316 253" fill="none" xmlns="http://www.w3.org/2000/svg">
<path d="M230.321 13.4092C227.249 5.20745 224.044 -3.3499 202.345 2.43825C190.694 5.54598 180.927 16.5268 172.943 32.8333C166.936 45.8019 161.86 62.5719 157.811 82.6787C149.538 123.765 146.053 176.912 147.682 228.586L144.072 228.7L144.024 227.141C142.922 189.827 144.469 151.817 148.551 118.118C131.186 100.07 111.393 85.8448 96.9703 81.1202C62.7915 73.5836 53.7619 93.4944 53.9859 111.256C54.0267 114.503 55.162 117.204 56.3051 119.926C57.4874 122.739 58.6785 125.574 58.6785 129.057C58.6785 131.367 53.5132 136.138 46.7987 142.34C33.5978 154.534 14.4098 172.258 16.7128 187.682C18.841 201.936 32.3381 212.76 44.7613 218.579C45.9777 219.148 47.3024 220.207 48.8965 221.48C50.0298 222.386 51.2998 223.401 52.7634 224.426L52.8759 224.504C54.0257 225.296 55.9232 226.413 58.5691 227.856L59.385 228.299C96.8124 248.489 140.25 234.887 153.786 229.866L154.576 229.57L250.562 228.501L250.55 228.426C250.524 228.269 250.481 228.037 250.426 227.737C249.523 222.847 245.286 199.879 254.309 190.622C282.488 161.716 313.389 78.992 271.376 44.327C262.092 36.6666 252.879 32.0091 245.804 28.4328C241.506 26.2607 237.998 24.487 235.74 22.6808C232.96 20.4566 231.653 16.9664 230.321 13.4092Z" fill="#64FCD9"/>
<path fill-rule="evenodd" clip-rule="evenodd" d="M91.9727 228.823C91.9727 228.823 69.2515 219.316 69.2515 206.081C69.2515 202.198 71.6801 202.571 76.5378 207.2C77.0663 207.703 77.8228 208.476 78.8085 209.518C79.4118 210.157 65.7758 193.598 72.6467 190.501C79.3447 187.482 80.9027 203.156 81.2526 202.94C81.6417 202.699 81.5281 197.957 83.0784 195.86C83.9134 194.73 86.3693 194.489 88.2277 195.86C97.9895 203.063 91.9727 228.823 91.9727 228.823Z" fill="white"/>
<path fill-rule="evenodd" clip-rule="evenodd" d="M87.9805 135.629C87.9805 135.629 82.8054 122.436 87.596 123.475C92.3866 124.515 91.0082 139.852 91.0082 139.852L87.9805 135.629Z" fill="white"/>
<path fill-rule="evenodd" clip-rule="evenodd" d="M84.5058 126.019C84.5734 128.158 85.4878 131.441 87.2435 135.918C87.2677 135.979 87.2992 136.036 87.3374 136.09L90.3651 140.313C90.7924 140.909 91.7306 140.653 91.7962 139.923L91.8509 139.291C92.7024 129.064 91.4736 123.507 87.7637 122.702C85.6055 122.233 84.4273 123.525 84.5058 126.019ZM87.5082 124.267C89.8129 124.859 90.8843 129.135 90.4162 137.162L90.3868 137.628L88.6802 135.247L88.3819 134.473C86.907 130.598 86.1437 127.75 86.0875 125.969L86.0834 125.72C86.0797 124.371 86.4503 124.036 87.4282 124.249L87.5082 124.267Z" fill="#00160A"/>
<path fill-rule="evenodd" clip-rule="evenodd" d="M69.7061 189.701C66.3728 191.204 66.6035 194.995 69.1482 200.159L69.3433 200.549C69.8088 201.464 70.3398 202.41 70.9276 203.379L71.1299 203.71L71.1046 203.693C70.153 203.061 69.3319 202.69 68.626 202.582C66.7501 202.294 65.7938 203.676 65.7938 206.081C65.7938 215.344 73.6163 223.174 89.0538 229.633C89.5544 229.842 90.1231 229.551 90.2464 229.023C94.33 211.542 93.0445 200.228 86.168 195.154C84.0583 193.598 81.0079 193.695 79.7925 195.339L79.6873 195.487C79.1702 196.247 78.81 197.247 78.5426 198.49L78.5308 198.545L78.4962 198.408C78.3063 197.664 78.1055 196.962 77.8779 196.259C77.1245 193.928 76.2234 192.097 75.0933 190.872C73.6049 189.259 71.7554 188.778 69.7061 189.701ZM77.2576 200.817L77.6426 202.633L77.6875 202.822C77.7154 202.936 77.7412 203.028 77.7675 203.106C77.8026 203.211 77.8398 203.297 77.8976 203.39C77.9703 203.504 78.0601 203.604 78.2031 203.691C78.4812 203.859 78.8388 203.869 79.1335 203.687C79.5128 203.452 79.6057 203.251 79.7094 202.587L79.758 202.256C79.7925 202.011 79.9179 200.969 79.9391 200.804C80.0232 200.146 80.1073 199.603 80.2111 199.085C80.4536 197.871 80.7808 196.953 81.2034 196.382C81.7819 195.599 83.7321 195.537 85.126 196.566L85.3087 196.704C91.1087 201.171 92.3638 211.289 88.8788 227.123L88.771 227.606L88.4144 227.451C74.441 221.357 67.5484 214.214 67.5484 206.081C67.5484 204.604 67.8065 204.231 68.3597 204.316C69.3387 204.466 71.0489 205.64 73.3521 207.835L73.6467 208.121C73.9977 208.465 74.4291 208.905 74.9395 209.438L75.6197 210.151C75.6315 210.162 75.6491 210.178 75.6836 210.21L75.695 210.236C75.7218 210.28 75.8085 210.296 76.3834 210.403L76.5842 210.332C76.821 210.243 76.8587 210.183 77.0605 209.866L77.1064 209.674C77.1343 209.547 77.1302 209.518 77.1157 209.408L77.077 209.252C77.0688 209.222 77.0626 209.206 77.0517 209.184L77.043 209.165C77.0192 209.114 77.0058 209.088 76.9836 209.054L76.7447 208.733L76.1367 207.928C76.0325 207.788 75.9272 207.646 75.8106 207.488C74.8105 206.131 73.8408 204.728 72.9294 203.281C72.0753 201.926 71.3307 200.618 70.7217 199.384C68.5749 195.026 68.4036 192.213 70.427 191.301C72.8618 190.203 74.7315 192.229 76.2085 196.798C76.61 198.04 76.9279 199.291 77.2576 200.817Z" fill="#00160A"/>
<path fill-rule="evenodd" clip-rule="evenodd" d="M72.4269 120.079L73.1473 120.735C82.0839 128.893 88.3056 135.402 91.6218 139.918C97.411 147.802 102.076 155.979 106.007 164.637C107.405 167.714 108.669 170.76 109.916 173.995L110.255 174.882C110.644 175.904 111.02 176.913 111.429 178.032L113.173 182.844C117.891 195.762 116.33 196.392 111.838 183.827L110.073 178.954C109.704 177.942 109.366 177.027 109.025 176.124L108.769 175.448C107.423 171.908 106.069 168.618 104.559 165.294C100.671 156.731 96.0605 148.648 90.3404 140.859L90.0783 140.506C86.6805 135.981 80.3722 129.441 71.3581 121.256C71.033 120.961 71.0087 120.459 71.3039 120.133C71.5991 119.808 72.1017 119.784 72.4269 120.079ZM51.5103 102.061L62.6387 111.56C63.6822 112.455 64.495 113.156 64.8831 113.498C65.2128 113.788 65.2443 114.291 64.9538 114.62C64.6637 114.95 64.1611 114.981 63.8318 114.691L60.9357 112.194C57.09 108.899 51.018 103.732 50.4762 103.269C50.1428 102.983 50.1036 102.482 50.3895 102.148C50.6748 101.814 51.1764 101.776 51.5103 102.061Z" fill="#00160A"/>
<path fill-rule="evenodd" clip-rule="evenodd" d="M67.4319 233.468C65.4394 234.616 66.2512 235.81 70.5479 237.717C75.1842 239.802 83.8138 243.827 98.6351 244.961C121.592 246.717 142.494 243.404 168.881 243.404C205.413 243.404 221.448 251.43 234.234 249.579C268.508 244.616 276.273 234.986 266.048 232.501C254.822 229.772 219.141 230.106 207.129 229.321L203.412 229.083L200.219 229.003C165.647 228.154 110.229 229.003 99.4066 229.003C77.3274 229.003 67.4319 233.468 67.4319 233.468Z" fill="white"/>
<path fill-rule="evenodd" clip-rule="evenodd" d="M168.881 243.404C205.412 243.404 221.448 251.708 234.234 249.857C268.508 244.895 276.273 234.987 266.048 232.501C254.822 229.773 214.042 228.887 204.001 229.105C204.001 229.105 250.164 237.635 247.693 240.46C240.339 248.871 222.024 238.706 188.76 239.003C181.907 239.064 168.881 243.404 168.881 243.404Z" fill="#E7EAEE"/>
<path fill-rule="evenodd" clip-rule="evenodd" d="M101.598 229.364C100.709 229.369 99.9944 229.371 99.4066 229.371L98.3987 229.373C84.0449 229.441 73.5756 230.95 66.9462 233.941L66.8425 233.994C65.2943 234.886 64.7009 236.199 65.6742 237.547C66.3032 238.419 67.6202 239.243 69.8439 240.244L71.7338 241.089C74.0922 242.133 75.4907 242.699 77.5905 243.438L77.8186 243.518C83.8757 245.634 90.5979 247.079 98.5453 247.686C104.193 248.118 109.947 248.267 116.256 248.179L118.464 248.141C122.612 248.055 126.146 247.909 132.601 247.563L143.76 246.945C154.392 246.369 160.879 246.139 168.538 246.133H168.881C182.588 246.133 193.785 247.176 206.204 249.209L207.281 249.389C209.152 249.714 219.445 251.527 222.286 251.936L222.385 251.95C227.343 252.647 231.012 252.787 234.403 252.296L235.35 252.157C250.745 249.856 261.87 246.429 267.489 242.638C273.102 238.85 272.593 234.511 266.513 232.949L266.327 232.902C261.277 231.675 251.691 230.993 236.797 230.548L233.742 230.461C232.851 230.437 231.931 230.413 230.964 230.39L217.997 230.089C213.004 229.966 209.942 229.86 207.624 229.719L203.488 229.454L200.249 229.371L196.956 229.297C187.409 229.098 176.005 229.002 162.952 228.995H159.071C149.975 229 140.56 229.045 130.049 229.123L101.598 229.364ZM165.987 231.359C179.016 231.381 190.312 231.496 199.653 231.719L203.383 231.812L207.623 232.084C209.956 232.223 213.011 232.328 217.929 232.449L230.418 232.738C231.891 232.773 233.251 232.808 234.557 232.844L237.615 232.934C251.814 233.376 261.043 234.048 265.769 235.197L266.052 235.268C269.972 236.297 270.1 238.027 266.168 240.681C260.791 244.31 238.717 254.031 223.118 250.717L222.401 250.616C219.104 250.125 208.054 247.647 207.403 247.539L205.802 247.277C193.84 245.351 182.922 244.341 169.762 244.298H167.848C159.979 244.319 153.2 244.581 141.683 245.219L133.691 245.664C125.961 246.085 122.275 246.236 117.466 246.323L117.079 246.33C92.689 247.277 77.8186 241.595 77.8186 241.595C75.8721 240.9 70.8358 239.151 70.8358 239.151L70.4611 238.979C58.7114 234.99 84.3644 231.799 98.4199 231.734L102.801 231.717L128.254 231.498C140.104 231.406 150.536 231.356 160.628 231.355L165.987 231.359Z" fill="#00160A"/>
<path fill-rule="evenodd" clip-rule="evenodd" d="M220.19 212.325C220.19 212.325 220.128 215.824 221.206 217.444C222.283 219.064 225.287 223.568 228.081 224.753C228.941 225.118 232.227 225.164 234.202 226.318C238.168 228.636 239.051 232.81 234.202 233.694C224.574 235.45 221.206 230.375 221.206 230.375C221.206 230.375 217.24 224.753 213.264 221.025C209.29 217.297 206.123 216.174 206.123 216.174" fill="white"/>
<path fill-rule="evenodd" clip-rule="evenodd" d="M208.862 142.165C208.862 142.165 206.221 134.629 199.435 132.588C197.278 131.939 206.711 146.176 198.386 151.486C195.787 153.144 191.166 154.004 185.48 154.813C160.134 158.421 152.492 148.963 136.846 144.345C130.573 142.493 100.057 134.3 95.4427 176.032C92.5548 202.152 114.429 210.248 134.032 214.399C173.302 222.713 233.476 219.436 252.244 192.032C274.614 159.365 240.232 130.918 235.387 127.911C234.214 127.182 237.578 136.518 237.952 141.24C238.325 145.961 235.387 147.678 235.387 147.678C235.387 147.678 234.229 142.679 223.991 141.822C213.753 140.964 208.862 142.165 208.862 142.165Z" fill="white"/>
<path fill-rule="evenodd" clip-rule="evenodd" d="M101.404 155.4C101.404 155.4 103.137 152.991 104.112 151.794C105.086 150.598 106.131 149.597 106.131 149.597C106.131 149.597 82.5943 147.255 74.4416 141.186C63.7957 133.262 54.2455 120.12 44.6261 117.34C33.1267 114.016 28.8702 121.724 25.5535 122.353C15.4489 124.267 -3.05745 129.715 5.40478 146.171C8.01735 151.252 16.4806 153.614 22.4426 150.781C29.0978 147.62 37.2934 139.876 45.9131 139.876C55.8809 139.876 57.6164 148.042 70.2697 152.371C78.0359 155.029 101.404 155.4 101.404 155.4Z" fill="white"/>
<path fill-rule="evenodd" clip-rule="evenodd" d="M129.429 213.63C129.429 213.63 135.175 219.902 137.556 223.937C139.937 227.972 139.103 230.161 142.408 232.026C147.374 234.828 152.492 234.121 154.769 232.631C157.047 231.141 154.91 227.327 150.136 227.327C148.962 227.327 147.581 224.631 146.912 222.847C146.243 221.063 146.549 216.673 146.549 216.673L129.429 213.63Z" fill="white"/>
<path fill-rule="evenodd" clip-rule="evenodd" d="M236.453 129.489C236.453 129.489 273.892 175.409 221.243 202.363C184.421 221.214 123.926 211.036 123.926 211.036C123.926 211.036 189.782 228.741 232.826 207.395C260.291 193.776 265.723 170.625 252.621 147.054C249.192 140.886 236.453 129.489 236.453 129.489Z" fill="#E7EAEE"/>
<path fill-rule="evenodd" clip-rule="evenodd" d="M234.254 127.2C234.726 126.576 235.461 126.567 236.01 126.908C237.777 128.005 240.975 130.661 244.051 133.775C248.319 138.099 252.131 142.997 255.054 148.277C263.056 162.734 262.341 177.869 252.185 192.699C243.209 205.807 225.647 213.718 200.994 217.262C179.432 220.362 154.471 219.932 133.787 215.553L132.75 215.33C120.913 212.746 112.186 209.463 105.584 204.39C96.9248 197.736 92.8851 188.425 94.2697 175.902C96.3654 156.947 103.859 146.413 115.156 142.723C119.355 141.351 123.853 141.014 128.495 141.472C131.678 141.786 134.351 142.378 137.181 143.213L137.683 143.364C140.758 144.296 143.374 145.325 147.409 147.113L150.391 148.449C156.572 151.22 160.149 152.533 164.779 153.467C170.606 154.642 177.021 154.78 184.805 153.716L185.959 153.552C192.313 152.626 195.723 151.785 197.751 150.491C200.125 148.976 200.973 146.522 200.634 143.123C200.479 141.576 200.095 139.946 199.489 138.044L199.322 137.532C199.06 136.755 198.296 134.572 198.156 134.098C197.981 133.51 197.901 133.101 197.93 132.72C198.001 131.766 198.838 131.176 199.775 131.458C204.725 132.946 208.281 137.27 210.464 144.28C210.658 144.902 210.31 145.564 209.688 145.758C209.066 145.952 208.404 145.604 208.21 144.982C206.548 139.646 204.121 136.175 200.942 134.48L200.733 134.372L201.593 136.878L201.616 136.95C203.798 146.256 202.177 153.552 187.501 155.806C186.693 155.931 170.464 157.327 163.725 155.66C153.517 153.133 139.028 143.706 130.343 143.364C121.658 143.02 119.748 143.706 115.889 144.967C105.535 148.349 96.9228 159.306 95.1847 177.4C94.2671 186.955 99.4283 196.636 107.892 202.6C129.429 217.778 179.375 218.501 200.659 215.441C224.72 211.982 242.745 203.813 251.269 191.365C260.881 177.329 260.584 163.144 252.988 149.421C250.178 144.344 246.497 139.613 242.371 135.434C240.491 133.53 238.569 131.81 237.009 130.555L236.747 130.346L236.975 131.246L237.706 134.055L237.973 135.107C238.014 135.273 238.054 135.435 238.094 135.595L238.233 136.173C238.726 138.248 239.027 139.858 239.128 141.147C239.411 144.708 238.38 147.297 235.983 148.698C235.42 149.027 234.697 148.837 234.368 148.274C234.039 147.711 234.229 146.988 234.792 146.66C236.313 145.77 236.991 144.067 236.775 141.333C236.685 140.19 236.402 138.677 235.933 136.705L235.8 136.156C235.743 135.921 235.683 135.68 235.62 135.43L234.591 131.455C234.438 130.853 234.323 130.379 234.231 129.968L234.204 129.846C234.047 129.13 233.965 128.617 233.96 128.231C233.955 127.836 234.012 127.521 234.254 127.2Z" fill="#00160A"/>
<path fill-rule="evenodd" clip-rule="evenodd" d="M208.767 140.866L209.611 140.723C215.18 139.805 219.673 139.473 223.108 139.733C226.731 140.008 230.572 140.987 234.63 142.666C235.166 142.888 235.42 143.502 235.199 144.037C234.977 144.573 234.364 144.827 233.828 144.606C229.966 143.007 226.339 142.082 222.949 141.826C219.542 141.568 214.928 141.935 209.124 142.934C208.553 143.032 208.01 142.649 207.912 142.078C207.813 141.507 208.197 140.964 208.767 140.866Z" fill="#00160A"/>
<path fill-rule="evenodd" clip-rule="evenodd" d="M215.479 136.157C217.992 135.641 220.288 135.907 222.336 136.965C224.296 137.978 225.995 139.252 227.428 140.786C227.728 141.106 227.711 141.609 227.39 141.909C227.069 142.209 226.566 142.192 226.266 141.871C224.959 140.472 223.407 139.308 221.606 138.378C219.892 137.493 217.967 137.269 215.799 137.714C215.369 137.802 214.948 137.525 214.86 137.095C214.772 136.665 215.049 136.245 215.479 136.157Z" fill="#00160A"/>
<path fill-rule="evenodd" clip-rule="evenodd" d="M220.56 131.993C220.786 131.616 221.274 131.494 221.651 131.719C223.667 132.924 225.336 134.273 226.654 135.768C227.986 137.276 229.079 139.204 229.939 141.548C230.09 141.959 229.878 142.417 229.466 142.568C229.054 142.719 228.597 142.507 228.446 142.095C227.651 139.928 226.655 138.17 225.462 136.819C224.257 135.454 222.716 134.208 220.835 133.083C220.458 132.858 220.335 132.37 220.56 131.993Z" fill="#00160A"/>
<path fill-rule="evenodd" clip-rule="evenodd" d="M197.527 150.884C197.859 150.409 198.513 150.294 198.988 150.626C199.462 150.958 189.332 165.385 189.332 168.185C189.332 171.22 190.823 173.252 194.795 176.455L196.478 177.794L196.968 178.186C199.43 180.175 200.863 181.571 202.082 183.343C203.786 185.819 204.588 188.584 204.383 191.863C204.132 195.907 202.911 198.702 200.493 201.928L200.274 202.216C200.003 202.567 198.806 204.096 198.478 204.544C197.308 206.141 196.758 207.344 196.658 208.756C196.216 214.979 199.144 222.492 205.502 231.269C205.842 231.738 205.737 232.394 205.268 232.734C204.799 233.074 204.142 232.969 203.803 232.5C197.182 223.36 194.082 215.405 194.564 208.608C194.692 206.805 195.349 205.311 196.629 203.52L196.785 203.304C197.161 202.79 198.534 201.038 198.65 200.887C200.953 197.865 204.283 193.444 201.617 185.031C200.274 180.796 187.528 177.794 187.109 168.778C187.01 166.653 190.551 160.84 197.527 150.884Z" fill="#00160A"/>
<path d="M201.385 194.505L199.92 194.521C191.252 194.632 185.98 195.069 184.351 195.767L184.292 195.793C181.896 196.892 180.012 198.381 178.573 200.166C177.454 201.552 176.664 203.038 176.147 204.522C175.993 204.964 175.874 205.377 175.785 205.753L175.725 206.02L178.232 209.233C178.257 209.265 178.28 209.298 178.301 209.332L178.325 209.366L178.404 209.482C178.946 210.267 179.56 211.035 180.351 211.931L180.716 212.336C181.365 213.045 183.433 215.274 184.136 216.077C185.639 217.793 186.905 219.445 188.118 221.34C189.966 224.23 191.595 227.567 193.059 231.609L193.164 231.904L193.269 232.207C193.397 232.581 193.522 232.966 193.658 233.399L194.276 235.425C195.188 238.412 195.826 239.784 196.836 240.615L197.005 240.751C198.329 241.782 199.564 242.037 202.995 242.146L203.997 242.173C208.558 242.298 210.937 238.677 208.328 236.045C207.509 235.219 204.81 234.58 200.395 234.311C199.816 234.276 200.36 232.786 200.395 232.207C200.43 231.629 200.927 231.189 201.506 231.224C202.017 231.255 202.509 231.29 202.979 231.33C197.132 222.856 194.277 215.633 194.731 209.233C194.859 207.43 194.665 206.725 195.945 204.934L196.189 204.599C196.655 203.978 197.858 202.442 197.966 202.3C198.951 201.009 199.637 199.951 200.187 198.795L200.296 198.563L200.332 198.48L200.393 198.345C200.682 197.683 200.989 196.541 201.301 194.941L201.385 194.505Z" fill="white"/>
<path fill-rule="evenodd" clip-rule="evenodd" d="M176.741 204.803C177.568 207.215 179.01 208.687 181.018 210.966L181.301 211.282C181.802 211.834 184.076 214.282 184.82 215.131C186.323 216.848 187.589 218.499 188.801 220.395C190.649 223.284 192.279 226.622 193.743 230.663C193.813 230.858 193.883 231.057 193.953 231.262L194.144 231.836C194.187 231.967 194.23 232.101 194.275 232.241L194.525 233.046C194.653 233.465 194.912 234.323 194.96 234.48L195.098 234.927C195.938 237.606 196.561 238.881 197.519 239.669L197.689 239.806C198.957 240.793 200.142 241.068 203.252 241.185L204.681 241.228C209.242 241.353 211.621 237.731 209.012 235.099C208.193 234.274 205.494 233.634 201.078 233.366C200.5 233.331 200.059 232.833 200.094 232.255C200.13 231.677 200.627 231.236 201.206 231.271L201.756 231.307C206.367 231.626 209.233 232.342 210.501 233.622C214.587 237.741 210.949 243.383 204.811 243.329L204.072 243.311C199.689 243.193 198.118 242.879 196.187 241.29C194.808 240.157 194.06 238.634 193.098 235.565L192.476 233.521L192.276 232.879C192.19 232.61 192.109 232.361 192.028 232.12L191.967 231.94C191.901 231.747 191.835 231.56 191.769 231.378C190.358 227.48 188.796 224.282 187.033 221.525C185.97 219.863 184.863 218.398 183.569 216.892L183.241 216.514C182.483 215.649 180.016 212.995 179.673 212.611C177.435 210.109 176.098 208.089 175.144 205.427L175.046 205.149C173.191 199.735 170.808 197.888 167.696 199.041C167.152 199.243 161.071 202.159 166.961 198.244C172.85 194.328 176.741 204.803 176.741 204.803Z" fill="#00160A"/>
<path fill-rule="evenodd" clip-rule="evenodd" d="M213.357 167.527C212.214 167.527 210.573 164.242 210.573 162.638C210.573 161.033 214.678 161.576 214.678 161.576C214.678 161.576 218.99 162.154 218.396 163.768C217.801 165.382 213.992 167.527 213.357 167.527Z" fill="#FFB61D"/>
<path d="M206.598 159.943C207.848 159.943 208.862 158.049 208.862 155.712C208.862 153.376 207.848 151.482 206.598 151.482C205.347 151.482 204.334 153.376 204.334 155.712C204.334 158.049 205.347 159.943 206.598 159.943Z" fill="#00160A"/>
<path d="M228.253 160.832C229.624 160.832 230.735 158.968 230.735 156.668C230.735 154.368 229.624 152.504 228.253 152.504C226.883 152.504 225.772 154.368 225.772 156.668C225.772 158.968 226.883 160.832 228.253 160.832Z" fill="#00160A"/>
<path fill-rule="evenodd" clip-rule="evenodd" d="M226.634 163.659C228.524 162.847 230.616 162.694 232.887 163.19C235.108 163.675 241.8 167.863 241.565 168.234C241.332 168.605 234.556 165.182 232.548 164.743C230.59 164.316 228.835 164.444 227.262 165.12C226.858 165.294 226.39 165.107 226.217 164.704C226.044 164.3 226.23 163.833 226.634 163.659Z" fill="#00160A"/>
<path fill-rule="evenodd" clip-rule="evenodd" d="M227.838 166.408C229.822 166.514 230.339 166.061 233.057 167.825C235.776 169.59 237.807 173.745 237.435 173.978C237.063 174.212 234.894 170.506 232.405 168.64C229.915 166.774 226.979 167.599 227.002 167.16C227.024 166.746 227.359 166.423 227.766 166.408L227.838 166.408Z" fill="#00160A"/>
<path fill-rule="evenodd" clip-rule="evenodd" d="M214.059 169.249C213.507 172.675 213.646 174.856 213.852 177.29C214.059 179.723 216.004 183.227 216.199 184.692C216.394 186.156 212.519 180.117 212.285 177.557C212.05 174.996 210.389 168.036 213.291 168.36C213.291 168.36 214.12 168.868 214.059 169.249Z" fill="#00160A"/>
<path fill-rule="evenodd" clip-rule="evenodd" d="M199.619 164.079C201.381 164.079 202.095 164.123 203.811 164.461C204.241 164.545 204.522 164.963 204.437 165.394C204.353 165.825 203.935 166.105 203.504 166.021C202.893 165.901 201.722 165.39 199.78 165.41C197.126 165.438 194.816 166.911 194.7 166.667C194.512 166.271 197.857 164.079 199.619 164.079Z" fill="#00160A"/>
<path fill-rule="evenodd" clip-rule="evenodd" d="M202.5 160.664C202.928 160.765 203.192 161.193 203.092 161.62C202.991 162.048 202.563 162.312 202.136 162.212C198.319 161.312 195.256 161.336 193.096 161.251C190.971 161.168 186.205 161.501 186.066 161.085C185.926 160.669 198.593 159.743 202.5 160.664Z" fill="#00160A"/>
<path fill-rule="evenodd" clip-rule="evenodd" d="M220.209 211.277C220.788 211.288 221.249 211.766 221.239 212.345C221.201 214.484 221.501 215.995 222.079 216.864C224.504 220.51 226.561 222.97 228.49 223.788C228.543 223.811 228.668 223.842 228.863 223.881L229.153 223.933C229.37 223.969 230.286 224.107 230.446 224.132C231.049 224.228 231.546 224.319 232.031 224.429C233.102 224.672 233.993 224.982 234.731 225.413C236.948 226.709 238.411 228.603 238.554 230.465C238.718 232.617 237.154 234.224 234.39 234.728C227.602 235.965 222.851 234.752 220.348 230.981C217.743 227.288 215.141 224.225 212.547 221.791C209.994 219.397 207.727 217.857 205.772 217.164C205.226 216.97 204.94 216.37 205.134 215.824C205.327 215.278 205.927 214.992 206.473 215.186C208.741 215.99 211.236 217.684 213.982 220.26C216.687 222.798 219.38 225.968 222.08 229.796C224.052 232.767 227.965 233.766 234.013 232.663C235.807 232.336 236.535 231.589 236.461 230.625C236.378 229.54 235.346 228.203 233.672 227.225C233.149 226.92 232.447 226.675 231.567 226.475C231.188 226.39 230.792 226.315 230.323 226.238L228.807 226.002L228.514 225.951C228.151 225.882 227.892 225.814 227.671 225.72C226.228 225.108 224.746 223.791 223.194 221.936C222.171 220.712 221.386 219.611 220.332 218.026C219.474 216.736 219.096 214.834 219.141 212.308C219.151 211.728 219.629 211.267 220.209 211.277Z" fill="#00160A"/>
<path fill-rule="evenodd" clip-rule="evenodd" d="M228.683 230.634C228.787 230.287 229.152 230.09 229.5 230.194C230.58 230.516 231.345 230.873 231.811 231.296C232.253 231.698 232.691 232.316 233.138 233.153C233.309 233.472 233.189 233.87 232.869 234.04C232.55 234.211 232.152 234.091 231.981 233.771C231.599 233.055 231.242 232.552 230.929 232.267C230.64 232.005 230.033 231.721 229.124 231.45C228.777 231.346 228.58 230.981 228.683 230.634Z" fill="#00160A"/>
<path fill-rule="evenodd" clip-rule="evenodd" d="M232.105 229.246C232.219 228.902 232.59 228.716 232.934 228.831C233.859 229.139 234.547 229.49 235.004 229.905C235.457 230.316 235.892 230.982 236.332 231.909C236.488 232.236 236.348 232.627 236.021 232.783C235.694 232.938 235.303 232.799 235.147 232.471C234.774 231.685 234.424 231.15 234.122 230.875C233.823 230.604 233.287 230.33 232.52 230.075C232.177 229.961 231.991 229.589 232.105 229.246Z" fill="#00160A"/>
<path fill-rule="evenodd" clip-rule="evenodd" d="M204.03 238.283C204.144 237.939 204.516 237.753 204.859 237.868C205.785 238.176 206.472 238.527 206.929 238.942C207.382 239.354 207.817 240.019 208.257 240.946C208.413 241.273 208.273 241.664 207.946 241.819C207.619 241.975 207.228 241.835 207.073 241.508C206.699 240.722 206.35 240.187 206.047 239.913C205.749 239.641 205.213 239.368 204.445 239.112C204.102 238.998 203.916 238.627 204.03 238.283Z" fill="#00160A"/>
<path fill-rule="evenodd" clip-rule="evenodd" d="M205.938 236.058C206.052 235.714 206.424 235.528 206.768 235.642C207.692 235.95 208.38 236.301 208.837 236.716C209.29 237.128 209.725 237.793 210.165 238.72C210.321 239.048 210.181 239.439 209.854 239.594C209.527 239.749 209.136 239.61 208.981 239.283C208.607 238.496 208.258 237.962 207.955 237.687C207.657 237.416 207.121 237.142 206.353 236.887C206.01 236.772 205.824 236.401 205.938 236.058Z" fill="#00160A"/>
<path fill-rule="evenodd" clip-rule="evenodd" d="M128.721 212.855C129.148 212.463 136.39 220.77 137.944 223.403C138.444 224.251 138.84 225.068 139.191 225.942C139.299 226.211 139.4 226.477 139.509 226.778L139.921 227.941C140.532 229.639 141.547 230.334 142.924 231.111C146.963 233.39 151.733 233.362 154.195 231.752C155.56 230.859 153.716 228.376 150.136 228.376C148.463 228.376 147.024 226.133 145.93 223.214C145.417 221.847 145.289 219.665 145.503 216.599C145.543 216.021 146.044 215.585 146.622 215.626C147.201 215.666 147.636 216.167 147.596 216.745C147.402 219.533 147.516 221.466 147.895 222.478L148.005 222.763C148.742 224.611 149.826 226.277 150.136 226.277C152.659 226.277 154.792 227.249 155.939 228.794C157.153 230.428 156.993 232.429 155.344 233.508C152.207 235.56 146.597 235.593 141.893 232.939C140.075 231.913 139.278 230.85 138.532 228.843L138.132 227.715C137.998 227.338 137.883 227.031 137.76 226.725C137.446 225.944 137.097 225.222 136.652 224.469C135.109 221.853 132.441 218.47 128.656 214.337C128.264 213.91 128.293 213.246 128.721 212.855Z" fill="#00160A"/>
<path fill-rule="evenodd" clip-rule="evenodd" d="M148.15 230.634C148.254 230.287 148.619 230.09 148.967 230.194C150.047 230.516 150.812 230.873 151.278 231.296C151.72 231.698 152.157 232.316 152.605 233.153C152.776 233.472 152.655 233.87 152.336 234.04C152.017 234.211 151.619 234.091 151.448 233.771C151.065 233.055 150.709 232.552 150.396 232.267C150.107 232.005 149.499 231.721 148.591 231.45C148.244 231.346 148.047 230.981 148.15 230.634Z" fill="#00160A"/>
<path fill-rule="evenodd" clip-rule="evenodd" d="M150.618 229.565C150.732 229.221 151.104 229.035 151.447 229.149C152.373 229.457 153.06 229.808 153.517 230.223C153.97 230.635 154.405 231.3 154.845 232.227C155 232.555 154.861 232.946 154.534 233.101C154.207 233.256 153.816 233.117 153.66 232.79C153.287 232.003 152.937 231.469 152.635 231.194C152.337 230.923 151.8 230.649 151.033 230.394C150.689 230.279 150.504 229.908 150.618 229.565Z" fill="#00160A"/>
<path fill-rule="evenodd" clip-rule="evenodd" d="M29.6618 118.583L29.4404 118.736C28.738 119.226 27.3859 120.213 27.0882 120.423L27.0577 120.444C26.2862 120.975 25.765 121.244 25.3578 121.322C18.1639 122.684 11.9508 124.21 7.69775 127.43C1.75085 131.933 -1.46153 139.806 2.61319 147.729C5.51269 153.368 16.4743 154.778 22.8926 151.729C23.9908 151.207 25.1607 150.554 26.5721 149.691L27.1589 149.328C27.3617 149.202 27.5707 149.071 27.7926 148.931L29.3294 147.95L31.0097 146.874L31.6249 146.485C37.8021 142.603 41.7273 140.925 45.9131 140.925C49.3733 140.925 51.8081 141.875 54.8668 144.119L55.0975 144.29C55.6285 144.687 59.0753 147.436 60.2395 148.284C63.2554 150.48 66.233 152.099 69.9296 153.364L70.2547 153.472C75.6651 155.223 86.0142 156.204 101.387 156.448C101.73 156.454 102.054 156.291 102.255 156.012L102.854 155.185C103.715 154.004 104.406 153.093 104.925 152.457C105.548 151.692 106.192 150.992 106.856 150.355C107.504 149.735 107.126 148.642 106.235 148.553L105.31 148.459C90.3053 146.898 80.2044 144.168 75.068 140.345L74.6934 140.064C71.9541 137.992 69.3377 135.655 65.3501 131.829L60.1961 126.878C58.1587 124.937 57.4424 124.305 56.015 123.093L55.7916 122.903C52.4542 120.073 49.5586 118.133 46.7501 116.975C46.1335 116.721 45.5235 116.506 44.9176 116.331C38.6629 114.523 34.1732 115.528 29.6618 118.583ZM44.335 118.347C44.8655 118.5 45.4032 118.69 45.9502 118.915C48.4392 119.941 51.0737 121.685 54.1273 124.245L55.3225 125.261C56.6379 126.391 57.5487 127.238 60.5801 130.151L64.175 133.609C68.2467 137.507 70.9132 139.868 73.815 142.028L73.9853 142.153C79.2564 145.983 88.8319 148.674 102.76 150.29L103.9 150.418L103.884 150.436C103.752 150.587 103.622 150.74 103.492 150.896L103.206 151.245L102.987 151.52C102.571 152.046 102.077 152.699 101.503 153.479L100.873 154.341L99.5975 154.317C85.138 154.023 75.4484 153.034 70.6093 151.378C67.2585 150.232 64.5455 148.782 61.8037 146.824L61.4744 146.587C60.3577 145.774 56.9238 143.035 56.353 142.609C52.851 139.992 49.9662 138.826 45.9131 138.826C41.2143 138.826 37.0136 140.621 30.519 144.701L29.5209 145.334L27.3803 146.706C26.745 147.112 26.2429 147.428 25.7552 147.729L25.2128 148.061C23.9779 148.81 22.9468 149.38 21.9926 149.833C16.5512 152.418 8.69225 150.27 6.33782 145.691C2.73664 138.688 4.00372 133.541 9.14985 129.645C13.0811 126.669 18.8477 124.691 25.7485 123.383C26.471 123.246 27.1671 122.901 28.0754 122.29L28.2483 122.172C28.5177 121.986 30.1505 120.793 30.7734 120.365L30.8384 120.32C34.8678 117.592 38.7316 116.728 44.335 118.347Z" fill="#00160A"/>
<path fill-rule="evenodd" clip-rule="evenodd" d="M295.624 146.865L295.525 147.105L295.326 147.602C292.745 154.149 290.467 164.18 288.478 177.72L288.362 178.516L288.355 178.476C287.585 173.937 286.612 170.409 285.428 167.882C283.371 163.491 280.441 161.834 276.978 163.409C265.74 168.522 266.41 189.311 278.311 225.844C278.47 226.33 278.923 226.659 279.434 226.659H292.354C292.701 226.659 293.03 226.506 293.255 226.242C309.389 207.212 316.614 194.419 314.848 187.389L314.79 187.166C313.183 181.12 309.164 179.824 303.432 183.073L303.228 183.19L303.514 182.532C313.457 159.497 315.282 145.313 308.563 139.785C303.631 135.727 299.129 138.412 295.624 146.865ZM307.255 140.696C313.17 145.563 311.068 161.499 299.848 186.199C299.335 187.328 312.558 178.476 312.558 187.965L312.601 188.145C313.873 193.985 307.303 205.776 292.816 223.098L291.806 224.298L279.434 225.179C279.434 225.179 262.754 170.105 277.955 165.558C282.33 164.25 285.557 170.603 287.158 187.787C287.289 189.193 289.332 189.223 289.505 187.821L289.645 186.689C291.945 168.31 294.673 155.322 297.805 147.769L297.984 147.343C300.909 140.495 303.95 137.977 307.255 140.696Z" fill="#00160A"/>
<path d="M307.063 141.608C312.978 146.474 310.581 161.375 299.361 186.075C298.848 187.204 300.201 188.259 301.172 187.486L301.566 187.176C307.94 182.214 311.208 182.593 312.558 187.964L312.601 188.145C313.873 193.985 307.303 205.775 292.816 223.097L291.806 224.298H280.292L279.879 223.011C269.023 188.989 268.595 169.816 277.955 165.558C282.273 163.594 285.557 170.602 287.158 187.786C287.289 189.193 289.333 189.223 289.505 187.82L289.645 186.689C291.945 168.31 294.673 155.321 297.805 147.769L297.984 147.343C300.909 140.494 303.758 138.889 307.063 141.608Z" fill="white"/>
<path d="M276.303 184.805C278.621 184.805 280.5 182.926 280.5 180.608C280.5 178.29 278.621 176.411 276.303 176.411C273.986 176.411 272.106 178.29 272.106 180.608C272.106 182.926 273.986 184.805 276.303 184.805Z" fill="#E7EAEE"/>
<path d="M302.535 157.524C304.853 157.524 306.732 155.645 306.732 153.327C306.732 151.009 304.853 149.13 302.535 149.13C300.217 149.13 298.338 151.009 298.338 153.327C298.338 155.645 300.217 157.524 302.535 157.524Z" fill="#E7EAEE"/>
<path d="M304.634 197.922C306.952 197.922 308.831 196.043 308.831 193.725C308.831 191.407 306.952 189.528 304.634 189.528C302.316 189.528 300.437 191.407 300.437 193.725C300.437 196.043 302.316 197.922 304.634 197.922Z" fill="#E7EAEE"/>
<path fill-rule="evenodd" clip-rule="evenodd" d="M82.181 229.574C74.7724 229.691 49.2954 231.579 48.8557 230.634C48.2927 229.425 76.0749 227.835 82.1304 227.739L84.0274 227.713C89.5338 227.653 82.181 229.574 82.181 229.574ZM191.157 227.119C191.809 227.101 192.351 227.616 192.368 228.268C192.386 228.919 191.871 229.462 191.219 229.479L180.675 229.739C174.112 229.89 166.505 230.046 155.265 230.267C154.613 230.28 154.074 229.762 154.061 229.11C154.048 228.459 154.566 227.92 155.218 227.907L175.122 227.501C181.165 227.371 186.02 227.255 191.157 227.119ZM218.354 226.569C219.006 226.558 219.542 227.079 219.553 227.73C219.563 228.382 219.043 228.919 218.391 228.929L215.625 228.963L207.162 229.022C205.39 229.04 204.003 229.064 202.368 229.104C201.716 229.12 201.175 228.605 201.159 227.953C201.143 227.301 201.658 226.76 202.31 226.744L204.392 226.699C205.755 226.675 207.14 226.659 208.98 226.645L216.017 226.599C216.836 226.59 217.576 226.581 218.354 226.569ZM294.855 224.298C294.855 224.298 296.974 223.932 312.447 225.091C313.097 225.139 313.584 225.706 313.536 226.356C313.487 227.006 305.836 226.678 295.376 226.659L292.499 226.664C284.819 226.698 277.683 226.906 265.841 227.393L250.895 228.025C244.517 228.286 240.711 228.413 236.084 228.522C235.432 228.538 234.892 228.021 234.876 227.37C234.861 226.718 235.377 226.178 236.028 226.162L239.745 226.065C244.165 225.937 248.707 225.759 256.76 225.415L265.299 225.053C278.652 224.501 286.077 224.298 294.855 224.298Z" fill="#00160A"/>
<path d="M259.088 54.3779L259.359 53.8804C261.475 50.0471 263.319 48.1439 265.469 48.7647C265.643 48.8148 265.814 48.8839 265.982 48.9706C267.299 49.6534 267.616 50.9234 267.246 52.6568L267.222 52.7637L267.284 52.6744C267.908 51.7878 268.504 51.103 269.121 50.5947L269.254 50.4883C270.626 49.4196 272.083 49.3205 273.401 50.4336C275.507 52.211 275.268 55.1923 273.549 57.0269L273.453 57.1259C273.214 57.3675 273.071 57.8902 272.91 59.1205L272.771 60.1986C272.605 61.4423 272.493 61.9878 272.23 62.8305C271.735 64.422 270.922 65.7493 269.657 66.8336C268.067 68.1965 265.383 68.0066 261.603 66.4527C261.197 66.286 261.003 65.8216 261.17 65.4155C261.337 65.0093 255.868 60.1862 255.702 60.3978L255.649 60.4592C255.345 60.7755 254.841 60.7859 254.525 60.4814L253.757 59.7413C253.294 59.2949 253.525 58.5131 254.156 58.3893C255.311 58.1622 256.207 57.9124 256.837 57.6451C257.366 57.4206 257.655 57.2064 257.724 57.0671C257.724 57.0671 258.872 54.7799 259.088 54.3779Z" fill="white"/>
<path fill-rule="evenodd" clip-rule="evenodd" d="M253.414 58.4692C252.074 58.3686 251.286 59.3873 251.286 60.6202C251.286 64.889 258.26 70.7267 262.805 70.7267C264.137 70.7267 265.227 69.7741 264.84 68.3177C264.694 67.7687 264.359 67.2815 263.808 66.6813L263.687 66.5507C263.068 65.8938 262.429 65.307 260.994 64.0726L258.797 62.1895C258.258 61.723 257.4 60.9788 257.141 60.7574L256.829 60.4922C256.229 59.9859 255.764 59.6169 255.349 59.3238C254.616 58.8057 254.049 58.5167 253.414 58.4692ZM252.876 60.6202C252.876 58.9512 255.268 61.2585 258.145 63.7279L260.058 65.3638C262.398 67.3816 265.255 69.4809 263.808 69.6347C259.225 70.1229 252.876 64.0447 252.876 60.6202Z" fill="#00160A"/>
<path fill-rule="evenodd" clip-rule="evenodd" d="M253.782 47.2826C254.11 46.9915 255.751 45.8454 254.903 47.3502C254.056 48.8545 249.156 50.7629 254.056 58.3717C254.242 58.6612 254.015 59.2418 253.607 59.4023C253.198 59.5628 252.736 59.3615 252.576 58.9528C251.337 55.7976 250.764 53.5135 250.874 52.0288C250.99 50.4553 251.978 48.8813 253.782 47.2826Z" fill="#00160A"/>
<path fill-rule="evenodd" clip-rule="evenodd" d="M247.659 49.9326C247.746 49.5022 248.595 48.4365 248.595 49.3092C248.595 50.1818 247.347 52.3952 249.104 54.8894C250.861 57.3835 253.884 59.0751 253.625 59.4297C253.367 59.7847 252.87 59.8627 252.515 59.6041C249.971 57.7514 248.426 56.3018 247.844 55.1655C247.237 53.9801 247.196 52.2451 247.659 49.9326Z" fill="#00160A"/>
<path fill-rule="evenodd" clip-rule="evenodd" d="M259.088 54.3779L259.359 53.8804C261.475 50.0471 263.319 48.1439 265.469 48.7647C265.643 48.8148 265.814 48.8839 265.982 48.9706C267.299 49.6534 267.616 50.9234 267.246 52.6568L267.222 52.7637L267.284 52.6744C267.908 51.7878 268.504 51.103 269.121 50.5947L269.254 50.4883C270.626 49.4196 272.083 49.3205 273.401 50.4336C275.507 52.211 275.268 55.1923 273.549 57.0269L273.453 57.1259C273.214 57.3675 273.071 57.8902 272.91 59.1205L272.771 60.1986C272.605 61.4423 272.493 61.9878 272.23 62.8305C271.735 64.422 270.922 65.7493 269.657 66.8336C268.067 68.1965 265.383 68.0066 261.603 66.4527C261.197 66.286 261.003 65.8216 261.17 65.4155C261.337 65.0093 267.061 68.3353 269.254 65.7499C271.447 63.1639 271.684 57.8159 272.316 56.195L272.469 55.9122C273.682 54.686 273.723 52.7859 272.375 51.6485C271.681 51.0617 271.05 51.1045 270.23 51.7429C269.483 52.3245 268.705 53.3226 267.807 54.7753L267.544 55.2083C267.103 55.9534 266.218 57.4985 266.101 57.6946L265.939 57.962C265.394 58.8517 264.7 59.409 264.598 59.4333C264.494 59.457 264.348 59.3744 264.312 58.6215C264.3 58.3743 264.363 58.125 264.494 57.786L264.547 57.6549C264.706 57.2668 265.585 55.442 265.645 55.3115C265.911 54.7366 266.126 54.236 266.303 53.7633C267.018 51.8595 265.954 50.7469 265.25 50.382C265.175 50.3428 265.1 50.3129 265.028 50.2922C263.936 49.9769 262.417 51.5979 260.642 54.8455L260.259 55.5638C259.974 56.1057 259.696 56.6635 259.15 57.771C258.752 58.5761 257.691 59.1535 255.922 59.619L255.825 59.6438L255.833 59.667C255.911 59.9111 255.868 60.1862 255.702 60.3978L255.649 60.4592C255.345 60.7755 254.841 60.7859 254.525 60.4814L253.757 59.7413C253.294 59.2949 253.525 58.5131 254.156 58.3893C255.311 58.1622 256.207 57.9124 256.837 57.6451C257.366 57.4206 257.655 57.2064 257.724 57.0671L258.467 55.5721C258.695 55.12 258.872 54.7799 259.088 54.3779Z" fill="#00160A"/>
<path d="M269.519 58.2909C270.516 58.2909 271.325 57.6279 271.325 56.8101C271.325 55.9922 270.516 55.3292 269.519 55.3292C268.521 55.3292 267.713 55.9922 267.713 56.8101C267.713 57.6279 268.521 58.2909 269.519 58.2909Z" fill="#FFB61D"/>
<path d="M264.358 54.1624C265.356 54.1624 266.164 53.4994 266.164 52.6816C266.164 51.8637 265.356 51.2007 264.358 51.2007C263.361 51.2007 262.552 51.8637 262.552 52.6816C262.552 53.4994 263.361 54.1624 264.358 54.1624Z" fill="#FFB61D"/>
<path fill-rule="evenodd" clip-rule="evenodd" d="M131.898 205.047C130.593 211.196 124.295 212.94 124.363 217.891C124.398 220.451 125.105 222.575 125.686 224.209C126.866 227.53 129.942 230.951 131.366 234.118C132.583 236.825 138.691 234.994 139.179 239.2C139.445 241.492 135.124 242.812 133.948 242.901C132.26 243.029 130.121 242.45 127.529 241.163C124.378 239.631 121.848 238.425 120.017 236.219C119.66 235.788 119.436 234.573 119.041 232.663C118.608 230.573 117.132 225.26 113.275 216.682C112.724 215.456 110.615 210.442 108.27 205.314C106.334 201.082 114.333 192.604 117.88 192.9C126.591 193.629 132.82 200.704 131.898 205.047Z" fill="white"/>
<path fill-rule="evenodd" clip-rule="evenodd" d="M125.79 241.253C123.621 239.962 121.838 238.474 120.439 236.789C120.082 236.359 119.819 234.774 119.425 232.864C119.217 231.863 111.688 213.8 109.205 207.001C108.741 205.732 109.866 206.62 110.13 207.001C111.571 209.077 120.439 222.773 124.676 235.462" fill="#E7EAEE"/>
<path fill-rule="evenodd" clip-rule="evenodd" d="M127.48 240.715L127.802 240.873C130.24 242.084 132.207 242.617 133.675 242.506C135.253 242.387 137.827 240.964 137.941 239.753C138.124 237.81 137.597 237.258 134.997 236.275C134.242 235.99 132.203 236.053 129.06 236.529C128.487 236.615 127.952 236.221 127.865 235.648C127.779 235.076 128.173 234.54 128.746 234.454L129.262 234.378C132.477 233.917 134.584 233.877 135.738 234.312L136.081 234.444C139.202 235.679 140.312 236.956 140.03 239.95C139.792 242.487 136.309 244.411 133.834 244.598C131.988 244.738 129.763 244.156 127.141 242.886L126.877 242.757C123.598 241.163 120.986 239.206 119.054 236.878C118.8 236.571 118.637 236.163 118.47 235.536L118.431 235.387C118.369 235.144 118.307 234.874 118.236 234.536L117.82 232.495L117.755 232.197C117.071 229.133 115.089 223.476 112.086 216.757L111.628 215.746C111.346 215.131 107.318 208.604 107.017 207.074C105.893 201.355 110.49 198.523 110.49 198.523C110.49 198.523 108.106 203.552 108.778 206.025C109.3 207.947 113.708 214.562 115.275 219.633C116.898 224.881 118.596 230.48 121.077 235.059C122.95 238.515 124.291 240.081 127.48 240.715Z" fill="#00160A"/>
<path fill-rule="evenodd" clip-rule="evenodd" d="M132.569 239.538C132.672 239.191 133.038 238.994 133.385 239.097C134.465 239.42 135.23 239.777 135.697 240.201C136.139 240.603 136.576 241.22 137.023 242.057C137.194 242.376 137.074 242.774 136.755 242.944C136.435 243.115 136.038 242.995 135.867 242.676C135.484 241.959 135.127 241.456 134.815 241.171C134.526 240.909 133.918 240.625 133.009 240.354C132.663 240.251 132.466 239.885 132.569 239.538Z" fill="#00160A"/>
<path fill-rule="evenodd" clip-rule="evenodd" d="M134.401 237.515C134.515 237.171 134.886 236.985 135.23 237.1C136.155 237.408 136.843 237.759 137.3 238.174C137.753 238.585 138.188 239.25 138.628 240.178C138.783 240.505 138.644 240.896 138.317 241.052C137.989 241.207 137.598 241.068 137.443 240.74C137.069 239.954 136.72 239.419 136.418 239.145C136.119 238.873 135.583 238.6 134.816 238.344C134.472 238.23 134.286 237.859 134.401 237.515Z" fill="#00160A"/>
<path fill-rule="evenodd" clip-rule="evenodd" d="M127.834 195.249C130.142 196.177 134.679 201.321 133.977 204.211C133.252 207.198 132.187 208.392 130.493 210.373L130.316 210.577C129.799 211.165 127.666 213.332 127.581 213.423L127.379 213.646C125.478 215.792 124.7 218.164 126.247 222.536C127.38 225.739 129.244 229.38 131.816 232.851C132.155 233.31 133 234.654 132.541 234.994C132.084 235.333 130.999 234.236 130.66 233.779C127.972 230.15 126.023 226.633 124.817 223.225C122.995 218.075 123.435 215.953 125.949 213.181L126.109 213.008C126.379 212.727 128.227 210.847 128.716 210.301L128.765 210.246C130.345 208.449 131.386 206.546 132.055 203.795C132.517 201.894 130.575 198.518 126.473 195.778C123.749 193.96 125.528 194.321 127.834 195.249Z" fill="#00160A"/>
</svg>
