<svg width="22" height="22" viewBox="0 0 22 22" fill="none" xmlns="http://www.w3.org/2000/svg">
<path d="M20.9425 9.07459H20.0927V9.03081H10.5977V13.2508H16.56C15.6902 15.7074 13.3528 17.4708 10.5977 17.4708C7.10198 17.4708 4.26772 14.6365 4.26772 11.1408C4.26772 7.64507 7.10198 4.81081 10.5977 4.81081C12.2113 4.81081 13.6794 5.41955 14.7971 6.41389L17.7812 3.42982C15.897 1.67378 13.3766 0.59082 10.5977 0.59082C4.77149 0.59082 0.0477295 5.31458 0.0477295 11.1408C0.0477295 16.967 4.77149 21.6908 10.5977 21.6908C16.4239 21.6908 21.1477 16.967 21.1477 11.1408C21.1477 10.4334 21.0749 9.74293 20.9425 9.07459Z" fill="#FFC107"/>
<path d="M1.26413 6.23031L4.73033 8.77233C5.66822 6.45028 7.93963 4.81081 10.5977 4.81081C12.2113 4.81081 13.6794 5.41955 14.7971 6.41388L17.7812 3.42982C15.897 1.67378 13.3766 0.59082 10.5977 0.59082C6.54545 0.59082 3.03125 2.87858 1.26413 6.23031Z" fill="#FF3D00"/>
<path d="M10.5977 21.6908C13.3228 21.6908 15.7989 20.6479 17.671 18.952L14.4057 16.189C13.3465 16.9913 12.0299 17.4708 10.5977 17.4708C7.85367 17.4708 5.52371 15.7211 4.64595 13.2793L1.2056 15.93C2.95162 19.3466 6.49747 21.6908 10.5977 21.6908Z" fill="#4CAF50"/>
<path d="M20.9425 8.81612H20.0927V8.77234H10.5977V12.9923H16.56C16.1423 14.1723 15.3832 15.1899 14.4042 15.931C14.4047 15.9305 14.4052 15.9305 14.4057 15.93L17.671 18.693C17.4399 18.903 21.1477 16.1573 21.1477 10.8823C21.1477 10.175 21.0749 9.48446 20.9425 8.81612Z" fill="#1976D2"/>
</svg>
