<svg width="259" height="276" viewBox="0 0 259 276" fill="none" xmlns="http://www.w3.org/2000/svg">
<path fill-rule="evenodd" clip-rule="evenodd" d="M201.216 171.537C196.823 173.255 191.741 175.832 191.27 180.526C197.237 175.935 204.609 173.195 212.126 172.774C206.932 179.317 200.375 184.772 192.996 188.688C186.369 192.204 177.98 195.955 177.412 203.435C184.528 194.96 195.47 189.83 206.537 189.778C199.457 200.148 188.104 207.503 175.747 209.727C176.171 212.913 189.872 219.738 193.863 221.052C196.705 233.262 197.936 249.096 200.779 261.306C201.478 264.311 202.094 267.763 200.254 270.24C198.429 272.696 194.981 273.119 191.929 273.336C179.897 274.191 163.435 275.047 151.404 275.902C149.963 269.376 148.523 262.85 147.082 256.323C126.788 258.207 39.7834 278.145 23.8169 267.686C-37.8189 227.309 40.7778 213.555 42.4669 164.396C42.854 153.124 8.96441 133.421 9.50247 121.903C9.85383 114.382 11.0181 107.036 14.7391 100.578C18.4601 94.12 24.3566 89.1453 30.7651 85.3402C21.9417 83.0723 15.2589 74.2771 15.4377 65.169C15.6165 56.0609 22.6397 47.5347 31.5448 45.6152C27.3462 40.6115 20.7349 38.3183 15.9058 33.9203C10.2802 28.797 7.4533 20.5326 9.50247 13.2048C11.5516 5.87705 18.7666 0.11169 26.3687 0.436545C32.6129 0.703405 38.108 4.65282 42.4669 9.13216C49.2266 16.0791 54.2541 24.6993 56.9722 34.0037C58.7838 40.2052 65.4235 43.3599 71.0309 46.5694C76.638 49.7788 82.4613 55.3694 80.8813 61.6337C78.7926 53.0612 109.836 63.2721 137.989 65.7719C141.727 66.1038 145.75 66.5867 148.513 69.126C152.484 72.7749 158.446 74.1059 163.592 72.4921C165.229 76.5506 166.434 81.1093 165.042 85.2584C163.65 89.4075 158.721 92.5743 154.78 90.6709C155.809 95.9626 156.837 101.255 157.866 106.546C167.941 106.668 178.015 106.873 188.087 107.164C193.425 107.318 199.004 107.56 203.644 110.205C208.283 112.85 214.492 109.103 219.077 99.477C216.11 115.184 219.625 121.46 225.687 123.167C225.7 123.048 226.171 123.104 226.185 122.986C227.989 107.464 238.522 93.6823 253.18 88.2303C251.884 91.217 242.609 97.1169 236.169 104.651C229.878 112.01 226.867 121.863 226.556 123.632C236.544 121.013 239.874 128.455 256.821 121.903C249.077 131.213 234.155 133.506 223.973 126.949C219.17 132.306 219.439 138.238 216.036 144.577C221.816 137.394 229.491 143.763 223.402 148.419C226.634 148.729 230.128 149.155 232.472 151.401C234.816 153.647 234.875 158.375 231.851 159.557C221.64 163.55 211.428 167.544 201.216 171.537Z" fill="#64FCD9"/>
<path fill-rule="evenodd" clip-rule="evenodd" d="M184.64 136.136C185.01 135.433 185.411 134.696 186.092 134.287C186.772 133.877 187.816 133.962 188.182 134.667C188.572 135.416 187.992 136.32 187.311 136.82C186.63 137.321 185.792 137.674 185.35 138.394C187.741 139.969 190.132 141.545 192.523 143.121C194.396 144.355 196.516 146.117 196.132 148.327C195.907 149.623 194.809 150.63 193.586 151.113C192.363 151.597 191.018 151.647 189.704 151.685C180.87 151.94 172.027 151.894 163.195 151.55C162.583 151.527 161.899 151.47 161.491 151.012C161.175 150.658 161.109 150.152 161.059 149.68C160.55 144.979 160.042 140.278 159.533 135.578C159.515 135.404 159.497 135.223 159.559 135.06C159.82 134.374 160.847 134.796 161.421 135.255C165.487 138.499 171.986 138.118 175.644 134.42C176.528 133.527 178.033 133.642 179.168 134.181C180.304 134.72 181.254 135.596 182.393 136.127C182.272 135.468 182.852 134.773 183.522 134.776C184.192 134.779 184.767 135.478 184.64 136.136Z" fill="white"/>
<path fill-rule="evenodd" clip-rule="evenodd" d="M42.3759 84.2576C42.3759 84.2576 41.3892 72.437 43.8729 68.637C46.3571 64.8371 55.8188 63.6933 55.8188 63.6933C55.8188 63.6933 81.7521 63.3542 95.764 63.8899C109.776 64.4255 137.798 66.8267 137.798 66.8267C137.798 66.8267 141.44 67.6213 143.076 68.637C144.713 69.6528 146.996 72.5356 146.996 72.5356C146.996 72.5356 151.965 73.2602 154.436 73.3584C156.908 73.4571 159.172 73.0209 159.172 73.0209C159.172 73.0209 162.322 82.2068 160.095 86.5854C157.868 90.9637 150.392 90.2847 150.392 90.2847L153.039 106.671C153.039 106.671 149.892 108.158 148.172 110.022C146.453 111.887 145.762 114.56 145.762 114.56L150.873 164.396C150.873 164.396 152.377 166.987 155.606 167.97C158.836 168.954 166.112 169.038 166.112 169.038C166.112 169.038 165.853 174.063 166.112 176.226C166.372 178.388 166.603 179.573 166.603 179.573L172.081 218.791C172.081 218.791 166.757 219.76 161.488 221.038C156.219 222.317 145.762 225.177 145.762 225.177C145.762 225.177 142.076 226.857 141.599 229.571C141.121 232.284 143.076 240.439 143.076 240.439L84.3731 244.914C84.3731 244.914 78.6606 245.021 76.6956 243.783C74.7306 242.545 74.1921 238.499 74.1921 238.499L66.252 167.083C66.252 167.083 53.5634 167.394 49.8578 165.278C46.1521 163.162 45.7038 155.351 45.7038 155.351C45.7038 155.351 46.3192 150.924 45.7038 147.851C45.4984 146.826 42.8149 135.713 41.9132 125.139C41.4029 119.155 48.4437 114.56 48.4437 114.56L42.3759 84.2576Z" fill="white"/>
<path fill-rule="evenodd" clip-rule="evenodd" d="M83.7976 67.8158C83.3409 68.4594 83.7231 69.4192 84.3828 69.8521C85.0425 70.2851 85.8737 70.3338 86.6619 70.3692C95.2259 70.7547 103.79 71.1401 112.354 71.5255C113.188 71.563 114.112 71.5714 114.744 71.0253C115.377 70.4796 115.293 69.1775 114.468 69.0466C104.945 67.5323 95.2819 66.9036 85.643 67.171C84.9664 67.1896 84.1895 67.2637 83.7976 67.8158Z" fill="#E7EAEE"/>
<path fill-rule="evenodd" clip-rule="evenodd" d="M121.899 129.198L119.674 118.754C119.674 118.754 119.57 120.908 118.392 121.784C117.214 122.66 114.884 122.315 114.884 122.315C114.884 122.315 114.515 115.022 116.155 112.801C117.795 110.581 119.41 112.678 122.525 111.968C125.637 111.258 124.992 108.92 128.608 109.961C132.225 111.002 134.897 118.742 134.897 118.742C134.897 118.742 132.061 119.692 130.855 119.448C129.648 119.204 129.942 117.741 129.942 117.741C129.942 117.741 129.087 117.377 129.305 119.943C129.411 121.189 130.355 123.064 130.855 125.516C131.041 126.429 130.855 128.481 130.855 128.481C130.855 128.481 127.637 128.809 124.856 129.405C122.076 130 121.899 129.198 121.899 129.198Z" fill="#E7EAEE"/>
<path fill-rule="evenodd" clip-rule="evenodd" d="M42.8902 103.22C41.8193 102.643 40.9482 101.763 40.0944 100.897C37.8921 98.6618 35.6625 96.3903 34.1349 93.6497C33.9891 93.3887 33.8462 93.089 33.9299 92.8023C34.0141 92.5155 34.4519 92.3528 34.6154 92.6025C37.2715 96.657 40.6252 100.253 44.4851 103.185C44.1383 103.651 43.4021 103.496 42.8902 103.22Z" fill="#00160A"/>
<path fill-rule="evenodd" clip-rule="evenodd" d="M46.0985 51.9029C46.7312 51.2508 47.0687 50.3741 47.3599 49.5134C48.2685 46.8303 48.8875 44.0493 49.2033 41.2341C49.2601 40.7271 49.3531 40.1431 49.7929 39.8845C50.2879 42.2986 49.6749 44.7864 49.0655 47.1738C48.5299 49.2725 47.9366 51.4764 46.4175 53.0205C46.2636 53.1768 46.0671 53.3359 45.8512 53.3C45.5596 53.2513 45.4428 52.8638 45.5467 52.5872C45.6511 52.3109 45.8927 52.1147 46.0985 51.9029Z" fill="#00160A"/>
<path fill-rule="evenodd" clip-rule="evenodd" d="M198.82 72.9574C199.122 72.8768 199.428 73.1144 199.559 73.3972C199.691 73.6799 199.7 74.0009 199.759 74.3074C199.988 75.5035 201.066 76.4854 202.278 76.6006C202.429 76.9522 202.095 77.3038 201.831 77.5805C201.229 78.2096 200.849 79.0473 200.772 79.9144C200.722 80.477 200.604 81.2604 200.039 81.2531C199.585 81.2471 199.385 80.6982 199.222 80.2745C198.822 79.2398 197.921 78.4122 196.856 78.102C196.633 78.0368 196.539 77.7513 196.6 77.5265C196.662 77.3022 196.832 77.1266 196.995 76.9599C197.694 76.2418 198.404 75.392 198.397 74.3895C198.393 73.8474 198.297 73.0975 198.82 72.9574Z" fill="#FFB61D"/>
<path fill-rule="evenodd" clip-rule="evenodd" d="M220.028 167.12C219.089 168.085 218.756 169.596 219.203 170.867C218.708 171.089 218.338 170.406 218.093 169.922C217.725 169.196 217.03 168.643 216.24 168.449C217.385 167.727 218.097 166.368 218.04 165.016C218.5 164.715 219.015 165.341 219.147 165.874C219.28 166.407 219.479 167.101 220.028 167.12Z" fill="#E7EAEE"/>
<path fill-rule="evenodd" clip-rule="evenodd" d="M212.01 168.931C212.555 169.795 213.33 170.513 214.233 170.991C214.558 171.163 214.263 171.64 213.995 171.891C213.32 172.522 212.893 173.412 212.821 174.333C212.231 173.741 211.64 173.15 211.05 172.558C210.814 172.321 210.565 171.955 210.768 171.69C211.388 170.883 211.817 169.93 212.01 168.931Z" fill="#E7EAEE"/>
<path fill-rule="evenodd" clip-rule="evenodd" d="M172.563 64.8399C173.1 61.4174 174.399 58.0536 176.681 55.4471C178.963 52.8405 182.295 51.0611 185.76 51.064C189.224 51.0668 192.723 53.029 194.163 56.1801C194.908 57.8108 195.091 59.6461 195.04 61.4379C194.944 64.846 194.028 68.2282 192.393 71.2194C190.917 73.9166 188.797 76.3432 186.044 77.7113C183.291 79.0798 179.86 79.2635 177.184 77.7508C175.064 76.553 173.582 74.4031 172.875 72.0737C172.169 69.7442 172.185 67.2447 172.563 64.8399ZM193.737 62.2498C193.8 60.1278 193.45 57.9364 192.334 56.1305C191.656 55.0326 190.705 54.1039 189.592 53.4506C186.001 51.3451 181.114 52.4764 178.132 55.3802C175.15 58.284 173.857 62.5753 173.724 66.7356C173.653 68.9548 173.892 71.2303 174.835 73.24C175.779 75.2497 177.505 76.969 179.656 77.5212C182.469 78.2437 185.439 76.8832 187.645 74.9932C191.326 71.8401 193.595 67.0949 193.737 62.2498Z" fill="#FFB61D"/>
<path fill-rule="evenodd" clip-rule="evenodd" d="M208.015 62.4633C207.442 63.2124 206.843 64.1963 207.283 65.0304C207.44 65.3288 207.033 65.676 206.709 65.5822C206.385 65.4879 206.201 65.1456 206.115 64.8194C206.028 64.4931 206 64.1436 205.827 63.854C205.654 63.5644 205.261 63.363 204.975 63.5415C204.568 63.4931 204.526 62.8793 204.763 62.5443C204.999 62.2092 205.388 61.9788 205.534 61.5954C205.649 61.2913 205.587 60.9506 205.642 60.6304C205.697 60.3102 205.969 59.9683 206.283 60.05C206.273 60.6127 206.338 61.1971 206.624 61.682C206.909 62.1673 207.456 62.5302 208.015 62.4633Z" fill="#FFB61D"/>
<path fill-rule="evenodd" clip-rule="evenodd" d="M156.767 61.3542C157.215 60.8334 157.777 60.3876 158.437 60.1979C159.098 60.0082 159.864 60.1085 160.379 60.5624C160.94 61.0561 161.116 61.8814 160.996 62.6192C160.877 63.357 160.505 64.0276 160.114 64.6639C159.606 65.49 159.054 66.2894 158.462 67.0575C158.277 67.2971 158.074 67.5444 157.79 67.6515C157.416 67.7925 156.999 67.6551 156.629 67.5009C155.333 66.9588 154.127 66.198 153.079 65.2608C152.12 64.4026 151.235 63.1448 151.624 61.9176C151.871 61.1355 152.628 60.57 153.439 60.4492C154.25 60.3284 155.091 60.6143 155.736 61.121C156.045 61.363 156.511 61.6518 156.767 61.3542ZM152.669 61.8085C152.057 62.651 152.722 63.8319 153.493 64.5314C154.457 65.4046 155.6 66.0494 156.733 66.6869C156.878 66.7691 157.041 66.8537 157.204 66.8186C157.35 66.7872 157.458 66.668 157.554 66.554C158.321 65.6446 159.009 64.668 159.605 63.6386C160.065 62.8472 160.402 61.6836 159.662 61.1447C159.077 60.7182 158.224 61.0618 157.727 61.5894C157.231 62.1166 156.919 62.8053 156.377 63.2853C155.953 62.6176 155.503 61.9245 154.816 61.5326C154.13 61.1411 153.134 61.1689 152.669 61.8085Z" fill="#FFB61D"/>
<path fill-rule="evenodd" clip-rule="evenodd" d="M147.993 38.3227C149.398 37.2281 150.959 36.3348 152.615 35.6791C153.63 35.2771 154.788 34.9678 155.791 35.3984C157.399 36.0879 157.712 38.3964 156.866 39.9273C156.021 41.4585 154.416 42.3868 152.889 43.2399C149.894 44.9125 146.9 46.5851 143.905 48.2577C144.495 47.0808 143.829 45.699 143.285 44.5004C142.057 41.8012 141.415 38.8378 141.415 35.8728C141.414 34.936 141.484 33.9714 141.895 33.1297C142.306 32.288 143.126 31.5896 144.063 31.5679C145.561 31.5324 146.557 33.0931 147.063 34.5039C147.505 35.7395 147.818 37.0218 147.993 38.3227ZM154.34 36.1769C151.918 36.669 149.662 37.9433 147.989 39.7629C147.825 39.9422 147.504 39.8632 147.354 39.6719C147.204 39.4806 147.175 39.2237 147.146 38.982C146.958 37.3815 146.539 35.808 145.907 34.3247C145.555 33.4982 144.965 32.5852 144.067 32.5707C143.401 32.5598 142.821 33.0931 142.576 33.7121C142.33 34.3311 142.351 35.0202 142.398 35.6847C142.661 39.3896 143.636 43.0433 145.254 46.3865C147.903 44.902 150.552 43.4175 153.201 41.9329C154.028 41.4694 154.87 40.9949 155.512 40.2986C156.155 39.6022 156.578 38.6348 156.391 37.7061C156.204 36.777 155.269 35.9884 154.34 36.1769Z" fill="#FFB61D"/>
<path fill-rule="evenodd" clip-rule="evenodd" d="M129.456 221.84C137.188 220.959 144.971 220.515 152.753 220.512C154.181 220.512 155.423 219.402 156.003 218.098C156.583 216.793 156.629 215.322 156.63 213.894C156.633 208.59 156.134 203.3 155.636 198.019C155.433 195.878 155.232 193.736 155.029 191.594C154.907 190.295 154.776 188.966 154.23 187.782C153.28 185.725 151.177 184.388 148.987 183.812C146.796 183.236 144.494 183.315 142.23 183.398C134.715 183.673 127.2 183.948 119.684 184.223C124.016 182.634 128.734 182.56 133.349 182.504C136.886 182.46 140.423 182.417 143.961 182.374C147.576 182.33 151.708 182.511 154.014 185.296C155.504 187.095 155.833 189.558 156.082 191.881C156.866 199.194 157.441 206.53 157.804 213.876C157.925 216.311 157.828 219.172 155.845 220.59C154.737 221.383 153.298 221.502 151.938 221.595C143.656 222.156 135.374 222.716 127.092 223.277C125.148 223.409 123.098 223.522 121.349 222.662C120.741 222.363 120.117 221.688 120.443 221.095C123.135 222.561 126.41 222.187 129.456 221.84Z" fill="#00160A"/>
<path fill-rule="evenodd" clip-rule="evenodd" d="M96.7012 104.527C96.8563 104.759 96.8917 105.048 96.9227 105.325C96.9952 105.97 97.0677 106.616 97.1402 107.262C97.2264 108.027 97.2441 108.954 96.609 109.391C96.2707 109.623 95.8341 109.642 95.4237 109.654C86.784 109.887 78.1446 110.12 69.5053 110.354C68.9495 110.369 68.3063 110.345 67.9656 109.905C67.7518 109.63 67.7187 109.259 67.699 108.91C67.6358 107.816 67.6184 106.719 67.6462 105.623C67.6507 105.456 67.6603 105.277 67.7638 105.146C67.8879 104.989 68.1066 104.951 68.3047 104.924C77.2316 103.714 86.2785 103.395 95.2682 103.972C95.799 104.006 96.4056 104.085 96.7012 104.527ZM96.3464 108.726C95.4688 108.252 96.3528 106.863 96.0338 105.918C95.7596 105.106 94.7181 104.914 93.8626 104.865C85.7167 104.401 77.528 104.691 69.4348 105.728C69.1368 105.767 68.8061 105.824 68.6253 106.064C68.4465 106.301 68.4787 106.63 68.5194 106.924C68.5826 107.379 68.6455 107.834 68.7083 108.29C68.7582 108.648 68.8339 109.051 69.1352 109.252C69.3539 109.397 69.6354 109.396 69.8976 109.389C78.7137 109.168 87.5302 108.947 96.3464 108.726Z" fill="#00160A"/>
<path fill-rule="evenodd" clip-rule="evenodd" d="M112.953 119.822C112.994 118.864 113.036 117.905 113.077 116.946C113.157 115.076 113.255 113.136 114.124 111.479C114.993 109.821 116.869 108.533 118.69 108.964C119.83 109.233 120.88 110.129 122.026 109.888C123.024 109.679 123.636 108.693 124.478 108.119C126.488 106.752 129.288 108.022 130.95 109.795C132.74 111.707 133.904 114.196 134.223 116.795C134.25 117.016 134.264 117.264 134.122 117.435C134.004 117.576 133.811 117.626 133.632 117.667C132.94 117.825 132.249 117.984 131.557 118.142C130.968 118.277 130.357 118.412 129.765 118.29C129.174 118.167 128.606 117.711 128.558 117.109C128.381 120.475 130.902 123.691 130.2 126.987C129.938 126.845 129.677 126.702 129.416 126.559C130.032 123.253 127.086 120.053 127.701 116.746C127.782 116.309 127.958 115.843 128.349 115.63C128.74 115.418 129.359 115.659 129.344 116.104C129.319 116.817 130.088 117.349 130.801 117.343C131.514 117.337 132.163 116.955 132.772 116.584C132.989 116.452 132.929 116.126 132.839 115.889C132.165 114.12 131.279 112.433 130.205 110.874C129.48 109.82 128.606 108.778 127.4 108.351C126.195 107.923 124.602 108.359 124.159 109.559C123.639 110.963 121.676 111.058 120.235 110.653C118.793 110.248 117.176 109.616 115.89 110.383C114.814 111.024 114.454 112.39 114.252 113.625C113.907 115.746 113.747 117.896 113.776 120.044C113.835 120.371 114.252 120.477 114.586 120.469C116.339 120.423 117.967 119.04 118.295 117.317C118.768 117.86 118.936 118.597 119.089 119.3C119.619 121.737 120.148 124.174 120.677 126.611C120.84 127.362 120.65 128.515 119.895 128.378C119.552 125.72 119.045 123.084 118.377 120.488C117.114 120.775 115.851 121.062 114.588 121.349C114.201 121.438 113.768 121.519 113.428 121.312C112.96 121.026 112.93 120.37 112.953 119.822Z" fill="#00160A"/>
<path fill-rule="evenodd" clip-rule="evenodd" d="M149.897 186.01C150.542 186.709 149.54 187.997 150.13 188.742C150.437 189.128 150.219 189.741 149.813 190.021C149.407 190.301 148.887 190.339 148.395 190.368C139.934 190.859 131.474 191.351 123.013 191.842C122.438 191.876 121.751 191.856 121.437 191.374C121.3 191.163 121.266 190.903 121.237 190.653C121.16 190.003 121.082 189.353 121.005 188.703C120.981 188.498 120.959 188.28 121.055 188.098C121.213 187.799 121.606 187.734 121.944 187.704C130.836 186.919 139.738 186.256 148.647 185.713C149.09 185.687 149.596 185.684 149.897 186.01ZM148.926 187.109C148.899 186.948 148.863 186.772 148.734 186.672C148.606 186.572 148.428 186.579 148.266 186.591C140.377 187.166 132.488 187.741 124.599 188.316C123.961 188.363 123.3 188.416 122.743 188.73C122.186 189.044 121.766 189.699 121.933 190.316C121.985 190.507 122.095 190.689 122.265 190.791C122.472 190.917 122.732 190.908 122.974 190.895C131.303 190.443 139.632 189.991 147.961 189.54C148.951 189.486 149.094 188.086 148.926 187.109Z" fill="#00160A"/>
<path fill-rule="evenodd" clip-rule="evenodd" d="M156.572 178.434C158.07 182.375 158.547 186.617 159.013 190.807C160.094 200.541 161.174 210.274 162.255 220.008C161.451 220.074 161.08 219.042 160.98 218.241C159.343 205.144 158.816 191.879 156.047 178.974C156.222 178.794 156.397 178.614 156.572 178.434Z" fill="#00160A"/>
<path fill-rule="evenodd" clip-rule="evenodd" d="M108.267 110.63C108.034 110.53 108.039 110.167 108.217 109.987C108.396 109.808 108.667 109.764 108.918 109.732C110.799 109.493 112.696 109.377 114.592 109.384C114.492 110.193 113.447 110.43 112.633 110.467C111.264 110.53 109.896 110.594 108.527 110.657C108.439 110.661 108.348 110.664 108.267 110.63Z" fill="#00160A"/>
<path fill-rule="evenodd" clip-rule="evenodd" d="M118.881 209.618C118.725 206.722 118.568 203.824 118.412 200.927C117.992 193.129 117.558 185.251 115.387 177.75C115.11 176.792 114.793 175.82 114.179 175.035C112.642 173.068 109.797 172.842 107.301 172.842C97.6783 172.842 88.0554 173.758 78.6046 175.571C77.6444 175.756 76.646 175.967 75.8796 176.574C74.6621 177.54 74.3411 179.236 74.2279 180.786C74.0213 183.615 74.2259 186.474 74.8329 189.245C74.4853 189.187 74.1381 189.13 73.791 189.072C72.5175 186.419 71.9371 183.438 72.1232 180.502C72.2041 179.226 72.4385 177.928 73.0954 176.832C74.7298 174.107 78.3267 173.453 81.4862 173.115C89.5029 172.256 97.5494 171.678 105.606 171.381C108.85 171.262 112.514 171.353 114.74 173.714C115.859 174.903 116.426 176.499 116.871 178.069C118.417 183.525 118.844 189.226 119.263 194.882C119.672 200.407 120.081 205.933 120.49 211.458C120.586 212.757 120.682 214.076 120.419 215.352C119.563 219.508 115.137 222.036 110.923 222.538C106.709 223.041 102.468 222.078 98.2248 222.007C92.5191 221.912 86.7795 223.429 81.1524 222.482C79.5317 222.209 77.8084 221.634 76.9175 220.253C76.2993 219.295 76.1877 218.108 76.0935 216.971C75.4257 208.957 74.7584 200.942 74.091 192.928C74.0463 192.392 74.4454 191.592 74.8578 191.938C75.5936 199.658 76.3295 207.378 77.0653 215.097C77.1648 216.142 77.2731 217.217 77.7588 218.148C78.464 219.499 79.8869 220.358 81.3618 220.74C82.837 221.123 84.3832 221.092 85.9072 221.072C92.354 220.988 98.8039 221.148 105.239 221.553C107.391 221.688 109.566 221.85 111.691 221.489C113.817 221.128 115.926 220.181 117.246 218.475C119.125 216.047 119.046 212.685 118.881 209.618Z" fill="#00160A"/>
<path fill-rule="evenodd" clip-rule="evenodd" d="M107.941 107.498C108.54 107.03 108.036 106.071 108.154 105.319C108.322 104.256 109.645 103.89 110.714 103.767C117.584 102.973 124.501 102.597 131.416 102.643C131.991 102.647 132.671 102.711 132.961 103.208C133.309 103.805 132.985 104.847 133.643 105.056C133.952 105.154 134.349 104.972 134.583 105.196C134.97 105.567 134.248 106.069 133.714 106.117C125.622 106.843 117.513 107.374 109.396 107.71C108.899 107.731 108.372 107.744 107.941 107.498ZM132.112 104.147C131.923 103.672 131.29 103.602 130.779 103.609C124.26 103.709 117.744 104.031 111.246 104.576C110.485 104.639 109.586 104.798 109.268 105.494C109.116 105.889 109.407 106.344 109.79 106.523C110.174 106.703 110.618 106.679 111.041 106.653C117.531 106.241 124.022 105.829 130.512 105.417C130.911 105.392 131.328 105.362 131.672 105.158C132.016 104.954 132.26 104.519 132.112 104.147Z" fill="#00160A"/>
<path fill-rule="evenodd" clip-rule="evenodd" d="M140.86 199.385C141.861 200.181 141.433 201.923 142.303 202.859C142.708 203.294 143.315 203.464 143.885 203.631C144.252 203.738 144.706 204.008 144.589 204.371C144.47 204.744 143.927 204.684 143.562 204.541C142.373 204.075 141.032 203.301 140.966 202.025C140.918 201.094 140.641 200.175 140.167 199.372C140.301 199.146 140.654 199.222 140.86 199.385Z" fill="#00160A"/>
<path fill-rule="evenodd" clip-rule="evenodd" d="M145.593 212.579C145.268 208.381 144.941 204.182 144.616 199.984C144.568 199.367 144.513 198.727 144.207 198.189C143.902 197.65 143.269 197.245 142.671 197.405C139.966 198.131 137.157 198.467 134.358 198.401C131.91 198.343 129.406 197.985 127.051 198.655C127.094 199.822 127.138 200.988 127.182 202.154C127.195 202.494 127.214 202.856 127.408 203.136C127.951 203.922 129.3 203.323 129.606 202.418C129.912 201.513 129.635 200.523 129.688 199.57C129.697 199.401 129.731 199.209 129.875 199.119C130.18 198.929 130.474 199.383 130.552 199.734C130.777 200.74 131.001 201.793 130.736 202.79C130.471 203.786 129.546 204.689 128.524 204.557C127.465 204.42 127.031 205.868 127.005 206.936C126.954 209.068 126.903 211.199 126.852 213.33C126.836 214.001 127.077 214.928 127.744 214.852C129.465 214.657 131.186 214.462 132.908 214.267C133.323 214.22 133.771 214.178 134.137 214.381C134.503 214.585 134.696 215.139 134.396 215.431C132.374 215.608 130.353 215.785 128.331 215.963C127.741 216.014 127.128 216.063 126.571 215.861C126.014 215.659 125.529 215.129 125.58 214.538C126.077 208.74 126.188 202.91 125.912 197.097C125.854 195.86 127.36 195.232 128.577 195.004C132.439 194.28 136.378 193.966 140.306 194.069C141.623 194.104 143.058 194.234 144.013 195.142C144.985 196.065 145.176 197.521 145.31 198.856C145.813 203.857 146.315 208.859 146.817 213.86C146.845 214.13 146.851 214.45 146.635 214.615C146.506 214.712 146.334 214.723 146.172 214.73C144.496 214.799 142.82 214.869 141.143 214.939C140.255 214.976 139.299 214.995 138.559 214.501C138.052 214.163 137.717 213.625 137.422 213.092C136.716 211.811 136.151 210.453 135.742 209.048C135.101 210.654 134.695 212.352 134.541 214.074C133.731 214.162 133.58 212.946 133.769 212.153C134.157 210.517 134.546 208.882 134.935 207.246C134.994 206.997 135.088 206.708 135.333 206.631C135.692 206.518 135.968 206.948 136.099 207.302C136.646 208.773 137.194 210.244 137.741 211.715C138.213 212.981 139.572 213.743 140.914 213.899C142.256 214.054 143.601 213.717 144.91 213.382C145.169 213.315 145.463 213.22 145.563 212.972C145.613 212.849 145.604 212.712 145.593 212.579ZM127.356 197.207C128.57 197.222 129.784 197.238 130.998 197.254C131.91 197.266 132.822 197.278 133.735 197.26C137.027 197.198 140.312 196.757 143.504 195.947C142.792 195.216 141.649 195.175 140.629 195.193C136.978 195.259 133.33 195.471 129.696 195.83C128.724 195.926 127.515 196.243 127.356 197.207Z" fill="#00160A"/>
<path fill-rule="evenodd" clip-rule="evenodd" d="M121.922 194.062C121.853 193.683 122.345 193.476 122.727 193.416C127.131 192.734 131.594 192.432 136.05 192.516C136.114 192.517 136.18 192.519 136.239 192.543C136.448 192.631 136.438 192.96 136.272 193.114C136.106 193.268 135.862 193.294 135.636 193.311C131.393 193.629 127.087 193.466 122.93 194.373C122.544 194.458 121.994 194.451 121.922 194.062Z" fill="#00160A"/>
<path fill-rule="evenodd" clip-rule="evenodd" d="M220.417 184.943C220.66 184.369 220.928 183.764 221.444 183.415C221.88 183.121 222.425 183.056 222.948 182.999C224.499 182.831 226.049 182.662 227.6 182.494C228.367 182.411 229.357 182.088 229.327 181.317C229.233 178.827 229.426 175.961 231.403 174.445C233.213 173.06 235.921 173.44 237.777 174.762C239.634 176.084 240.81 178.143 241.824 180.184C242.273 181.088 243.503 181.252 244.497 181.078C245.491 180.904 246.499 180.513 247.479 180.751C248.989 181.117 249.753 182.767 250.271 184.231C252.875 191.581 254.643 199.244 257.882 206.337C259.093 208.99 258.71 212.3 256.924 214.606C256.704 212.775 257.011 210.884 257.799 209.216C258.17 208.431 256.934 207.914 256.065 207.916C247.211 207.939 238.318 207.964 229.562 209.278C229.294 209.318 229.01 209.367 228.811 209.55C228.617 209.727 228.541 209.996 228.474 210.25C228.203 211.282 227.931 212.313 227.66 213.344C227.49 213.99 227.596 214.994 228.261 214.926C236.928 214.049 245.641 213.63 254.351 213.673C255.267 213.677 256.518 214.041 256.399 214.949C247.12 215.059 237.806 215.171 228.627 216.537C227.166 216.754 226.156 214.944 226.322 213.476C226.488 212.008 227.33 210.691 227.567 209.232C227.772 207.975 227.516 206.693 227.241 205.449C226.803 203.473 226.314 201.507 225.774 199.556C225.247 197.651 224.672 195.761 224.097 193.87C223.227 191.011 222.357 188.152 221.488 185.292C220.292 187.044 219.759 189.237 220.018 191.342C220.198 192.807 220.742 194.199 221.149 195.619C221.731 197.648 222.036 199.744 222.34 201.833C222.939 205.947 223.537 210.062 224.136 214.177C224.224 214.782 224.05 215.674 223.445 215.585C220.754 207.26 221.493 198.055 218.317 189.903C219.017 188.25 219.717 186.596 220.417 184.943ZM240.46 186.453C241.337 185.966 241.791 184.827 241.49 183.87C241.19 182.912 240.166 182.237 239.168 182.338C236.719 182.587 234.271 182.835 231.823 183.083C231.596 183.106 231.343 183.143 231.208 183.325C231.101 183.469 231.099 183.663 231.109 183.842C231.174 184.961 231.562 186.059 232.215 186.97C232.722 187.678 233.423 188.525 233.027 189.301C232.532 190.27 230.906 189.727 230.503 188.716C230.1 187.706 230.387 186.565 230.312 185.48C230.237 184.394 229.457 183.145 228.384 183.325C226.624 183.622 224.864 183.918 223.104 184.214C222.852 184.257 222.522 184.413 222.596 184.658C224.739 191.751 226.882 198.843 229.025 205.937C229.292 206.821 229.894 207.914 230.793 207.705C239.047 205.777 247.749 207.6 256.13 206.333C253.619 198.461 251.022 190.617 248.338 182.802C248.259 182.572 248.169 182.327 247.972 182.183C247.754 182.023 247.461 182.028 247.192 182.04C245.934 182.093 244.677 182.146 243.42 182.199C242.923 182.22 242.245 182.458 242.354 182.943C242.695 184.466 243.037 185.989 243.379 187.512C243.437 187.774 243.495 188.055 243.397 188.305C243.131 188.985 242.129 188.814 241.46 188.519C241.022 188.326 240.56 188.114 240.289 187.719C240.018 187.324 240.041 186.686 240.46 186.453ZM237.22 175.404C236.256 174.697 234.988 174.187 233.876 174.625C233.488 174.778 233.151 175.034 232.82 175.288C232.231 175.739 231.623 176.211 231.275 176.867C230.952 177.477 230.885 178.186 230.825 178.874C230.772 179.476 230.719 180.077 230.666 180.678C230.633 181.051 230.62 181.48 230.89 181.739C231.15 181.987 231.557 181.969 231.915 181.935C234.475 181.692 237.036 181.448 239.597 181.204C239.962 181.17 240.408 181.071 240.504 180.717C240.542 180.577 240.511 180.429 240.477 180.288C240.005 178.348 238.83 176.586 237.22 175.404ZM236.261 181.766C236.003 181.839 236.29 182.322 236.477 182.131C236.717 182.033 236.451 181.582 236.249 181.745L236.261 181.766Z" fill="#FFB61D"/>
<path fill-rule="evenodd" clip-rule="evenodd" d="M155.072 124.199C155.027 124.049 155.116 123.893 155.221 123.777C155.737 123.209 156.601 123.167 157.369 123.165C162.021 123.154 166.674 123.143 171.328 123.132C171.655 123.132 172.006 123.138 172.273 123.327C172.54 123.517 172.645 123.962 172.388 124.166C172.252 124.274 172.063 124.281 171.889 124.283C166.483 124.343 161.078 124.403 155.672 124.463C155.437 124.465 155.139 124.425 155.072 124.199Z" fill="#00160A"/>
<path fill-rule="evenodd" clip-rule="evenodd" d="M156.797 129.004C156.516 128.842 156.555 128.39 156.791 128.169C157.027 127.948 157.37 127.895 157.691 127.857C159.617 127.625 161.554 127.497 163.49 127.369C164.557 127.299 165.623 127.229 166.69 127.159C168.076 127.067 169.463 126.976 170.85 126.884C171.29 126.855 171.782 126.843 172.113 127.134C172.445 127.425 172.364 128.126 171.924 128.153C167.03 128.456 162.136 128.759 157.242 129.063C157.09 129.072 156.928 129.079 156.797 129.004Z" fill="#00160A"/>
<path fill-rule="evenodd" clip-rule="evenodd" d="M183.029 135.331C183.399 134.628 183.8 133.891 184.481 133.481C185.161 133.072 186.205 133.156 186.571 133.861C186.961 134.611 186.381 135.514 185.7 136.015C185.019 136.516 184.181 136.868 183.739 137.588C186.13 139.164 188.521 140.74 190.912 142.315C192.785 143.549 194.905 145.312 194.521 147.521C194.296 148.817 193.198 149.824 191.975 150.308C190.752 150.791 189.407 150.842 188.093 150.88C179.259 151.134 170.416 151.089 161.584 150.745C160.972 150.721 160.288 150.664 159.88 150.207C159.564 149.852 159.498 149.347 159.448 148.874C158.939 144.174 158.431 139.473 157.922 134.772C157.904 134.599 157.886 134.418 157.948 134.254C158.209 133.568 159.236 133.991 159.81 134.449C163.876 137.694 170.375 137.313 174.033 133.615C174.917 132.721 176.422 132.837 177.557 133.375C178.693 133.914 179.643 134.791 180.782 135.321C180.661 134.663 181.241 133.968 181.911 133.971C182.581 133.973 183.156 134.673 183.029 135.331ZM183.529 138.359C183.239 137.292 181.663 137.069 180.793 137.751C179.923 138.434 179.642 139.623 179.566 140.726C179.538 141.137 178.861 141.179 178.63 140.837C178.398 140.496 178.492 140.037 178.62 139.645C178.96 138.611 179.483 137.638 180.158 136.784C180.491 136.361 180.002 135.789 179.561 135.479C178.006 134.385 175.803 133.306 174.376 134.563C170.466 138.007 164.23 138.466 159.858 135.631C159.91 139.16 160.17 142.685 160.636 146.183C160.683 146.535 160.743 146.912 160.987 147.171C161.309 147.514 161.836 147.538 162.307 147.538C169.901 147.548 177.496 147.558 185.09 147.567C185.829 147.568 186.834 147.304 186.777 146.568C186.642 144.853 187.401 143.093 188.74 142.013C187.687 141.249 186.634 140.483 185.581 139.718C185.26 139.485 184.923 139.245 184.532 139.178C183.35 138.975 182.56 140.33 182.143 141.454C181.502 140.309 182.249 138.643 183.529 138.359ZM163.68 150.067C171.589 150.129 179.498 150.116 187.407 150.027C189.652 150.002 192.273 149.774 193.49 147.887C182.57 148.367 171.633 148.486 160.705 148.244C160.569 149.555 162.362 150.057 163.68 150.067ZM190.746 143.017C190.511 142.868 190.267 142.716 189.993 142.669C189.165 142.527 188.511 143.354 188.152 144.113C187.944 144.552 187.763 145.004 187.611 145.465C187.495 145.817 187.395 146.191 187.467 146.554C187.54 146.917 187.838 147.26 188.208 147.264C189.553 147.279 190.898 147.265 192.242 147.221C192.559 147.211 192.904 147.188 193.141 146.978C193.421 146.73 193.455 146.303 193.385 145.937C193.132 144.609 191.888 143.741 190.746 143.017ZM185.995 134.432C185.981 134.023 185.434 133.814 185.056 133.973C184.678 134.13 184.445 134.506 184.238 134.86C183.987 135.287 183.736 135.714 183.485 136.141C183.353 136.365 183.282 136.746 183.535 136.802C184.203 136.247 184.871 135.692 185.539 135.137C185.762 134.951 186.006 134.723 185.995 134.432ZM181.669 135.099C181.555 135.652 181.838 136.262 182.333 136.532C182.505 135.963 182.404 135.319 182.068 134.829C182.047 134.691 181.859 134.611 181.745 134.692C181.657 134.803 181.625 134.957 181.663 135.094L181.669 135.099Z" fill="#00160A"/>
<path fill-rule="evenodd" clip-rule="evenodd" d="M154.477 118.814C154.276 117.843 154.076 116.871 153.875 115.899C153.797 115.522 153.725 115.102 153.923 114.771C154.193 114.32 154.811 114.26 155.337 114.251C168.246 114.027 181.16 114.076 194.066 114.398C194.947 114.42 195.67 115.181 195.938 116.02C196.205 116.859 196.118 117.765 196.027 118.641C195.977 119.115 195.899 119.643 195.522 119.932C195.213 120.17 194.79 120.175 194.401 120.171C181.437 120.03 168.473 119.888 155.509 119.747C155.296 119.744 155.07 119.738 154.89 119.625C154.625 119.458 154.54 119.12 154.477 118.814ZM156.26 115.104C155.306 115.097 154.629 116.23 154.868 117.154C155.106 118.078 155.999 118.714 156.926 118.939C157.854 119.163 158.824 119.055 159.775 118.966C171.482 117.872 183.32 119.963 195.019 118.783C195.081 118.071 195.139 117.335 194.91 116.659C194.68 115.982 194.083 115.376 193.369 115.371C180.999 115.282 168.63 115.193 156.26 115.104Z" fill="#00160A"/>
<path fill-rule="evenodd" clip-rule="evenodd" d="M76.6376 146.959C76.2054 147.778 75.6098 148.61 74.7165 148.854C73.0149 149.318 71.6081 147.429 71.1437 145.728C70.4188 143.071 70.6024 140.176 71.6564 137.633C72.2202 136.272 71.7502 134.664 70.8658 133.486C69.1984 131.264 66.0872 130.291 63.4142 131.047C60.7412 131.803 58.6316 134.18 58.0726 136.902C57.9848 137.327 58.0468 137.926 58.4773 137.986C60.626 138.287 61.6123 140.808 61.9393 142.953C62.189 144.591 62.2974 146.306 61.742 147.867C61.1866 149.427 59.8273 150.798 58.1757 150.923C56.6936 149.925 55.5775 148.395 55.0798 146.679C54.1538 143.487 55.3564 140.104 56.5981 137.021C57.3561 135.14 58.1692 133.213 59.6086 131.785C62.6856 128.73 68.4312 129.093 71.0994 132.51C72.126 133.824 72.7152 135.457 73.8526 136.677C74.71 137.596 75.8438 138.239 76.6259 139.224C78.3251 141.361 77.9119 144.544 76.6376 146.959ZM56.021 141.059C55.2421 143.206 55.4591 145.692 56.5985 147.671C56.7854 147.997 57.0081 148.32 57.3351 148.504C57.6622 148.688 58.1181 148.691 58.3766 148.419C59.1515 147.604 59.2482 146.372 59.2458 145.248C59.2425 143.919 59.1608 142.589 59.0005 141.27C58.9348 140.729 58.8229 140.132 58.3859 139.808C57.9489 139.483 57.1289 139.755 57.1974 140.295C57.3972 141.866 57.5969 143.436 57.7963 145.007C57.8418 145.365 57.8817 145.751 57.7028 146.064C57.5236 146.376 57.0291 146.522 56.8023 146.242C56.2147 145.043 56.0375 143.648 56.3069 142.34C56.404 141.87 56.4704 141.226 56.021 141.059ZM74.0052 147.288C74.2038 147.133 74.2964 146.881 74.3705 146.641C74.9529 144.75 74.9593 142.685 74.3882 140.79C74.1712 140.07 73.5827 139.227 72.8703 139.468C72.4583 139.608 72.2497 140.059 72.1188 140.473C71.5227 142.357 71.602 144.446 72.3387 146.279C72.48 146.631 72.6544 146.986 72.9537 147.218C73.2525 147.45 73.7068 147.521 74.0052 147.288ZM60.0223 140.491C60.5414 143.121 60.431 145.874 59.7029 148.455C59.636 148.693 59.9055 148.878 60.131 148.978C61.2233 146.329 61.3614 143.298 60.5152 140.56C60.3747 140.46 60.185 140.433 60.0223 140.491ZM75.1752 139.78C75.0137 140.038 74.8526 140.295 74.6911 140.553C75.2231 140.463 75.4664 141.189 75.4946 141.727C75.5606 142.972 75.6263 144.217 75.6923 145.463C76.1877 145.276 76.2771 144.626 76.2864 144.097C76.3073 142.906 76.3279 141.715 76.3488 140.524C76.1704 140.503 75.992 140.482 75.8136 140.461C75.7954 140.123 75.5107 139.82 75.1752 139.78Z" fill="#00160A"/>
<path fill-rule="evenodd" clip-rule="evenodd" d="M133.574 142.04C130.025 141.87 126.461 142.024 122.939 142.499C122.628 142.541 122.279 142.576 122.029 142.386C121.778 142.196 121.806 141.692 122.118 141.657C125.64 141.27 129.176 141.021 132.718 140.912C133.103 140.899 133.534 140.906 133.808 141.177C134.083 141.447 133.959 142.058 133.574 142.04Z" fill="#00160A"/>
<path fill-rule="evenodd" clip-rule="evenodd" d="M51.132 127.869C52.1397 127.774 53.1474 127.68 54.1546 127.585C54.6625 127.538 55.17 127.49 55.6774 127.442C58.9058 127.139 62.1343 126.836 65.3655 126.566C65.4924 126.555 65.6249 126.546 65.7425 126.594C66.0925 126.739 66.0385 127.304 65.7336 127.529C65.4291 127.754 65.0167 127.741 64.6385 127.728C59.8797 127.57 55.1369 129 50.4002 128.517C50.0925 128.485 49.6898 128.327 49.7442 128.022C50.2049 127.956 50.6689 127.912 51.132 127.869Z" fill="#00160A"/>
<path fill-rule="evenodd" clip-rule="evenodd" d="M159.651 232.446C159.493 231.06 159.379 229.552 158.447 228.514C157.732 227.718 158.102 226.237 159.108 225.871C160.114 225.504 161.349 226.399 161.315 227.469C161.303 227.836 161.169 228.187 161.065 228.54C160.354 230.946 161.014 233.536 161.883 235.891C162.763 238.275 164.11 240.813 166.528 241.597C169.324 242.504 172.42 240.497 173.659 237.831C174.899 235.165 174.71 232.069 174.277 229.161C174.234 228.869 174.156 228.533 173.888 228.409C172.8 227.907 172.635 226.142 173.611 225.446C174.587 224.751 176.201 225.484 176.321 226.676C176.361 227.08 176.258 227.483 176.181 227.882C175.646 230.652 176.353 233.555 175.768 236.314C175.401 238.042 174.522 239.657 173.27 240.903C171.943 242.224 170.151 243.136 168.278 243.167C165.757 243.21 163.399 241.646 161.974 239.566C160.549 237.486 159.938 234.951 159.651 232.446Z" fill="#00160A"/>
<path fill-rule="evenodd" clip-rule="evenodd" d="M86.1287 118.664C86.1988 119.613 86.2656 120.591 85.9696 121.496C85.674 122.401 84.9225 123.225 83.974 123.307C79.085 123.727 74.1953 124.147 69.2967 124.437C62.6175 124.833 55.9267 124.985 49.2375 125.137C48.9987 125.142 48.7433 125.144 48.544 125.012C48.2451 124.815 48.1891 124.407 48.1618 124.05C48.0893 123.115 48.0168 122.179 47.9447 121.245C47.9225 120.96 47.906 120.653 48.0591 120.412C48.2838 120.06 48.7643 119.999 49.1815 119.974C61.4846 119.245 73.8046 118.808 86.1287 118.664ZM84.0703 121.944C84.8564 121.892 85.0155 120.655 84.4392 120.118C83.8628 119.581 82.9877 119.569 82.1999 119.588C72.0748 119.84 61.9458 120.092 51.8405 120.779C51.1131 120.829 50.3559 120.889 49.7268 121.258C49.0977 121.628 48.6434 122.404 48.8839 123.092C49.2254 124.071 50.5452 124.178 51.5791 124.109C62.4093 123.388 73.24 122.666 84.0703 121.944Z" fill="#00160A"/>
<path fill-rule="evenodd" clip-rule="evenodd" d="M73.5574 142.293C73.567 142.55 73.5767 142.807 73.5864 143.065C73.6069 143.6 73.6266 144.139 73.5493 144.669C72.8779 144.597 72.6701 143.734 72.6306 143.06C72.6121 142.74 72.6057 142.381 72.8207 142.143C73.0354 141.904 73.5453 141.972 73.5574 142.293Z" fill="#00160A"/>
<path fill-rule="evenodd" clip-rule="evenodd" d="M121.9 144.484C122.559 143.876 123.561 143.895 124.456 143.92C127.291 144.001 130.135 143.782 132.924 143.268C133.253 143.208 133.43 143.719 133.225 143.983C133.02 144.247 132.65 144.303 132.317 144.336C129.174 144.656 126.017 144.846 122.858 144.904C122.481 144.911 122.004 144.846 121.9 144.484Z" fill="#00160A"/>
<path fill-rule="evenodd" clip-rule="evenodd" d="M227.732 155.113C227.421 156.165 226.389 156.815 225.404 157.297C220.474 159.708 214.679 160.298 209.365 158.93C207.58 158.471 205.546 157.408 205.47 155.567C205.413 154.213 206.494 153.079 207.639 152.353C209.394 151.24 211.44 150.678 213.481 150.281C217.417 149.517 221.684 149.359 225.247 151.198C226.74 151.969 228.208 153.502 227.732 155.113ZM206.686 155.362C206.69 156.849 208.349 157.72 209.788 158.098C214.784 159.408 220.249 158.843 224.87 156.537C225.612 156.167 226.395 155.679 226.63 154.884C226.947 153.817 226.12 152.742 225.202 152.112C222.441 150.214 218.788 150.473 215.456 150.83C212.774 151.117 209.917 151.492 207.873 153.251C207.242 153.795 206.685 154.529 206.686 155.362Z" fill="#00160A"/>
<path fill-rule="evenodd" clip-rule="evenodd" d="M82.6884 67.9947C82.5205 67.0385 83.1798 66.0885 84.0296 65.6189C84.8794 65.1493 85.881 65.0586 86.85 65.0015C95.4905 64.4932 104.117 65.8811 112.761 66.337C113.873 66.3958 115.046 66.4574 115.982 67.0615C116.918 67.666 117.468 69.0225 116.82 69.9291C116.507 70.3672 115.989 70.6109 115.476 70.7732C113.994 71.2412 112.403 71.1792 110.851 71.1123C102.771 70.7652 94.6899 70.4176 86.6096 70.0704C85.005 70.0016 82.9667 69.5763 82.6884 67.9947ZM83.7976 66.6092C83.3409 67.2524 83.7231 68.2126 84.3828 68.6455C85.0425 69.0785 85.8737 69.1272 86.6619 69.1626C95.2259 69.5481 103.79 69.9335 112.354 70.3189C113.188 70.3564 114.112 70.3644 114.744 69.8187C115.377 69.2726 115.293 67.9709 114.468 67.8396C104.945 66.3257 95.2819 65.697 85.643 65.964C84.9664 65.9829 84.1895 66.0571 83.7976 66.6092Z" fill="#00160A"/>
<path fill-rule="evenodd" clip-rule="evenodd" d="M177.44 59.6961C178.754 56.9574 180.886 54.1341 183.915 53.9006C185.933 53.7451 188.073 54.0979 189.67 55.3408C192.567 57.5957 192.768 61.9676 191.733 65.4892C190.513 69.6399 187.791 73.4841 183.886 75.3456C182.954 75.7898 181.941 76.1217 180.91 76.081C178.17 75.9735 176.175 73.2819 175.585 70.6041C174.777 66.9342 175.814 63.084 177.44 59.6961ZM180.847 75.0786C182.873 75.3545 184.781 74.0645 186.21 72.6029C188.888 69.8634 190.685 66.2761 191.278 62.4915C191.449 61.4009 191.519 60.2692 191.223 59.2055C190.639 57.1141 188.656 55.6026 186.529 55.1676C184.483 54.7495 182.235 55.2485 180.657 56.6171C179.899 57.2752 179.311 58.106 178.797 58.9679C177.12 61.7799 176.167 65.0518 176.284 68.3233C176.337 69.8014 176.617 71.3036 177.365 72.5795C178.113 73.855 179.382 74.8792 180.847 75.0786Z" fill="#FFB61D"/>
<path fill-rule="evenodd" clip-rule="evenodd" d="M111.023 175.936C111.292 175.921 111.581 175.912 111.809 176.056C112.091 176.234 112.194 176.588 112.275 176.911C112.453 177.619 112.631 178.356 112.488 179.071C112.345 179.787 111.781 180.474 111.052 180.506C109.192 180.587 107.333 180.668 105.473 180.75C104.744 180.781 103.889 180.886 103.527 181.519C103.281 181.949 103.355 182.482 103.435 182.97C103.663 184.353 104.307 186.102 105.709 186.051C106.641 186.018 107.471 186.725 107.873 187.567C108.274 188.409 108.334 189.367 108.387 190.298C108.437 191.175 108.213 192.372 107.336 192.394C106.628 192.412 106.433 193.368 106.455 194.076C106.612 198.998 106.768 203.92 106.924 208.841C106.95 209.634 105.933 209.968 105.144 210.047C98.5285 210.715 91.8445 210.697 85.2326 209.995C84.9958 209.97 84.6929 209.877 84.6877 209.639C84.5653 204.077 84.4428 198.516 84.3204 192.955C84.3135 192.631 84.1544 192.183 83.8415 192.268C82.8564 192.538 81.8656 191.623 81.6615 190.623C81.4577 189.621 81.8076 188.6 82.1524 187.638C82.3119 187.194 82.4907 186.723 82.8721 186.444C83.6865 185.85 85.1915 186.273 85.5564 185.333C85.6168 185.177 85.6285 185.007 85.6225 184.84C85.5717 183.388 84.2193 182.242 82.7948 181.955C81.3703 181.668 79.9018 182.046 78.5144 182.478C78.1966 181.278 78.1153 180.017 78.276 178.786C78.3142 178.496 78.373 178.191 78.5684 177.972C78.8467 177.661 79.3102 177.617 79.7271 177.595C90.159 177.042 100.591 176.489 111.023 175.936ZM83.2092 187.203C83.0086 187.436 82.9643 187.761 82.9281 188.066C82.8338 188.861 82.7396 189.657 82.6458 190.453C82.6256 190.62 82.6071 190.797 82.6748 190.951C82.8189 191.282 83.2559 191.339 83.6168 191.348C85.5318 191.395 87.4469 191.443 89.362 191.491C89.685 191.498 90.0237 191.503 90.3104 191.355C90.7716 191.115 90.9613 190.466 90.7011 190.016C90.9351 189.992 91.1695 189.968 91.4039 189.944C91.3008 190.638 92.0076 191.219 92.7019 191.321C93.3959 191.423 94.0934 191.211 94.7926 191.156C96.259 191.04 97.7234 191.615 99.1838 191.443C99.3376 191.424 99.5015 191.393 99.6094 191.281C99.75 191.136 99.7472 190.908 99.7355 190.706C99.6803 189.736 99.6252 188.767 99.5696 187.797C99.5523 187.492 99.5261 187.163 99.3299 186.929C99.0496 186.593 98.5474 186.583 98.1112 186.6C96.0028 186.682 93.8945 186.763 91.7861 186.845C91.6391 186.85 91.476 186.863 91.3741 186.969C91.2597 187.088 91.2678 187.275 91.2831 187.44C91.354 188.194 91.4248 188.949 91.4957 189.703C91.2158 189.73 90.9415 189.812 90.6926 189.943C90.6302 189.348 90.5682 188.754 90.5058 188.159C90.449 187.617 90.2367 186.922 89.6918 186.915C87.9515 186.892 86.2117 186.869 84.4714 186.846C84.0191 186.84 83.5044 186.86 83.2092 187.203ZM93.2348 193.052C93.2058 192.652 93.0322 192.122 92.6331 192.165C90.1518 192.432 87.6402 192.416 85.1625 192.12C85.2237 197.519 85.3244 202.918 85.4642 208.316C85.4823 209.01 86.3591 209.288 87.0506 209.359C89.1042 209.57 91.1719 209.641 93.2352 209.574C93.4043 209.569 93.5876 209.557 93.7165 209.447C93.886 209.303 93.8969 209.05 93.8945 208.827C93.8353 203.564 93.6154 198.303 93.2348 193.052ZM105.643 192.755C105.576 192.638 105.421 192.614 105.287 192.603C103.152 192.422 101.007 192.371 98.866 192.451C98.6719 192.458 98.4644 192.471 98.3106 192.59C98.0774 192.77 98.0629 193.111 98.0694 193.406C98.1874 198.795 98.3054 204.184 98.4234 209.573C100.78 209.801 103.18 209.578 105.455 208.921C105.596 208.88 105.746 208.831 105.838 208.716C105.936 208.591 105.943 208.419 105.945 208.261C105.989 204.794 105.9 201.326 105.811 197.86C105.768 196.227 105.726 194.594 105.684 192.961C105.682 192.89 105.679 192.816 105.643 192.755ZM79.1761 179.094C78.7669 179.737 79.2067 180.646 79.8793 181.005C80.5519 181.365 81.3582 181.33 82.1194 181.286C86.7256 181.019 91.3318 180.752 95.938 180.485C100.331 180.23 104.724 179.976 109.11 179.619C109.752 179.566 110.427 179.501 110.958 179.135C111.489 178.769 111.797 177.997 111.441 177.46C111.084 176.921 110.316 176.896 109.67 176.929C100.099 177.423 90.5279 177.917 80.9566 178.41C80.2953 178.444 79.5313 178.535 79.1761 179.094ZM97.5873 209.447C97.2634 204.187 97.1994 198.91 97.3952 193.644C97.4064 193.341 97.4165 193.026 97.2957 192.749C96.9433 191.938 95.8091 191.94 94.9356 192.075C94.5361 192.137 94.0258 192.328 94.056 192.731C94.4305 197.769 94.8055 202.815 94.7213 207.867C94.71 208.535 95.0931 209.196 95.6786 209.519C96.2642 209.842 97.0274 209.813 97.5873 209.447ZM107.473 190.027C107.359 189.332 107.24 188.621 106.901 188.004C106.562 187.386 105.955 186.869 105.252 186.834C103.915 186.767 102.578 186.701 101.242 186.635C100.894 186.617 100.413 186.722 100.43 187.07C100.481 188.128 100.532 189.186 100.582 190.243C100.605 190.705 100.691 191.262 101.119 191.437C101.257 191.494 101.409 191.498 101.558 191.501C103.301 191.541 105.044 191.581 106.786 191.621C107.119 191.629 107.398 191.336 107.489 191.016C107.579 190.696 107.526 190.355 107.473 190.027ZM99.0351 184.815C98.8607 184.08 98.6791 183.328 98.2615 182.7C97.8438 182.071 97.1354 181.579 96.3826 181.635C95.2223 181.72 94.062 181.805 92.9017 181.891C92.1788 181.944 91.36 182.048 90.9363 182.636C90.424 183.347 90.7756 184.339 90.6371 185.205C90.5883 185.509 90.8259 185.8 91.1103 185.918C91.3946 186.037 91.7144 186.023 92.0217 186.007C94.0991 185.9 96.176 185.793 98.253 185.686C98.5579 185.671 98.924 185.615 99.0456 185.335C99.1157 185.173 99.0762 184.986 99.0351 184.815ZM102.675 183.484C102.28 182.943 102.29 182.141 102.698 181.609C101.97 181.157 100.95 181.241 100.306 181.806C99.661 182.37 99.4439 183.37 99.7963 184.151C99.9204 184.427 99.8491 184.753 99.9369 185.042C100.061 185.453 100.491 185.711 100.917 185.764C101.342 185.817 101.77 185.705 102.185 185.594C102.728 185.448 103.39 185.158 103.385 184.595C103.381 184.146 102.94 183.847 102.675 183.484ZM89.695 185.412C89.9363 184.623 89.6117 183.723 88.9922 183.178C88.3732 182.633 87.5057 182.42 86.6837 182.494C86.3538 182.524 86.0095 182.605 85.7703 182.835C85.5314 183.065 85.4461 183.479 85.6611 183.731C85.8202 183.917 86.0925 183.972 86.2592 184.151C86.5133 184.425 86.4276 184.863 86.544 185.218C86.8069 186.021 87.8964 186.096 88.7369 186.02C89.0249 185.993 89.3422 185.953 89.5319 185.734C89.6113 185.643 89.6596 185.528 89.695 185.412ZM89.8312 182.757C90.0261 182.569 90.0615 182.237 89.9105 182.012C89.575 181.912 89.1997 182.112 89.0229 182.414C89.1542 182.715 89.5231 182.888 89.8384 182.798M99.4101 181.92C99.4592 181.788 99.4302 181.63 99.338 181.524C99.0194 181.424 98.6485 181.514 98.4117 181.75C98.6553 182.026 99.0984 182.1 99.4185 181.919L99.4101 181.92Z" fill="#00160A"/>
<path fill-rule="evenodd" clip-rule="evenodd" d="M227.824 159.557C217.612 163.55 207.4 167.544 197.188 171.537C192.796 173.255 187.714 175.832 187.243 180.526C193.21 175.935 200.581 173.195 208.098 172.774C202.905 179.317 196.348 184.772 188.969 188.688C182.342 192.204 173.952 195.955 173.384 203.435C180.501 194.96 191.443 189.83 202.509 189.778C195.429 200.148 184.077 207.503 171.719 209.727C172.143 212.913 172.567 216.1 172.991 219.286C177.19 219.137 181.415 219.738 185.405 221.052C188.248 233.262 191.09 245.471 193.932 257.681C194.631 260.686 195.247 264.139 193.407 266.615C191.582 269.072 188.135 269.494 185.082 269.711C173.051 270.567 161.019 271.422 148.987 272.277C147.547 265.751 146.107 259.225 144.666 252.698C124.371 254.583 104.077 256.467 83.7823 258.352C79.5084 258.749 74.9883 259.104 71.1211 257.242C57.0939 250.489 40.0851 263.561 25.2693 258.779C38.2864 258.533 51.2633 256.263 63.5906 252.074C68.0611 250.554 73.414 246.393 71.0781 242.29C59.6465 250.266 44.9785 253.451 31.2682 250.932C32.0729 237.618 31.5553 224.224 29.7248 211.011C39.4802 209.615 49.0945 207.233 58.373 203.914C60.9538 202.99 63.6091 201.927 65.4468 199.893C67.285 197.859 68.0281 194.574 66.413 192.359C52.3004 199.879 36.0061 203.245 20.0691 201.931C20.9007 219.964 21.7323 237.997 22.564 256.029C20.2082 238.01 18.9589 219.845 18.8254 201.673C27.0293 200.945 35.2328 200.218 43.4363 199.49C42.1174 193.635 40.7899 187.645 41.4677 181.681C42.1451 175.716 45.2149 169.677 50.6105 167.047C46.5286 158.34 40.3594 150.621 32.7672 144.721C23.8669 137.803 12.4242 132.588 8.35986 122.073C5.67253 115.122 6.99068 107.036 10.7117 100.578C14.4328 94.12 20.329 89.1453 26.7377 85.3402C17.9145 83.0723 11.2315 74.2771 11.4103 65.169C11.5891 56.0609 18.6122 47.5347 27.5174 45.6152C23.3188 40.6115 16.7075 38.3183 11.8784 33.9203C6.25281 28.797 3.42593 20.5326 5.47511 13.2048C7.52428 5.87705 14.7392 0.11169 22.3413 0.436545C28.5855 0.703405 34.0805 4.65282 38.4395 9.13216C45.1992 16.0791 50.2267 24.6993 52.9448 34.0037C54.7563 40.2052 61.396 43.3599 67.0035 46.5694C72.6109 49.7788 78.4338 55.3694 76.8538 61.6337C74.7652 53.0612 67.7518 45.8758 59.2325 43.5798C54.7934 42.3836 53.1756 37.1012 51.7474 32.731C48.9689 24.2267 44.2253 16.3713 37.9932 9.95256C33.3093 5.12878 27.1859 0.919518 20.4721 1.28191C13.5607 1.65497 7.46814 7.277 5.88804 14.0157C4.30795 20.7543 6.95721 28.1381 12.0002 32.8788C17.1368 37.7077 24.4851 40.0731 28.6266 45.7784C19.6448 47.6036 12.544 56.2474 12.4968 65.4123C12.4496 74.5776 19.4611 83.2938 28.4236 85.2113C22.1077 88.9085 16.1975 93.6049 12.3008 99.7996C8.40408 105.995 6.73369 113.857 9.06527 120.794C14.4581 136.839 36.936 140.669 44.8685 155.623C47.0168 148.567 43.8677 141.147 42.2491 133.95C40.6304 126.754 41.5451 117.513 48.2548 114.448C46.2938 104.997 44.3329 95.5462 42.3719 86.0949C40.9107 79.0525 40.1777 70.13 46.2362 66.2532C41.9675 64.9294 38.1789 62.1093 35.6855 58.4004C38.3783 62.5217 43.564 64.8601 48.4356 64.1496C42.2797 50.805 35.4539 37.7689 27.9926 25.1078C36.0323 37.2301 43.1472 49.9653 49.256 63.1661C77.5103 62.4017 105.808 63.2721 133.962 65.7719C137.7 66.1038 141.723 66.5867 144.486 69.126C148.457 72.7749 154.419 74.1059 159.564 72.4921C161.201 76.5506 162.406 81.1093 161.014 85.2584C159.623 89.4075 154.693 92.5743 150.753 90.6709C151.781 95.9626 152.81 101.255 153.838 106.546C163.914 106.668 173.987 106.873 184.059 107.164C189.397 107.318 194.977 107.56 199.616 110.205C204.255 112.85 207.529 118.708 205.463 123.632C206.781 119.563 208.099 115.493 209.417 111.424C214.063 118.798 216.345 127.637 215.849 136.338C217.458 133.89 219.067 131.441 220.677 128.992C214.959 119.993 214.231 108.033 218.815 98.4065C223.311 105.852 225.844 114.472 226.09 123.167C227.767 107.497 238.869 93.2118 253.639 87.718C251.076 93.6226 248.514 99.5277 245.951 105.432C243.757 110.488 240.97 116.095 235.698 117.702C232.221 118.761 227.185 118.697 226.554 122.277C236.543 119.658 247.175 119.528 257.224 121.903C249.48 131.213 234.557 133.506 224.376 126.949C219.573 132.306 215.411 138.238 212.008 144.577C217.789 137.394 226.784 132.901 235.999 132.596C231.048 138.448 225.464 143.763 219.375 148.419C222.607 148.729 226.101 149.155 228.445 151.401C230.789 153.647 230.848 158.375 227.824 159.557ZM93.0282 100.587C95.7064 100.556 98.7061 100.652 100.576 102.57C102.002 104.033 102.384 106.191 102.695 108.211C104.117 117.446 105.448 126.696 106.689 135.957C107 138.28 105.053 140.424 102.827 141.161C100.602 141.897 98.1833 141.574 95.8627 141.243C97.7975 139.573 101.064 140.77 103.146 139.288C105.013 137.96 105.003 135.231 104.779 132.95C103.941 124.398 102.799 115.875 101.357 107.403C101.102 105.906 100.79 104.313 99.729 103.226C98.3166 101.777 96.0592 101.681 94.0366 101.679C85.7332 101.668 77.4298 101.658 69.1263 101.648C67.6954 101.646 66.1895 101.663 64.947 102.373C61.3719 104.417 62.6901 109.814 64.467 113.529C69.5021 112.508 74.6468 112.029 79.7834 112.104C84.3341 112.17 90.0088 113.648 90.7764 118.134C92.4623 127.989 94.1478 137.845 95.8337 147.7C96.7177 152.867 97.205 159.145 93.0753 162.375C91.012 163.989 88.2733 164.374 85.6744 164.702C79.2844 165.51 72.894 166.318 66.5041 167.126C69.1654 190.429 71.8268 213.733 74.4885 237.036C74.7853 239.636 75.3286 242.624 77.6142 243.897C78.9662 244.65 80.6062 244.588 82.1516 244.504C102.512 243.394 122.854 241.923 143.162 240.094C142.35 238.242 142.334 236.058 143.119 234.195C145.176 246.237 147.233 258.28 149.29 270.322C152.892 267.84 152.338 262.451 151.382 258.183C148.961 247.376 146.54 236.569 144.119 225.762C143.139 227.56 142.159 229.358 141.179 231.156C140.698 228.911 142.045 226.589 143.913 225.254C145.781 223.92 148.084 223.372 150.329 222.891C157.23 221.411 164.206 220.281 171.222 219.506C169.183 205.124 167.144 190.743 165.105 176.36C152.571 179.803 139.297 178.72 126.346 177.609C122.51 177.281 117.636 175.99 117.269 172.157C116.35 162.523 115.431 152.888 114.511 143.254C114.391 141.997 113.663 140.306 112.465 140.701C109.521 141.674 107.77 137.479 107.529 134.387C106.773 124.692 106.017 114.996 105.261 105.301C105.162 104.029 105.136 102.562 106.084 101.709C106.749 101.111 107.705 101.002 108.594 100.921C114.938 100.34 121.282 99.7605 127.626 99.1805C131.249 98.8491 135.364 98.6779 138 101.185C139.861 102.954 140.485 105.637 140.878 108.175C141.602 112.851 141.841 117.603 141.592 122.328C141.089 117.709 140.586 113.09 140.084 108.471C139.857 106.392 139.581 104.188 138.268 102.562C136.027 99.7847 131.858 99.8314 128.302 100.124C121.949 100.647 115.596 101.169 109.244 101.692C108.388 101.763 107.461 101.864 106.839 102.455C106.03 103.225 106.053 104.5 106.134 105.613C106.815 114.984 107.495 124.353 108.176 133.724C108.304 135.492 108.479 137.383 109.597 138.759C110.715 140.135 113.141 140.568 114.186 139.135C112.755 135.988 114.734 132.136 117.665 130.302C120.595 128.468 124.191 128.146 127.637 127.871C133.579 127.397 139.522 126.923 145.465 126.448C145.058 114.148 143.731 101.879 141.5 89.776C139.445 89.2013 137.573 87.9862 136.211 86.343C135.192 88.9681 132.157 90.6367 129.394 90.0897C126.632 89.5428 124.461 86.8436 124.519 84.028C124.191 87.2681 121.369 90.0785 118.127 90.3918C114.886 90.7055 111.577 88.488 110.634 85.3708C109.082 87.1018 107.068 88.5936 104.752 88.8046C102.437 89.0152 99.8752 87.5528 99.4987 85.2584C96.4575 89.2037 89.3897 88.8034 86.8134 84.5399C84.1637 88.9129 76.6199 88.8054 74.0958 84.3587C72.9625 88.4699 66.6354 88.7985 63.5987 85.8049C60.5615 82.8113 59.9703 78.1999 59.5478 73.9565C54.5348 78.7867 53.6303 86.546 54.582 93.4418C55.5332 100.338 58.0126 106.981 58.6143 113.916C59.9876 114.261 61.4939 114.044 62.713 113.323C61.396 109.343 60.5301 103.997 64.1049 101.808C65.5387 100.93 67.3132 100.885 68.9942 100.866C77.0057 100.773 85.0167 100.68 93.0282 100.587ZM172.39 167.558C182.899 167.036 193.74 168.406 203.727 165.094C205.272 164.582 206.855 163.906 207.851 162.618C205.3 161.446 202.591 159.424 202.653 156.617C202.694 154.774 203.972 153.18 205.411 152.028C206.921 150.817 208.68 149.919 210.546 149.404C210.697 148.942 209.885 148.842 209.483 149.115C209.081 149.388 208.47 149.725 208.203 149.32C208.131 149.211 208.116 149.075 208.103 148.945C207.101 138.744 205.616 128.592 203.654 118.531C203.064 115.506 202.188 112.137 199.522 110.591C198.082 109.756 196.357 109.616 194.697 109.501C182.2 108.637 169.68 108.107 157.155 107.913C154.196 107.868 150.884 107.978 148.809 110.089C147.235 111.691 146.784 114.069 146.617 116.309C146.101 123.243 147.586 130.147 148.552 137.033C149.709 145.282 150.126 153.615 150.89 161.91C150.991 163.013 151.114 164.164 151.711 165.098C152.735 166.699 154.813 167.201 156.695 167.465C159.475 167.854 162.287 168.019 165.094 167.957C167.529 167.903 169.957 167.679 172.39 167.558ZM86.1448 114.05C82.5873 112.486 78.5128 112.905 74.6524 113.353C68.8134 114.031 62.9744 114.708 57.1354 115.386C54.329 115.712 51.5199 116.038 48.7433 116.562C48.074 116.688 47.4026 116.827 46.7711 117.082C44.2962 118.083 42.821 120.751 42.4778 123.398C42.1343 126.045 42.7227 128.714 43.2869 131.323C45.0397 139.431 46.5943 147.614 47.016 155.899C47.0993 157.539 47.1412 159.201 47.5923 160.78C48.043 162.359 48.9632 163.879 50.4027 164.67C51.5094 165.278 52.8103 165.404 54.0709 165.487C65.6249 166.246 77.1728 164.383 88.602 162.526C90.2282 162.262 91.9391 161.96 93.2066 160.908C95.1643 159.283 95.4571 156.424 95.443 153.88C95.4168 149.181 94.8482 144.485 93.7511 139.916C92.4683 134.571 90.4538 129.314 90.4006 123.819C90.3769 121.395 90.695 118.783 89.4304 116.715C88.6833 115.493 87.4562 114.626 86.1448 114.05ZM31.1643 215.813C32.7172 226.973 33.2392 238.276 32.7209 249.532C32.6935 250.126 33.4144 250.428 33.998 250.539C41.4693 251.967 49.1642 250.137 56.4145 247.835C60.5358 246.527 64.6603 245.035 68.225 242.587C69.8553 241.467 71.5054 239.779 71.2005 237.825C69.2415 225.268 68.1642 212.574 67.9789 199.867C61.3819 205.022 53.0104 207.209 44.8971 209.273C41.0513 210.251 37.1539 211.236 33.186 211.203C32.2267 211.195 31.4305 212.037 31.1622 212.958C30.8944 213.88 31.0322 214.863 31.1643 215.813ZM182.801 221.454C170.443 220.251 157.838 221.664 146.054 225.574C146.761 230.956 147.728 236.304 148.95 241.594C149.438 243.712 149.968 245.821 150.498 247.929C151.53 252.035 152.562 256.141 153.594 260.247C153.738 260.818 153.918 261.443 154.41 261.766C154.85 262.055 155.419 262.021 155.943 261.978C168.145 260.96 180.34 259.858 192.527 258.671C189.863 246.795 187.198 234.919 184.534 223.044C184.432 222.587 184.309 222.096 183.946 221.801C183.631 221.546 183.204 221.494 182.801 221.454ZM164.585 169.323C161.896 169.46 159.167 169.594 156.541 168.997C153.916 168.401 151.361 166.97 150.012 164.639C149.239 165.53 147.7 165.597 146.852 164.776C146.004 163.956 146.019 162.416 146.883 161.613C143.468 161.644 140.052 161.674 136.636 161.705C138.197 162.625 138.069 165.336 136.455 166.16C134.841 166.983 132.608 165.592 132.57 163.781C132.554 162.968 133.052 162.055 133.862 161.982C133.526 161.406 132.654 161.747 131.991 161.684C130.991 161.59 130.445 160.501 130.095 159.56C128.672 155.744 127.378 151.882 126.085 148.022C126.991 149.504 129.031 150.171 130.638 149.51C131.205 149.277 131.223 148.46 130.981 147.896C130.559 146.911 129.597 146.151 128.529 146.067C127.46 145.984 126.348 146.637 125.987 147.645C125.451 147.245 125.68 146.319 126.241 145.956C126.803 145.594 127.523 145.626 128.19 145.666C134.491 146.047 140.814 146.04 147.113 145.648C147.4 145.63 147.716 145.598 147.912 145.388C148.133 145.15 148.111 144.782 148.076 144.459C147.836 142.243 147.595 140.027 147.354 137.812C147.327 137.566 147.289 137.297 147.106 137.132C146.904 136.949 146.599 136.958 146.327 136.977C138.431 137.54 130.554 138.39 122.72 139.525C121.886 139.646 121.11 138.946 120.847 138.145C120.584 137.345 120.705 136.475 120.83 135.641C120.873 135.349 120.929 135.032 121.146 134.831C121.345 134.646 121.634 134.602 121.904 134.567C130.055 133.527 138.26 132.903 146.475 132.698C146.275 133.509 145.217 133.684 144.381 133.699C136.757 133.834 129.142 134.446 121.593 135.528C120.991 136.559 121.817 137.947 122.929 138.38C124.042 138.814 125.288 138.582 126.462 138.361C132.929 137.144 139.49 136.427 146.067 136.218C147.006 136.188 147.119 134.837 146.921 133.918C146.463 131.785 146.005 129.652 145.546 127.519C140.991 128.381 136.338 128.725 131.706 128.542C128.965 128.434 126.239 128.913 123.537 129.39C121.242 129.796 118.795 130.276 117.136 131.914C115.197 133.828 114.849 136.822 114.967 139.545C115.16 144.011 116.294 148.38 116.853 152.816C117.537 158.235 117.361 163.729 117.886 169.166C118.027 170.631 118.229 172.123 118.886 173.44C119.542 174.757 120.736 175.887 122.192 176.104C134.152 177.888 146.347 178.09 158.361 176.705C159.47 176.577 160.59 176.433 161.638 176.046C163.291 175.434 164.709 174.207 165.552 172.66C165.891 172.038 166.144 171.328 166.02 170.631C165.897 169.934 165.291 169.287 164.585 169.323ZM68.9648 199.878C70.2162 213.649 71.4679 227.42 72.7197 241.191C72.9448 243.666 73.1615 246.223 72.3878 248.585C71.6141 250.947 69.579 253.082 67.0949 253.163C68.5532 255.296 71.07 256.516 73.6154 256.963C76.1603 257.41 78.7701 257.173 81.3429 256.936C102.544 254.977 123.745 253.018 144.946 251.059C144.491 248.409 144.036 245.76 143.581 243.111C143.479 242.516 143.187 241.762 142.585 241.807C128.008 242.893 113.431 243.98 98.8543 245.066C92.8687 245.512 86.8532 245.958 80.8708 245.469C77.8434 245.221 74.1047 244.018 73.8063 240.996C71.4164 216.812 68.6499 192.665 65.5077 168.568C65.4593 168.197 65.3993 167.801 65.1456 167.526C64.8073 167.159 64.2475 167.131 63.7485 167.129C60.7677 167.113 57.787 167.098 54.8063 167.083C55.6766 172.021 56.8067 176.914 58.1902 181.734C58.4459 182.625 58.8712 183.665 59.7838 183.825C63.0614 184.401 65.6482 187.096 66.9966 190.139C68.345 193.181 68.6636 196.564 68.9648 199.878ZM57.5123 114.158C54.9537 101.182 52.7893 88.128 51.0221 75.0202C50.9222 74.2787 50.8255 73.5103 51.0438 72.7946C51.4933 71.3197 53.1063 70.5473 54.6065 70.1912C57.5393 69.4957 60.6022 69.7277 63.6083 69.9492C91.0917 71.9758 118.665 72.7865 146.22 72.379C145.124 70.1558 142.92 68.6399 140.576 67.836C138.232 67.0321 135.727 66.8533 133.254 66.6825C108.998 65.0063 84.7058 63.4356 60.3936 63.7284C57.4193 63.7642 54.41 63.8327 51.538 64.6072C48.666 65.3817 45.9024 66.9415 44.2455 69.4119C41.6345 73.3049 42.266 78.4476 43.0743 83.0646C44.9668 93.8776 47.2693 104.619 49.9749 115.257C52.4877 114.891 55 114.525 57.5123 114.158ZM116.69 88.7961C118.003 88.8098 119.368 88.7361 120.53 88.1243C122.577 87.047 123.485 84.5645 123.621 82.2555C123.756 79.9462 123.3 77.632 123.447 75.3234C123.481 74.7975 123.774 74.0999 124.285 74.232C124.655 76.8897 125.024 79.5471 125.394 82.2044C125.598 83.6716 125.81 85.1662 126.453 86.5009C127.096 87.8352 128.251 89.0084 129.706 89.2879C130.542 89.4482 131.414 89.3044 132.21 89.0051C134.117 88.2883 135.714 86.4638 135.642 84.4283C135.542 81.618 135.442 78.8072 135.342 75.9968C135.302 74.8853 134.889 73.4036 133.778 73.462C126.37 73.8498 118.941 73.8156 111.538 73.3592C110.998 73.3258 110.855 74.0906 110.913 74.6287C111.209 77.4161 111.505 80.2039 111.801 82.9913C112.025 85.0961 112.503 87.5698 114.434 88.4361C115.134 88.7498 115.922 88.7881 116.69 88.7961ZM154.681 263.717C154.326 263.966 154.092 264.348 153.876 264.724C152.752 266.68 151.85 268.762 151.19 270.919C164.156 270.013 177.112 268.96 190.055 267.761C190.542 267.716 191.069 267.652 191.418 267.31C191.645 267.088 191.761 266.78 191.871 266.483C192.355 265.167 192.839 263.851 193.324 262.535C193.56 261.894 193.769 261.098 193.308 260.594C192.925 260.176 192.274 260.189 191.709 260.234C179.875 261.183 168.048 262.204 156.227 263.297C155.689 263.347 155.124 263.407 154.681 263.717ZM177.538 183.83C177.188 179.739 176.473 175.148 173.135 172.758C171.832 176.345 170.517 179.987 170.219 183.792C169.921 187.597 170.762 191.652 173.314 194.49C173.673 194.889 174.072 195.276 174.262 195.777C174.452 196.279 174.356 196.941 173.89 197.207C170.42 194.188 168.985 189.347 169.066 184.748C169.147 180.151 170.556 175.692 171.952 171.311C172.259 170.348 171.382 169.335 170.397 169.111C169.411 168.887 168.394 169.216 167.438 169.541C167.252 169.604 167.169 169.817 167.111 170.005C166.449 172.112 165.781 174.347 166.294 176.496C168.501 185.755 168.216 195.472 170.463 204.721C170.546 205.062 170.636 205.411 170.835 205.701C172.325 202.787 173.815 199.873 175.305 196.959C176.006 195.59 176.71 194.211 177.147 192.737C177.997 189.87 177.793 186.809 177.538 183.83ZM230.253 116.626C230.541 116.863 230.927 116.938 231.298 116.98C235.512 117.451 239.489 114.582 241.822 111.042C244.156 107.502 245.258 103.319 246.788 99.3642C248.224 95.6525 250.06 92.0962 252.255 88.7764C247.861 92.8997 242.451 95.787 237.864 99.6953C233.277 103.604 229.374 109.085 229.697 115.102C229.728 115.658 229.823 116.271 230.253 116.626ZM61.4814 76.7508C62.0803 79.3767 61.8326 82.2946 63.2873 84.5612C64.6977 86.7582 67.6728 87.8054 70.1485 86.9761C72.6242 86.1469 74.3681 83.5185 74.1699 80.9152C74.1248 80.3235 73.9915 79.7428 73.8582 79.1644C73.3367 76.899 72.8151 74.6335 72.2935 72.3681C72.2416 72.1426 72.1836 71.9053 72.0237 71.7382C71.7945 71.4986 71.4276 71.4708 71.0962 71.4579C67.9096 71.3363 64.7231 71.2142 61.5362 71.0922C61.2297 71.0805 60.8934 71.0781 60.655 71.271C60.3533 71.5159 60.336 71.9649 60.3755 72.3512C60.5281 73.8575 61.1447 75.2743 61.4814 76.7508ZM147.742 79.1999C147.818 82.827 150.181 85.9809 152.673 88.6173C152.917 88.8747 153.166 89.1332 153.47 89.3153C153.962 89.6093 154.561 89.6785 155.131 89.6298C157.056 89.4643 158.703 88.0084 159.516 86.2552C160.328 84.502 160.42 82.4968 160.245 80.5724C160.07 78.6481 159.644 76.7528 159.472 74.8285C159.438 74.4422 159.296 73.9384 158.909 73.94C155.502 73.9529 152.095 73.9658 148.688 73.9791C148.252 73.9807 147.79 73.9896 147.422 74.2227C147.054 74.4559 146.849 75.0008 147.122 75.3404C147.956 76.3782 147.714 77.8688 147.742 79.1999ZM199.55 191.395C190.216 191.231 181.659 196.764 175.13 203.437C174.03 204.562 172.956 205.742 172.223 207.134C172.093 207.381 171.991 207.724 172.204 207.904C172.316 208 172.478 208.005 172.627 208.005C178.057 207.986 183.279 205.692 187.691 202.526C192.103 199.36 195.821 195.342 199.55 191.395ZM84.0533 86.3176C85.3868 85.55 86.2451 84.0216 86.206 82.4835C86.1863 81.7034 85.9559 80.9466 85.7707 80.1886C85.2934 78.2381 85.1081 76.2167 85.2221 74.2123C85.2467 73.7854 85.2829 73.3468 85.1549 72.9388C85.0264 72.5308 84.6861 72.1558 84.2587 72.1325C80.7319 71.94 77.2046 71.7471 73.6774 71.5546C73.5505 71.5477 73.412 71.5441 73.3097 71.619C73.1506 71.7358 73.1599 71.9718 73.1892 72.1663C73.623 75.0367 75.0121 77.7403 75.1011 80.6421C75.1341 81.7094 74.9911 82.8037 75.2904 83.829C75.673 85.1424 76.7669 86.1791 78.0359 86.6898C79.3046 87.2009 80.7283 87.2298 82.0747 86.987C82.7633 86.8629 83.4468 86.6664 84.0533 86.3176ZM225.19 125.613C227.744 126.334 230.003 127.84 232.481 128.791C237.975 130.898 244.514 130.018 249.256 126.534C251.292 125.038 253.328 123.542 255.364 122.046C252.882 122.633 250.315 122.858 247.769 122.711C243.514 122.466 239.313 121.192 235.064 121.511C231.449 121.783 227.933 123.243 225.19 125.613ZM152.243 105.955C151.741 103.174 151.239 100.392 150.737 97.611C150.064 93.8832 149.391 90.1558 148.718 86.428C148.67 86.1634 148.612 85.8798 148.417 85.6958C148.221 85.5117 147.838 85.5113 147.732 85.7578C147.059 87.3092 145.683 88.5388 144.067 89.0329C143.086 89.3326 143.002 90.6709 143.116 91.6903C143.92 98.8825 144.873 106.058 145.972 113.211C146.291 110.285 148.798 107.745 151.72 107.386C152.288 107.316 152.345 106.519 152.243 105.955ZM98.5752 83.3325C98.263 80.334 97.8696 77.344 97.3947 74.3669C97.2969 73.7531 97.0355 72.9879 96.4144 72.9605C93.2041 72.8196 89.9935 72.679 86.7832 72.5381C86.6688 72.5332 86.548 72.5292 86.4465 72.5832C86.1875 72.7205 86.2298 73.0983 86.3063 73.3814C87.0466 76.1306 87.4396 78.9727 87.4727 81.8194C87.4807 82.5197 87.4727 83.2471 87.7659 83.8834C88.1976 84.8198 89.1799 85.3571 90.1135 85.7945C91.7402 86.5564 93.5191 87.2266 95.2944 86.9499C97.0697 86.6732 98.7612 85.1194 98.5752 83.3325ZM99.9634 83.3494C100.287 84.9181 100.881 86.7429 102.418 87.194C103.715 87.5746 105.117 87.6797 106.419 87.3128C107.72 86.9459 108.906 86.0723 109.488 84.8524C109.903 83.9841 109.996 83.001 110.05 82.0405C110.198 79.4089 110.097 76.7629 109.747 74.1502C109.728 74.0105 109.707 73.8667 109.637 73.7443C109.449 73.4201 109.008 73.3746 108.633 73.3665C105.364 73.2952 102.095 73.2239 98.8261 73.1526C98.5591 73.147 98.1861 73.4245 98.4121 73.5671C98.7778 76.8495 99.2957 80.1149 99.9634 83.3494ZM209.811 115.816C207.257 121.59 206.505 128.145 207.684 134.347C208.156 136.825 209.082 139.454 211.227 140.781C211.858 141.172 212.91 141.287 213.144 140.582C215.857 132.397 214.591 122.993 209.811 115.816ZM44.2845 188.306C45.3679 189.05 46.5891 189.592 47.867 189.896C49.4824 190.281 51.1594 190.285 52.8191 190.325C56.698 190.419 60.5716 190.716 64.419 191.215C64.9555 191.285 65.3993 190.704 65.3852 190.163C65.3711 189.622 65.0417 189.144 64.7006 188.724C62.6486 186.196 59.6521 184.454 56.4402 183.921C54.1647 183.543 51.8384 183.755 49.5327 183.689C47.2274 183.622 44.821 183.232 42.9825 181.839C42.885 183.164 42.8773 184.495 42.9591 185.82C42.9921 186.357 43.0465 186.913 43.32 187.376C43.5491 187.763 43.9132 188.051 44.2845 188.306ZM137.598 85.4368C137.959 86.0933 138.541 86.5995 139.136 87.0555C139.781 87.5496 140.477 88.0124 141.27 88.1936C143.22 88.6403 145.214 87.1952 146.036 85.3712C146.858 83.5467 146.775 81.4557 146.585 79.4641C146.44 77.9582 146.245 76.4572 145.997 74.9646C145.956 74.7161 145.908 74.4559 145.752 74.2578C145.477 73.9106 144.975 73.8703 144.532 73.8587C142.155 73.7954 139.777 73.7322 137.399 73.669C136.873 73.6553 136.125 73.907 136.282 74.4096C136.981 76.661 137.286 79.0344 137.179 81.3892C137.116 82.7638 136.934 84.2318 137.598 85.4368ZM221.743 127.236C224.268 123.162 225.023 118.033 223.781 113.404C222.682 109.312 220.129 105.687 219.32 101.527C217.433 107.252 215.534 113.414 217.24 119.195C218.115 122.158 219.882 124.771 221.743 127.236ZM179.923 191.327C187.43 189.393 194.361 185.271 199.643 179.596C201.224 177.898 202.841 176.235 204.496 174.608C200.444 175.164 196.489 176.416 192.857 178.295C187.315 181.162 182.453 185.625 179.923 191.327ZM225.665 141.493C228.426 138.898 231.188 136.303 233.949 133.707C224.611 134.898 215.89 140.294 210.657 148.119C212.006 149.158 213.941 148.546 215.514 147.896C217.702 146.991 219.909 146.076 221.858 144.73C223.229 143.781 224.45 142.635 225.665 141.493ZM44.0461 198.211C44.0691 198.45 44.0977 198.704 44.2426 198.896C44.5608 199.317 45.2088 199.214 45.7147 199.066C51.5094 197.373 57.2232 195.401 62.8286 193.16C63.233 192.998 63.7042 192.743 63.7122 192.308C59.4121 192.009 55.1116 191.711 50.811 191.413C49.7591 191.34 48.7031 191.266 47.672 191.046C46.1207 190.715 44.6418 190.05 43.3647 189.11C43.4581 192.151 43.7521 195.182 44.0461 198.211ZM179.896 169.113C179.549 169.364 179.408 169.806 179.289 170.217C178.88 171.628 178.468 173.124 178.849 174.543C179.042 175.266 179.431 175.919 179.815 176.561C180.878 178.338 181.941 180.115 183.004 181.892C183.103 182.057 183.21 182.23 183.381 182.32C183.889 182.587 184.39 181.961 184.625 181.438C186.155 178.045 187.719 174.457 187.373 170.751C187.319 170.181 187.165 169.534 186.655 169.273C186.421 169.153 186.15 169.138 185.887 169.125C184.311 169.047 182.736 168.968 181.16 168.89C180.724 168.869 180.249 168.857 179.896 169.113ZM203.982 156.551C203.941 158.94 206.025 160.936 208.31 161.632C210.595 162.327 213.047 162.028 215.422 161.773C219.598 161.324 224.015 160.955 227.448 158.535C228.209 157.998 228.929 157.336 229.269 156.468C229.8 155.114 229.266 153.516 228.269 152.459C227.271 151.401 225.888 150.797 224.503 150.353C219.555 148.769 214.062 148.952 209.23 150.861C206.681 151.867 204.028 153.811 203.982 156.551ZM43.6526 180.947C44.1025 181.367 45.0143 181.474 45.1895 180.884C45.7904 178.864 47.1416 177.132 48.7329 175.75C50.3245 174.367 52.159 173.3 53.9819 172.241C54.4736 171.956 54.4426 171.247 54.3476 170.687C54.1635 169.601 53.9795 168.515 53.7954 167.429C53.7487 167.154 53.6568 166.826 53.3874 166.753C53.1671 166.693 52.9496 166.841 52.7696 166.982C51.4619 168.003 50.1546 169.024 48.8468 170.045C46.227 172.091 43.4194 174.438 42.8512 177.713C42.6534 178.854 42.806 180.157 43.6526 180.947ZM53.8522 173.638C50.9158 175.472 47.8074 177.502 46.4731 180.696C46.3897 180.895 46.3132 181.104 46.3196 181.32C46.3325 181.745 46.6752 182.103 47.0679 182.266C47.4602 182.43 47.8976 182.437 48.3229 182.442C50.8368 182.472 53.3508 182.501 55.8643 182.531C55.9867 182.532 56.1192 182.531 56.2159 182.455C56.3681 182.336 56.3528 182.105 56.3226 181.914C55.9215 179.38 55.5204 176.846 55.1196 174.312C55.0624 173.951 54.946 173.52 54.5944 173.422C54.3383 173.35 54.0777 173.497 53.8522 173.638ZM178.746 169.269C176.895 168.792 174.899 168.896 173.108 169.563C173.455 170.701 174.069 171.757 174.888 172.62C177.648 175.53 178.464 179.754 178.777 183.751C178.944 185.886 179.003 188.03 178.953 190.171C180.166 188.302 181.377 186.432 182.59 184.562C182.71 184.376 182.835 184.179 182.847 183.958C182.861 183.736 182.76 183.526 182.659 183.329C181.462 181.019 179.705 179.027 178.595 176.675C177.485 174.323 177.145 171.319 178.746 169.269ZM54.7418 71.3886C53.7209 71.5509 52.5565 71.8103 52.0716 72.7229C51.7366 73.354 51.8356 74.1176 51.9432 74.824C52.387 77.7335 52.8304 80.6433 53.2742 83.5528C55.5449 79.4697 57.671 75.3085 59.7963 71.1486C59.4028 70.7035 58.7057 70.7599 58.1193 70.853C56.9936 71.0318 55.8675 71.2102 54.7418 71.3886ZM194.495 170.18C194.809 170.596 195.629 170.135 195.437 169.65C198.469 170.52 201.775 169.9 204.639 168.578C207.503 167.255 210.004 165.273 212.465 163.299C211.432 163.154 210.398 163.01 209.364 162.866C209.153 162.836 208.88 162.84 208.799 163.037C208.243 164.4 207.044 165.42 205.721 166.065C204.398 166.709 202.942 167.021 201.503 167.328C200.504 167.541 199.505 167.754 198.506 167.966C196.959 168.296 195.214 168.771 194.495 170.18ZM139.634 149.081C139.829 149.032 140.037 148.974 140.161 148.816C140.354 148.573 140.257 148.222 140.207 147.915C140.157 147.608 140.234 147.2 140.541 147.146C140.82 147.202 140.949 147.533 140.955 147.818C140.962 148.103 140.899 148.399 141.003 148.665C141.232 149.256 142.048 149.279 142.676 149.199C143.048 149.152 143.421 149.104 143.793 149.057C143.909 149.042 144.034 149.024 144.121 148.944C144.396 148.692 144.013 148.281 143.927 147.917C143.862 147.636 143.993 147.333 143.907 147.057C143.76 146.589 143.137 146.517 142.645 146.533C138.89 146.658 135.134 146.782 131.378 146.907C131.443 147.618 131.637 148.316 131.949 148.958C132.016 149.097 132.095 149.239 132.229 149.316C132.364 149.393 132.53 149.388 132.686 149.381C133.619 149.338 134.553 149.294 135.486 149.251C135.566 149.247 135.65 149.242 135.716 149.198C135.886 149.086 135.827 148.826 135.749 148.637C135.614 148.312 135.479 147.988 135.345 147.663C135.227 147.38 135.739 147.213 135.954 147.43C136.169 147.648 136.177 147.989 136.279 148.277C136.489 148.876 137.126 149.241 137.756 149.318C138.386 149.395 139.019 149.238 139.634 149.081ZM194.18 168.963C194.384 168.745 193.933 168.518 193.636 168.554C191.945 168.761 190.254 168.969 188.562 169.176C188.337 169.204 188.038 169.328 188.092 169.549C188.647 171.825 188.439 174.28 187.507 176.429C187.33 176.839 187.214 177.464 187.638 177.601C189.402 174.436 191.61 171.519 194.18 168.963ZM136.555 150.798C136.502 150.614 136.443 150.421 136.303 150.291C136.144 150.142 135.914 150.105 135.698 150.081C134.59 149.96 133.461 150.036 132.379 150.305C132.718 151.403 133.056 152.5 133.394 153.598C133.459 153.806 133.545 154.039 133.747 154.121C133.85 154.163 133.966 154.155 134.077 154.148C135.171 154.071 136.265 153.994 137.359 153.917C137.121 152.87 136.853 151.83 136.555 150.798ZM129.432 154.636C129.554 154.702 129.703 154.682 129.839 154.66C130.83 154.498 131.82 154.337 132.811 154.176C132.453 153.03 132.096 151.885 131.739 150.739C131.686 150.571 131.621 150.387 131.466 150.303C131.343 150.237 131.195 150.251 131.056 150.267C130.173 150.37 129.29 150.473 128.407 150.575C128.241 150.595 128.045 150.636 127.983 150.792C127.941 150.897 127.981 151.016 128.02 151.122C128.409 152.172 128.798 153.222 129.187 154.272C129.239 154.412 129.301 154.564 129.432 154.636ZM140.561 150.06C140.351 149.878 140.041 149.891 139.765 149.914C138.893 149.985 138.02 150.057 137.148 150.129C137.409 151.246 137.737 152.349 138.131 153.427C138.182 153.568 138.24 153.717 138.36 153.808C138.51 153.921 138.716 153.915 138.903 153.903C139.499 153.867 140.094 153.832 140.69 153.796C140.964 153.779 141.297 153.72 141.39 153.462C141.433 153.337 141.405 153.2 141.376 153.071C141.195 152.265 141.014 151.458 140.833 150.652C140.784 150.436 140.727 150.205 140.561 150.06ZM135.357 158.091C135.271 158.104 135.179 158.12 135.116 158.181C134.994 158.299 135.05 158.502 135.114 158.66C135.343 159.22 135.572 159.781 135.801 160.342C135.886 160.55 135.982 160.771 136.172 160.892C136.348 161.003 136.568 161.005 136.776 161.004C137.567 160.999 138.359 160.994 139.15 160.99C139.266 160.989 139.392 160.985 139.481 160.911C139.643 160.777 139.583 160.52 139.508 160.324C139.204 159.522 138.899 158.719 138.595 157.916C138.497 157.659 138.139 157.655 137.866 157.698C137.03 157.828 136.193 157.96 135.357 158.091ZM142.016 149.902C141.85 149.902 141.663 149.911 141.551 150.035C141.415 150.183 141.458 150.415 141.51 150.609C141.735 151.459 141.96 152.31 142.185 153.161C142.224 153.31 142.27 153.47 142.39 153.568C142.55 153.698 142.78 153.674 142.984 153.643C143.734 153.528 144.484 153.414 145.235 153.299C145.154 152.428 145.016 151.563 144.821 150.71C144.76 150.444 144.676 150.153 144.445 150.006C144.272 149.897 144.055 149.894 143.85 149.895C143.239 149.897 142.628 149.899 142.016 149.902ZM143.543 160.89C143.301 160.007 143.057 159.124 142.814 158.241C142.721 157.903 142.59 157.521 142.264 157.394C142.103 157.332 141.924 157.345 141.752 157.36C140.952 157.43 140.151 157.499 139.35 157.569C139.561 158.36 139.811 159.141 140.099 159.907C140.244 160.293 140.463 160.73 140.87 160.796C141.753 160.939 142.653 160.97 143.543 160.89ZM144.937 160.829C145.663 160.888 146.46 160.928 147.047 160.497C146.792 159.508 146.538 158.518 146.283 157.529C146.226 157.307 146.15 157.058 145.945 156.953C145.796 156.874 145.616 156.896 145.448 156.919C144.729 157.019 144.01 157.119 143.291 157.22C143.462 158.267 143.752 159.294 144.154 160.276C144.216 160.427 144.285 160.583 144.414 160.682C144.56 160.795 144.755 160.814 144.937 160.829ZM209.614 146.747C210.168 145.609 210.722 144.471 211.277 143.334C211.335 143.214 211.395 143.085 211.374 142.953C211.353 142.826 211.26 142.723 211.171 142.629C210.382 141.795 209.593 140.961 208.803 140.126C208.475 140.574 208.513 141.183 208.566 141.736C208.737 143.549 208.909 145.363 209.081 147.177C209.322 147.231 209.505 146.969 209.614 146.747ZM145.735 149.77C145.631 149.763 145.513 149.761 145.441 149.835C145.36 149.919 145.378 150.054 145.401 150.168C145.558 150.921 145.713 151.674 145.87 152.427C145.928 152.706 145.996 153.005 146.207 153.197C146.888 153.819 148.201 152.749 148.835 153.42C148.946 152.35 148.866 151.261 148.6 150.22C148.581 150.147 148.558 150.069 148.502 150.019C148.438 149.96 148.343 149.952 148.256 149.946C147.416 149.887 146.575 149.829 145.735 149.77ZM130.055 155.356C129.964 155.368 129.869 155.382 129.794 155.435C129.629 155.553 129.635 155.797 129.659 155.998C129.722 156.537 129.792 157.095 130.074 157.558C130.356 158.021 130.913 158.365 131.436 158.224C132.187 158.023 132.938 157.822 133.688 157.62C133.656 156.903 133.51 156.191 133.259 155.518C133.197 155.35 133.118 155.173 132.964 155.082C132.803 154.988 132.603 155.01 132.419 155.035C131.631 155.142 130.843 155.249 130.055 155.356ZM147.562 149.061C147.788 149.027 148.028 148.986 148.196 148.831C148.696 148.369 148.125 147.43 148.53 146.883C148.688 146.67 148.301 146.479 148.035 146.49C146.85 146.54 145.664 146.59 144.478 146.64C144.524 147.131 144.61 147.618 144.733 148.095C144.87 148.626 145.389 148.99 145.925 149.108C146.461 149.225 147.019 149.144 147.562 149.061ZM137.979 155.447C137.826 154.714 136.844 154.542 136.108 154.68C135.371 154.817 134.549 155.083 133.923 154.671C133.963 155.445 134.143 156.213 134.454 156.923C134.519 157.072 134.598 157.228 134.74 157.308C134.9 157.398 135.097 157.37 135.279 157.338C136.004 157.213 136.731 157.088 137.457 156.962C137.816 156.9 138.291 156.615 138.102 156.303C137.951 156.054 138.038 155.732 137.979 155.447ZM133.494 158.458C132.9 158.559 132.307 158.659 131.714 158.76C131.393 158.814 130.997 158.943 130.963 159.267C130.876 160.086 131.692 160.746 132.499 160.909C133.306 161.072 134.144 160.913 134.964 160.994C134.93 160.298 134.784 159.607 134.534 158.957C134.474 158.802 134.404 158.642 134.272 158.541C134.059 158.377 133.759 158.413 133.494 158.458ZM149.126 156.87C148.339 156.786 147.539 156.828 146.765 156.993C147.193 158.012 147.496 159.083 147.668 160.174C147.746 160.675 148.461 160.685 148.952 160.56C149.135 160.513 149.335 160.455 149.439 160.298C149.529 160.162 149.525 159.987 149.517 159.824C149.475 158.925 149.433 158.026 149.391 157.127C149.389 157.07 149.384 157.01 149.352 156.963C149.304 156.895 149.21 156.878 149.126 156.87ZM136.273 164.925C137.015 164.184 136.634 162.688 135.628 162.392C134.622 162.096 133.492 163.147 133.715 164.172C133.945 165.231 135.505 165.691 136.273 164.925ZM142.107 156.24C142.579 155.624 141.872 154.714 141.107 154.58C140.342 154.446 139.568 154.739 138.791 154.728C138.505 154.723 138.493 155.154 138.586 155.424C138.706 155.774 138.826 156.124 138.947 156.474C138.996 156.617 139.085 156.789 139.236 156.78C139.79 156.745 140.343 156.71 140.897 156.676C141.339 156.648 141.837 156.592 142.107 156.24ZM149.759 162.19C149.701 162.036 149.617 161.885 149.484 161.787C149.364 161.7 149.215 161.663 149.068 161.645C147.906 161.505 146.778 162.664 146.949 163.822C147.444 164.41 148.375 164.572 149.039 164.186C149.703 163.8 150.024 162.911 149.759 162.19ZM142.587 155.192C142.561 155.701 143.009 156.135 143.5 156.273C143.99 156.41 144.513 156.321 145.015 156.232C145.272 156.186 145.56 156.12 145.694 155.896C145.981 155.419 145.411 154.545 145.937 154.362C145.584 154.313 145.232 154.265 144.879 154.217C144.413 154.153 143.931 154.089 143.479 154.219C143.028 154.348 142.61 154.722 142.587 155.192ZM146.803 155.843C147.337 156.308 148.232 156.244 148.728 155.739C149.225 155.234 149.289 154.379 148.915 153.777C147.98 153.951 147.045 154.124 146.109 154.298C146.227 154.861 146.369 155.466 146.803 155.843ZM219.077 146.903C218.348 147.173 217.62 147.443 216.892 147.713C216.53 147.847 216.163 147.983 215.85 148.208C217.041 148.673 218.544 148.066 219.077 146.903ZM151.379 89.0974C151.36 88.7756 151.02 88.5126 150.703 88.5754C150.724 88.9029 151.05 89.1779 151.376 89.1429L151.379 89.0974Z" fill="#00160A"/>
</svg>
