<svg width="15" height="15" viewBox="0 0 15 15" fill="none" xmlns="http://www.w3.org/2000/svg">
<path d="M9.26358 3.0846C8.93162 3.02328 8.62675 3.23512 8.56356 3.55915C8.50036 3.88319 8.71287 4.19955 9.03579 4.26297C10.008 4.45251 10.7588 5.2051 10.949 6.18068C11.0032 6.46151 11.2504 6.66639 11.5352 6.66639C11.5734 6.66639 11.6116 6.6629 11.6505 6.65593C11.9734 6.59113 12.1859 6.27546 12.1227 5.95073C11.8387 4.49362 10.7171 3.36822 9.26358 3.0846Z" fill="#BAC0CB"/>
<path d="M9.22028 0.656531C9.06472 0.634232 8.90846 0.680223 8.78415 0.779175C8.65637 0.879521 8.57651 1.02447 8.55915 1.18683C8.52234 1.51504 8.75915 1.8119 9.08694 1.84883C11.3474 2.10109 13.1044 3.86202 13.3586 6.12956C13.3926 6.43338 13.6475 6.66264 13.9517 6.66264C13.9746 6.66264 13.9968 6.66125 14.0197 6.65846C14.1788 6.64104 14.3204 6.5623 14.4204 6.43686C14.5197 6.31143 14.5649 6.15534 14.5468 5.99576C14.2302 3.16657 12.0405 0.970808 9.22028 0.656531Z" fill="#BAC0CB"/>
<path fill-rule="evenodd" clip-rule="evenodd" d="M6.90204 8.30219C9.68372 11.0831 10.3148 7.8659 12.0859 9.63577C13.7934 11.3428 14.7747 11.6848 12.6114 13.8475C12.3404 14.0653 10.6187 16.6853 4.568 10.6363C-1.48344 4.58658 1.13506 2.8631 1.35289 2.5922C3.5215 0.423446 3.85761 1.41053 5.56509 3.11755C7.33621 4.88817 4.12036 5.52128 6.90204 8.30219Z" fill="#BAC0CB"/>
</svg>
