<svg width="303" height="219" viewBox="0 0 303 219" fill="none" xmlns="http://www.w3.org/2000/svg">
<path fill-rule="evenodd" clip-rule="evenodd" d="M177.56 202.476C146.393 182.336 104.654 175.7 81.4869 195.817C44.5417 227.9 -14.0887 187.041 3.58901 139.298C21.2669 91.5558 150.073 -88.9653 259.234 56.6228C368.392 202.212 244.531 245.747 177.56 202.476Z" fill="#64FCD9"/>
<path fill-rule="evenodd" clip-rule="evenodd" d="M145.175 41.3419C149.999 40.708 153.527 37.1644 157.083 33.5918C160.322 30.3382 163.584 27.0611 167.872 25.9374L167.864 25.9448L167.845 25.9625C162.353 31.033 156.861 36.1036 151.367 41.1746C158.485 40.3086 164.701 41.6697 172.096 45.334C172.314 48.1391 175.068 48.9134 182.875 51.1086C189.12 52.8647 198.598 55.53 212.598 60.8714C213.924 61.3773 215.288 61.9239 216.278 62.9396C217.426 64.1167 217.924 65.7653 218.357 67.3512C227.515 100.769 225.669 137.107 213.169 169.423C220.666 170.518 227.608 171.622 234.551 172.726C241.493 173.83 248.436 174.935 255.933 176.029C259.156 176.499 263.592 178.932 262.571 182.024L262.497 182.246C261.522 185.208 260.934 186.994 257.823 187.641C254.635 188.307 251.331 187.844 248.109 187.381C243.014 186.65 237.909 185.906 232.795 185.159L232.785 185.157C173.694 176.533 113.421 167.735 54.9247 178.436C54.7226 178.473 54.5199 178.51 54.3173 178.548C49.8252 179.371 45.2247 180.215 40.7602 179.307C40.3544 179.224 39.952 179.146 39.5551 179.069C35.3883 178.259 31.8246 177.565 31.2481 173.255C31.1691 172.664 31.1642 172.02 31.4954 171.525C31.8585 170.983 32.5292 170.752 33.1529 170.562C44.6776 167.029 59.8348 164.124 71.862 163.319C63.1277 132.254 59.6017 99.8387 65.8936 67.0327C66.2051 65.4086 66.9902 63.4116 68.0564 62.1477C69.0854 60.9284 70.2728 60.5353 71.7251 60.0545C71.8831 60.0025 72.0446 59.949 72.2094 59.893C86.5467 55.0472 99.9218 51.5772 114.854 49.1146C116.246 45.2295 120.024 42.6839 124.101 42.0504C125.237 41.8738 126.288 41.6447 127.301 41.4239C129.923 40.8527 132.288 40.337 135.203 40.9386C130.667 34.3156 125.241 28.3015 119.12 23.1078C118.266 22.3835 119.284 20.8497 120.403 20.8939C121.521 20.9375 122.381 21.8575 123.107 22.7098C125.798 25.8687 128.49 29.0277 131.182 32.1861C133.257 34.6203 135.331 37.0545 137.405 39.4887C133.844 35.8528 130.283 32.2175 126.721 28.5821C131.086 35.1733 137.337 42.3708 145.175 41.3419ZM101.72 69.096C101.72 69.096 89.9024 94.0189 102.959 123.939L105.453 125.409C105.453 125.409 167.575 128.292 180.232 128.288L182.423 126.324C182.423 126.324 200.808 93.2201 183.785 66.4435C183.785 66.4435 120.514 65.3782 101.72 69.096ZM121.138 21.9243C121.128 22.4704 121.12 23.0165 121.11 23.5626L121.057 23.5371C120.324 23.4002 119.855 22.4871 120.171 21.8119C120.495 21.7604 120.834 21.8001 121.138 21.9243Z" fill="white"/>
<path fill-rule="evenodd" clip-rule="evenodd" d="M107.88 76.1321C107.88 76.1321 99.6028 96.3373 106.995 116.357C106.995 116.357 140.621 127.61 176.229 118.43C176.229 118.43 184.167 108.49 178.616 76.3961C154.821 70.0675 132.683 70.356 107.88 76.1321Z" fill="white"/>
<path fill-rule="evenodd" clip-rule="evenodd" d="M168.025 25.1641C167.437 24.9787 166.931 24.5052 166.767 23.91C166.603 23.3148 166.817 22.6176 167.322 22.2628C167.715 21.9871 168.226 21.9346 168.703 21.9812C169.176 22.0273 169.661 22.1735 169.999 22.5086C170.537 23.0415 170.548 23.9875 170.079 24.5812C169.609 25.1744 168.747 25.3913 168.025 25.1641ZM169.17 23.2284C168.959 23.0852 168.667 23.0719 168.444 23.1946C168.092 23.4173 168.233 24.0773 168.646 24.1362C169.058 24.1951 169.378 23.6004 169.102 23.2883L169.17 23.2284Z" fill="#00160A"/>
<path fill-rule="evenodd" clip-rule="evenodd" d="M132.334 137.997C132.531 140.016 132.727 142.034 132.923 144.053C132.97 144.531 132.806 145.222 132.332 145.138C131.6 144.175 131.646 142.857 131.602 141.648C131.546 140.137 131.296 138.633 130.86 137.186C130.723 136.73 131.449 136.426 131.83 136.71C132.212 136.994 132.288 137.524 132.334 137.997Z" fill="#FFB61D"/>
<path fill-rule="evenodd" clip-rule="evenodd" d="M102.854 147.736C101.765 150.093 99.9193 152.197 97.4876 153.106C94.3405 154.283 90.7792 153.298 87.8063 151.734C86.6493 151.125 85.5247 150.42 84.6199 149.476C82.7686 147.545 82.0105 144.796 81.8206 142.128C81.6867 140.246 81.8079 138.318 82.4462 136.543C83.8603 132.607 87.9019 129.832 92.0819 129.717C96.2619 129.603 100.359 132.041 102.443 135.667C104.527 139.293 104.609 143.94 102.854 147.736ZM99.9041 150.307C100.782 149.437 101.429 148.354 101.912 147.216C103.778 142.826 103.05 137.309 99.7162 133.898C96.3831 130.487 90.4966 129.733 86.6792 132.592C84.2087 134.442 82.8029 137.553 82.8123 140.64C82.8216 143.727 84.1768 146.743 86.3087 148.976C88.0609 150.81 90.3774 152.161 92.8915 152.5C95.4052 152.84 98.1024 152.093 99.9041 150.307Z" fill="#00160A"/>
<path fill-rule="evenodd" clip-rule="evenodd" d="M121.231 145.214C120.637 147.764 117.645 149.382 115.119 148.697C112.592 148.012 110.851 145.328 111.013 142.716C111.058 142 111.233 141.277 111.63 140.68C112.593 139.233 114.534 138.887 116.259 138.669C116.827 138.597 117.409 138.526 117.968 138.649C119.079 138.893 119.889 139.854 120.435 140.851C121.16 142.178 121.574 143.742 121.231 145.214ZM118.394 146.962C119.216 146.174 119.501 144.953 119.402 143.819C119.262 142.218 118.323 140.624 116.829 140.031C115.336 139.438 113.359 140.132 112.83 141.65C112.251 143.316 112.453 145.326 113.654 146.617C114.855 147.909 117.121 148.182 118.394 146.962Z" fill="#00160A"/>
<path fill-rule="evenodd" clip-rule="evenodd" d="M180.107 136.275C180.675 135.056 181.517 133.971 182.519 133.073C186.832 129.204 194.068 129.41 198.405 133.255C202.741 137.099 203.898 143.946 201.408 149.18C200.069 151.994 197.656 154.426 194.63 155.167C191.7 155.883 188.609 154.96 185.902 153.632C183.786 152.594 181.708 151.213 180.603 149.131C179.967 147.932 179.696 146.577 179.484 145.237C179.01 142.234 178.821 139.03 180.107 136.275ZM192.185 131.524C190.471 131.224 188.683 131.202 187.012 131.688C183.407 132.735 180.747 136.179 180.221 139.897C179.695 143.614 181.135 147.463 183.654 150.247C186.765 153.687 192.06 155.546 196.191 153.439C198.564 152.228 200.239 149.873 200.964 147.309C201.689 144.745 201.534 141.991 200.896 139.404C200.58 138.121 200.139 136.85 199.408 135.749C197.821 133.36 195.011 132.016 192.185 131.524ZM182.3 149.916C182.271 150.278 182.505 150.646 182.846 150.773C182.898 150.433 182.676 150.071 182.349 149.963L182.3 149.916Z" fill="#00160A"/>
<path fill-rule="evenodd" clip-rule="evenodd" d="M146.504 140.379C146.901 141.09 146.765 142.058 146.188 142.632C145.657 141.979 145.334 141.158 145.279 140.317C144.464 140.32 143.649 140.324 142.834 140.328C143.045 141.11 142.885 141.985 142.408 142.641C141.755 142.084 141.429 141.166 141.586 140.322C140.773 140.321 139.96 140.32 139.147 140.319C139.246 141.09 138.959 141.901 138.397 142.436C138.267 142.165 138.136 141.893 138.006 141.621C137.787 141.165 137.554 140.691 137.151 140.385C136.747 140.08 136.119 140.008 135.76 140.364C135.118 140.999 135.633 142.517 134.754 142.717C134.254 142.166 134.07 141.344 134.287 140.632C133.775 140.635 133.267 140.396 132.944 139.999C132.851 139.685 133.302 139.517 133.629 139.506C139.489 139.305 145.357 139.35 151.213 139.64C151.879 139.673 152.642 139.761 153.018 140.313C153.231 140.626 153.267 141.023 153.296 141.401C153.356 142.193 153.416 142.984 153.477 143.775C153.534 144.533 153.583 145.337 153.229 146.009C152.555 147.288 150.834 147.474 149.389 147.5C143.91 147.599 138.431 147.697 132.951 147.796C131.559 147.822 130.034 147.802 128.964 146.91C128.181 146.256 127.793 145.244 127.564 144.249C127.289 143.055 127.222 141.707 127.916 140.696C128.609 139.686 130.295 139.339 131.049 140.305C131.01 140.695 130.439 140.639 130.047 140.643C129.293 140.65 128.692 141.354 128.538 142.093C128.384 142.831 128.569 143.594 128.754 144.326C128.949 145.104 129.189 145.949 129.846 146.41C130.39 146.793 131.1 146.822 131.766 146.833C136.761 146.921 141.758 146.839 146.748 146.586C148.182 146.514 149.619 146.427 151.031 146.167C152.215 145.949 152.549 144.411 152.472 143.21C152.419 142.38 152.271 141.501 151.716 140.881C151.161 140.261 150.076 140.057 149.509 140.666C149.535 141.356 149.181 142.048 148.607 142.431C148.506 141.859 148.395 141.262 148.039 140.802C147.684 140.343 147.002 140.079 146.504 140.379Z" fill="#00160A"/>
<path fill-rule="evenodd" clip-rule="evenodd" d="M168.545 145.896C167.373 148.249 163.95 148.816 161.705 147.448C160.328 146.609 159.308 145.154 159.13 143.552C158.951 141.949 159.677 140.244 161.033 139.373C161.661 138.969 162.391 138.75 163.123 138.603C164.552 138.316 166.183 138.34 167.287 139.292C167.918 139.835 168.295 140.617 168.564 141.405C169.061 142.86 169.23 144.52 168.545 145.896ZM163.821 147.252C164.907 147.346 165.997 146.762 166.614 145.865C167.232 144.968 167.397 143.799 167.165 142.735C166.845 141.269 165.699 139.945 164.224 139.667C162.748 139.388 161.075 140.37 160.815 141.848C160.613 142.992 160.657 144.211 161.157 145.259C161.656 146.307 162.665 147.152 163.821 147.252Z" fill="#00160A"/>
<path fill-rule="evenodd" clip-rule="evenodd" d="M145.175 41.3419C154.394 40.1314 158.877 28.2946 167.872 25.9379C162.37 31.0168 156.869 36.0957 151.368 41.1746C158.484 40.3091 165.866 41.7904 172.097 45.3345C164.753 42.4425 156.675 42.1927 148.785 41.9798C140.2 41.7477 131.614 41.5156 123.028 41.284C121.254 41.2359 119.382 41.2104 117.829 42.0686C116.275 42.9268 115.245 45.0023 116.14 46.5356C149.647 42.7855 184.034 47.1588 215.536 59.1772C216.862 59.6825 218.225 60.2296 219.216 61.2453C220.364 62.4219 220.862 64.0711 221.297 65.6569C230.454 99.0747 228.607 135.413 216.107 167.729C231.101 169.917 246.094 172.106 261.088 174.294C264.311 174.764 266.159 178.76 265.138 181.853C264.117 184.946 261.012 186.978 257.824 187.642C254.634 188.307 251.333 187.844 248.108 187.381C184.147 178.202 118.804 169.846 55.2417 181.472C50.5578 182.329 45.7429 183.294 41.0771 182.344C36.4114 181.393 31.8801 177.976 31.2486 173.256C31.1696 172.665 31.1642 172.021 31.4954 171.526C31.8585 170.983 32.5292 170.753 33.1533 170.562C44.6781 167.03 56.6111 164.831 68.6379 164.026C58.7249 132.127 56.8025 97.7774 63.0948 64.9715C63.4064 63.3478 63.7724 61.6526 64.8386 60.3891C65.9794 59.0373 67.7346 58.3985 69.4102 57.8322C83.748 52.9859 98.4792 49.3074 113.411 46.8448C114.803 42.9601 118.863 40.5353 122.939 39.9013C127.016 39.2684 131.163 40.105 135.204 40.9386C130.666 34.3156 125.241 28.3015 119.12 23.1078C118.266 22.384 119.285 20.8497 120.403 20.8939C121.522 20.938 122.381 21.858 123.107 22.7098C127.873 28.3029 132.638 33.8961 137.404 39.4887C133.843 35.8533 130.282 32.218 126.721 28.5821C131.086 35.1733 137.338 42.3713 145.175 41.3419ZM218.619 62.2443C217.609 61.0353 216.071 60.4259 214.594 59.8788C166.727 42.1402 112.093 41.3694 65.0658 61.2301C60.0522 93.3168 61.2008 126.355 68.4308 158.017C69.002 160.519 70.2953 163.582 72.8615 163.547C111.76 163.017 150.65 164.758 189.514 166.498C196.766 166.823 204.018 167.147 211.262 167.604C214.293 167.795 216.134 164.391 217.107 161.513C227.477 130.836 228.557 97.0826 220.169 65.8046C219.83 64.5441 219.456 63.2458 218.619 62.2443ZM32.7314 173.1C33.0096 177.292 36.9379 180.495 41.0398 181.4C45.1418 182.304 49.3998 181.446 53.5288 180.673C118.314 168.537 184.985 177.38 250.253 186.57C254.034 187.102 258.234 187.541 261.346 185.329C264.457 183.117 264.63 177.152 260.929 176.211C220.473 165.928 178.104 167.665 136.406 165.73C125.094 165.205 113.792 164.405 102.469 164.201C83.1734 163.853 63.8465 165.24 44.7978 168.341C40.4564 169.047 35.8412 169.988 32.7314 173.1ZM61.4153 84.1953C60.8976 93.6701 60.6061 103.158 60.5419 112.646C60.5267 114.826 60.5272 117.031 61.0458 119.148C61.3893 107.5 61.7332 95.8442 61.4153 84.1953ZM66.7419 154.788C66.267 152.221 65.792 149.654 65.3175 147.086C65.1487 146.173 64.9672 145.228 64.4358 144.466C64.8234 147.978 65.5982 151.446 66.7419 154.788ZM121.11 23.5631C121.12 23.017 121.129 22.4709 121.138 21.9248C120.834 21.8001 120.495 21.7609 120.171 21.8119C119.855 22.4876 120.324 23.4002 121.057 23.5371L121.11 23.5631Z" fill="#00160A"/>
<path fill-rule="evenodd" clip-rule="evenodd" d="M191.858 151.121C193.554 149.617 195.25 148.114 196.946 146.61C197.317 146.281 198.058 146.049 198.168 146.533C196.349 148.356 194.443 150.092 192.46 151.734C192.259 151.53 192.058 151.325 191.858 151.121Z" fill="#00160A"/>
<path fill-rule="evenodd" clip-rule="evenodd" d="M88.5437 134.176C88.7184 134.21 88.8935 134.245 89.0682 134.28C88.4725 134.86 87.7213 135.279 86.9152 135.481C87.3366 134.928 87.9048 134.488 88.5456 134.219L88.5437 134.176Z" fill="#00160A"/>
<path fill-rule="evenodd" clip-rule="evenodd" d="M95.022 149.895C94.6123 149.753 94.9474 149.137 95.309 148.899C96.096 148.379 96.8826 147.859 97.6696 147.34C98.0175 147.11 98.5734 146.923 98.7741 147.289C97.8045 148.279 96.6893 149.126 95.4749 149.794C95.335 149.871 95.1726 149.947 95.022 149.895Z" fill="#00160A"/>
<path fill-rule="evenodd" clip-rule="evenodd" d="M197.356 141.224C197.734 140.88 198.468 140.611 198.628 141.096C195.226 144.3 191.801 147.481 188.353 150.636C188.07 150.632 187.897 150.284 187.963 150.008C188.029 149.734 188.248 149.526 188.457 149.336C191.423 146.632 194.39 143.928 197.356 141.224Z" fill="#00160A"/>
<path fill-rule="evenodd" clip-rule="evenodd" d="M99.9159 142.947C97.0661 145.009 94.1663 147.003 91.2198 148.925C91.0579 149.03 90.8621 149.14 90.6826 149.069C90.2714 148.906 90.6217 148.291 90.9912 148.048C93.4563 146.423 95.9214 144.797 98.3865 143.171C98.8522 142.864 99.5072 142.567 99.9159 142.947Z" fill="#00160A"/>
<path fill-rule="evenodd" clip-rule="evenodd" d="M99.9522 64.5136C104.159 65.4699 108.535 65.1873 112.842 64.9444C136.529 63.6088 160.292 63.6221 183.977 64.9857C184.908 65.0391 186 65.1922 186.441 66.0136C185.942 66.0587 185.433 65.9847 184.968 65.7997C193.584 83.6967 193.426 105.574 184.554 123.346C183.653 125.15 182.642 127.023 182.718 129.038C181.107 128.367 179.313 128.342 177.569 128.323C152.799 128.061 128.034 127.265 103.299 125.938C102.516 125.896 101.699 125.843 101.028 125.439C100.088 124.873 99.6514 123.761 99.2957 122.722C94.4596 108.588 92.9057 93.3418 94.7918 78.5227C95.4302 73.5076 96.5813 68.2815 99.9522 64.5136ZM109.866 116.857C130.328 121.343 151.717 123.56 172.171 119.04C173.412 118.766 174.687 118.449 175.699 117.68C177.255 116.498 177.897 114.487 178.341 112.584C180.972 101.3 179.669 89.517 178.352 78.0055C178.066 75.5065 175.105 74.4069 172.641 73.9011C151.864 69.6342 130.219 69.6391 109.444 73.9153C108.162 74.1793 106.837 74.4805 105.8 75.2798C104.764 76.0796 104.106 77.5251 104.614 78.7317C104.6 77.5026 105.338 76.2955 106.438 75.7484C101.719 87.7438 101.167 101.334 104.898 113.673C105.496 115.654 107.846 116.414 109.866 116.857ZM189.043 106.732C191.17 93.3167 189.412 79.3097 184.038 66.8365C182.015 68.8344 179.884 71.0356 179.452 73.8461C178.775 78.2523 182.5 82.8243 180.773 86.9342C180.469 85.4018 180.164 83.8695 179.859 82.3366C181.866 92.7064 181.727 103.486 179.453 113.801C179.196 114.97 178.844 116.237 177.865 116.926C176.991 117.54 177.514 118.904 178.108 119.791C179.408 121.738 180.709 123.685 182.009 125.632C185.509 118.501 187.837 110.796 188.872 102.92C188.929 104.19 188.987 105.461 189.043 106.732ZM107.821 72.904C129.757 66.7913 153.214 68.5955 175.436 73.5655C175.993 73.6901 176.619 73.8059 177.102 73.5007C177.332 73.3545 177.499 73.1293 177.66 72.9085C179.299 70.6602 180.94 68.412 182.58 66.1633C155.561 64.3895 128.41 64.6383 101.429 66.9061C101.939 68.4453 102.473 70.0258 103.519 71.2652C104.565 72.5046 106.259 73.3393 107.821 72.904ZM106.007 116.751C104.699 118.22 103.611 119.884 102.789 121.671C102.508 122.281 102.256 122.985 102.508 123.608C102.883 124.539 104.096 124.726 105.099 124.771C129.765 125.89 154.443 126.74 179.127 127.321C179.421 127.328 179.765 127.31 179.933 127.069C180.075 126.864 180.024 126.587 179.966 126.344C179.56 124.63 179.127 122.857 178.043 121.468C176.959 120.08 175.03 119.186 173.397 119.845C161.061 124.822 147.2 123.633 133.998 122.014C124.563 120.857 115.103 119.512 106.007 116.751ZM103.814 113.957C98.9355 101.982 101.226 88.4125 103.985 75.7803C104.112 75.1999 104.24 74.5973 104.111 74.0178C104 73.5188 103.708 73.0821 103.423 72.6587C102.16 70.7868 100.897 68.9149 99.6337 67.043C93.5818 84.8395 93.9754 104.753 100.725 122.296C102.789 119.941 104.995 116.857 103.814 113.957ZM136.504 70.0626C132.056 69.9384 127.597 70.1421 123.178 70.672C122.901 70.7054 122.529 70.9404 122.702 71.1597C127.428 70.8845 132.154 70.6092 136.879 70.3339C136.934 70.1622 136.684 70.0675 136.504 70.0626ZM148.758 122.647C153.079 123.047 157.452 122.874 161.728 122.135C161.93 122.1 162.179 122.019 162.205 121.814C157.722 122.092 153.24 122.369 148.758 122.647ZM164.287 121.832C164.737 121.921 165.228 121.761 165.54 121.423C164.921 121.318 164.271 121.406 163.703 121.673C163.69 121.921 164.034 122.097 164.228 121.944M166.443 121.529C166.625 121.667 166.806 121.287 166.648 121.123C166.465 121.073 166.26 121.105 166.101 121.209C166.062 121.385 166.253 121.567 166.426 121.519L166.443 121.529Z" fill="#00160A"/>
<path fill-rule="evenodd" clip-rule="evenodd" d="M91.0436 150.755C87.3057 149.37 84.1846 146.088 83.5408 142.153C82.8971 138.218 85.0997 133.844 88.8499 132.491C90.6123 131.855 92.5475 131.883 94.4047 132.13C95.1765 132.234 95.9478 132.374 96.6799 132.639C99.225 133.56 101.064 135.964 101.726 138.589C102.387 141.213 101.985 144.019 101.046 146.558C100.623 147.703 100.076 148.833 99.2088 149.692C97.1495 151.735 93.7629 151.764 91.0436 150.755ZM89.5589 149.07C90.1688 149.548 91.0137 150.042 91.6565 149.609C94.0445 148 96.4331 146.391 98.8212 144.782C99.227 144.509 99.9782 144.376 100.028 144.863C97.5508 146.572 95.073 148.281 92.5956 149.99C94.4538 151.25 97.1564 150.493 98.648 148.815C100.139 147.137 100.647 144.804 100.799 142.564C100.947 140.37 100.787 138.087 99.7937 136.126C99.5145 135.575 99.0464 134.989 98.4316 135.042C98.1431 135.067 97.8889 135.233 97.6485 135.394C93.5961 138.111 89.5437 140.828 85.4912 143.544C85.2596 143.699 85.0094 143.881 84.9535 144.154C84.897 144.427 85.1973 144.75 85.4338 144.603C89.791 141.569 94.203 138.615 98.6676 135.741C99.0827 135.943 98.6965 136.562 98.3084 136.812C94.2997 139.399 90.3513 142.08 86.4682 144.852C86.0673 145.138 85.6188 145.632 85.8818 146.048C86.3121 145.825 86.7169 145.555 87.1207 145.286C90.811 142.826 94.5014 140.366 98.1912 137.907C98.7338 137.545 99.6803 137.314 99.8535 137.942C95.2776 140.668 90.841 143.627 86.5663 146.804C86.6566 147.059 86.9196 147.241 87.1894 147.235C90.9455 144.702 94.7329 142.215 98.5498 139.774C99.1553 139.387 99.9654 139.003 100.539 139.437C96.1436 142.095 91.8547 144.93 87.6855 147.931C87.7679 148.165 88.0133 148.33 88.2606 148.318C91.9636 145.564 95.8443 143.049 99.8697 140.793C100.072 141.302 99.5091 141.765 99.0302 142.031C95.7849 143.829 92.6697 145.863 89.7159 148.109C89.4823 148.286 89.2218 148.56 89.339 148.829C89.3827 148.93 89.4725 149.002 89.5589 149.07ZM84.5359 139.871C87.4912 137.69 90.551 135.651 93.7021 133.764C94.0519 133.554 94.5862 133.385 94.7972 133.734C91.6584 135.862 88.5196 137.99 85.3808 140.117C84.8809 140.456 84.3122 140.99 84.5271 141.555C88.0035 139.225 91.4803 136.896 94.9567 134.566C95.4106 134.262 96.1314 134.008 96.4076 134.479C92.784 136.889 89.1604 139.3 85.5374 141.711C85.0555 142.031 84.507 142.563 84.7528 143.087C89.0015 140.313 93.2506 137.54 97.4993 134.766C97.6132 134.692 97.7353 134.608 97.7766 134.478C97.8713 134.185 97.516 133.961 97.226 133.857C96.5283 133.608 95.8311 133.359 95.1333 133.11C94.7835 132.985 94.4228 132.858 94.0519 132.874C93.523 132.896 93.0534 133.202 92.6138 133.497C90.2286 135.098 87.844 136.7 85.4593 138.301C85.3018 138.142 85.0545 138.08 84.8406 138.145C84.6208 138.691 84.5163 139.282 84.5359 139.871ZM86.6865 135.712C85.8327 136.116 85.164 136.895 84.8931 137.8C87.3734 136.183 89.8528 134.566 92.3326 132.948C90.6344 132.972 88.9431 133.394 87.4333 134.173C86.8381 134.48 86.2061 135.245 86.6865 135.712Z" fill="#00160A"/>
<path fill-rule="evenodd" clip-rule="evenodd" d="M189.239 152.543C185.19 151.259 181.763 147.831 180.971 143.657C180.178 139.484 182.365 134.789 186.275 133.129C188.526 132.174 191.108 132.235 193.474 132.856C195.284 133.332 197.059 134.159 198.306 135.555C200.481 137.988 200.64 141.609 200.198 144.842C199.864 147.283 199.158 149.851 197.288 151.455C195.141 153.297 191.935 153.397 189.239 152.543ZM197.874 143.35C198.257 143.035 199.005 142.833 199.098 143.321C196.055 146.022 193.066 148.784 190.132 151.603C192.741 152.837 196.166 151.979 197.884 149.661C197.371 149.263 196.693 149.861 196.302 150.38C195.912 150.899 195.133 151.422 194.706 150.932C195.331 150.087 196.132 149.372 197.041 148.845C197.401 148.637 197.784 148.453 198.071 148.153C198.409 147.801 198.581 147.325 198.721 146.858C199.493 144.28 199.555 141.492 198.898 138.882C195.02 142.34 191.143 145.798 187.265 149.256C187.041 149.457 186.791 149.668 186.491 149.684C186.19 149.7 185.867 149.401 185.983 149.123C189.702 145.932 193.42 142.741 197.138 139.55C197.659 139.103 198.204 138.62 198.402 137.963C198.6 137.306 198.272 136.442 197.594 136.336C197.077 136.254 196.606 136.618 196.21 136.96C192.346 140.291 188.482 143.622 184.617 146.953C184.191 147.32 183.738 147.952 184.113 148.372C188.216 144.852 192.32 141.333 196.424 137.815C196.907 137.401 197.628 136.977 198.116 137.385C193.807 141.105 189.498 144.825 185.189 148.546C185.011 148.7 184.815 148.902 184.859 149.134C184.894 149.31 185.056 149.427 185.208 149.524C186.185 150.148 187.214 150.693 188.28 151.151C188.627 151.3 189.076 151.422 189.341 151.154C192.049 148.408 194.899 145.803 197.874 143.35ZM182.498 141.126C182.196 141.368 181.87 141.794 182.121 142.088C185.231 139.684 188.341 137.28 191.452 134.875C191.87 134.552 192.439 134.216 192.888 134.496C189.553 137.135 186.218 139.774 182.883 142.412C182.341 142.841 181.739 143.525 182.078 144.127C186.169 140.646 190.388 137.314 194.723 134.141C193.594 133.765 192.421 133.521 191.236 133.413C190.088 133.309 188.898 133.34 187.83 133.774C186.761 134.207 185.83 135.102 185.595 136.231C186.735 135.143 188.164 134.361 189.696 133.988C187.483 135.614 185.27 137.241 183.058 138.867C182.428 139.33 181.728 140.133 182.169 140.777C184.823 138.117 187.887 135.865 191.218 134.125C188.311 136.459 185.404 138.792 182.498 141.126ZM182.284 144.816C182.362 145.099 182.44 145.382 182.517 145.665C186.975 142.055 191.434 138.446 195.892 134.837C195.382 134.399 194.613 134.826 194.091 135.249C190.155 138.438 186.22 141.627 182.284 144.816ZM183.738 145.69C183.319 146.037 182.914 146.751 183.385 147.024C187.844 143.247 192.304 139.469 196.763 135.692C196.431 135.336 195.846 135.641 195.471 135.952C191.56 139.198 187.649 142.444 183.738 145.69ZM183.737 136.325C184.651 135.981 185.45 135.341 185.985 134.524C184.932 134.447 183.893 135.28 183.737 136.325Z" fill="#00160A"/>
<path fill-rule="evenodd" clip-rule="evenodd" d="M127.526 89.3188C127.921 88.6913 130.554 87.8409 132.317 89.4076C134.08 90.9748 127.793 92.3104 132.333 93.5915C136.872 94.8732 144.844 94.9767 148.697 94.0317C152.55 93.0866 148.182 90.0916 148.926 89.522C149.669 88.9523 153.584 87.0745 155.252 89.522C156.919 91.9694 161.369 95.0091 154.152 96.9536C146.934 98.8986 133.907 98.8569 127.526 97.0272C121.145 95.1975 127.132 89.9464 127.526 89.3188Z" fill="#00160A"/>
<path fill-rule="evenodd" clip-rule="evenodd" d="M138.421 80.5182C140.507 79.3391 142.35 79.7861 143.788 80.5182C145.227 81.2508 143.559 84.5883 143.559 84.5883C143.559 84.5883 148.299 83.5034 148.167 84.3739C148.034 85.2448 144.648 90.8688 141.261 90.9439C137.874 91.019 134.762 85.3434 134.323 84.5883C133.885 83.8332 138.55 84.5883 138.55 84.5883C138.55 84.5883 136.335 81.6978 138.421 80.5182Z" fill="#00160A"/>
</svg>
