<svg width="311" height="227" viewBox="0 0 311 227" fill="none" xmlns="http://www.w3.org/2000/svg">
<path fill-rule="evenodd" clip-rule="evenodd" d="M215.464 2.58492C248.633 -4.83948 279.362 3.96958 295.878 29.1314C312.394 54.2926 308.074 94.2194 304.496 111.843C300.918 129.467 291.842 145.609 280.578 159.623C259.656 185.652 231.383 205.571 199.775 216.323C168.168 227.075 133.85 229.28 100.912 223.84C82.4341 220.789 24.6353 205.84 12.1585 160.73C-0.318114 115.619 -8.2143 77.0634 18.8042 61.4019C45.8225 45.74 64.5374 57.5199 77.9127 63.3124C140.402 90.3749 182.296 10.0098 215.464 2.58492Z" fill="#64FCD9"/>
<path fill-rule="evenodd" clip-rule="evenodd" d="M262.17 44.8385C267.491 44.4273 273.226 44.6931 277.562 47.8042C281.898 50.9153 283.868 57.7471 280.307 61.7222C284.332 60.1484 289.063 62.8175 291.079 66.6404C293.096 70.4629 292.99 75.0429 292.384 79.3223C290.881 89.9195 286.561 100.104 279.986 108.55C279.684 109.44 279.382 110.331 279.079 111.221C286.851 113.224 317.2 125.01 309 154.065C300.8 183.121 264.989 194.179 261.323 197.657C254.934 203.718 245.182 204.133 236.38 203.853C214.737 203.166 193.16 200.416 172.038 195.651C170.242 195.246 167.967 194.999 166.932 196.522C159.439 207.538 143.77 208.523 130.482 207.564C113.412 206.332 96.4405 203.743 79.7804 199.83C70.3305 197.61 60.2951 194.52 54.408 186.801C47.5448 177.803 48.3374 165.327 49.4511 154.065C44.94 156.574 37.458 157.932 27.0058 158.141C20.8514 156.886 17.0127 154.654 15.4893 151.448C8.52261 136.785 6.13364 117.89 14.809 103.437C15.8512 101.701 17.0536 99.9899 18.7508 98.8853C20.5497 97.714 22.7428 97.329 24.8815 97.1393C33.3159 96.3925 41.9697 98.3611 49.2507 102.684C49.1859 79.0185 49.1207 55.3535 49.0559 31.6884C49.0523 30.3331 49.0708 28.8949 49.7935 27.7483C50.8384 26.0902 52.9791 25.5762 54.906 25.2164C72.4342 21.9444 90.1607 19.7374 107.956 18.6123C113.77 18.2448 121.727 19.8628 121.754 25.6888C121.855 48 121.956 70.3113 122.058 92.6225C122.082 97.9329 122.424 97.4889 124.911 95.95C123.347 96.1124 123.696 93.4598 124.881 92.4262C129.306 88.5693 135.754 88.4274 141.623 88.4871C154.752 88.6217 167.881 88.7559 181.01 88.8905C193.73 89.0205 208.986 90.6339 214.745 101.977C214.577 98.6057 217.633 95.4247 221.008 95.4556C224.689 95.4895 227.767 92.2961 228.842 88.7754C229.916 85.2546 229.442 81.4718 228.958 77.8225C223.023 72.0757 221.47 62.3066 225.329 55.0019C229.189 47.6973 238.134 43.4749 246.226 45.1392C251.454 46.2139 256.85 45.2492 262.17 44.8385ZM109.829 154.281C109.654 158.979 109.469 163.739 108.087 168.232L109.829 154.281ZM104.39 96.6315C105.611 96.9893 107.124 98.0727 106.482 99.1721C111.79 99.7025 110.205 99.4569 110.444 93.2018C110.686 86.8541 110.706 79.8358 106.551 75.0316C102.874 70.7805 96.8769 69.4509 91.2766 68.9729C84.7403 68.4147 78.1331 68.683 71.6632 69.769C68.5064 70.2989 65.0869 71.2117 63.255 73.8366C62.2297 75.3061 61.8524 77.1204 61.5512 78.8865C60.3665 85.8329 59.9964 92.918 60.4513 99.9503C74.0604 93.6186 89.9834 92.4159 104.39 96.6315ZM222.498 143.267C222.83 142.931 223.334 142.849 223.803 142.785C225.673 142.528 227.543 142.271 229.413 142.013C225.121 140.075 222.52 135.47 221.743 130.825C220.965 126.18 221.724 121.431 222.491 116.784C219.745 119.839 219.943 124.449 220.303 128.541C221.09 137.497 222.165 143.603 222.498 143.267ZM187.186 187.381C187.554 186.184 188.806 185.542 189.723 184.69C191.373 183.156 191.986 180.838 192.525 178.65C194.385 171.089 196.257 163.437 196.233 155.652C196.228 154.002 196.144 152.308 196.69 150.751C197.237 149.195 198.605 147.787 200.255 147.779C201.994 147.771 202.409 145.358 202.254 143.626C201.718 137.653 201.181 131.68 200.645 125.707C200.474 123.799 200.299 121.873 199.72 120.047C197.58 113.297 189.331 109.215 182.666 111.609C181.85 111.902 181.632 112.932 181.54 113.794C180.514 123.349 179.488 132.903 178.462 142.457C178.28 144.154 180.472 145.238 182.126 144.817C183.781 144.397 185.045 143.104 186.475 142.173C187.906 141.241 189.923 140.705 191.236 141.795C192.721 143.028 194.92 141.659 196.209 140.224C197.499 138.788 199.179 137.058 201.013 137.657C198.861 139.715 196.71 141.774 194.558 143.832C193.844 144.515 193.215 145.878 194.117 146.281C196.589 145.404 198.824 143.867 200.528 141.873C201.316 141.848 201.353 143.085 200.914 143.739C199.257 146.205 195.358 146.754 194.354 149.549C192.011 156.074 184.703 160.408 177.854 159.335C176.448 159.115 175.748 160.963 175.579 162.375C174.905 168.005 174.23 173.635 173.556 179.265C173.401 180.56 173.257 181.93 173.79 183.121C174.68 185.107 177.059 185.859 179.169 186.393C181.958 187.1 184.779 187.81 187.63 188.118C188.83 188.249 188.825 187.809 187.186 187.381ZM76.0772 177.058C80.0621 178.393 84.2798 178.845 88.459 179.289C90.2312 179.478 92.1185 179.646 93.7082 178.841C95.5796 177.893 96.5767 175.839 97.3816 173.901C101.87 163.098 104.433 151.498 104.913 139.808C104.981 138.148 102.855 137.414 101.196 137.303C87.9553 136.414 75.2919 142.235 63.2998 147.919C62.7251 148.191 62.1099 148.502 61.8262 149.071C61.6144 149.496 61.6252 149.992 61.6412 150.466C61.856 156.924 62.1269 163.613 65.0149 169.393C65.7951 170.954 66.7871 172.456 68.1918 173.491C69.0424 174.118 70.0164 174.554 70.9822 174.983C72.6577 175.73 74.3374 176.476 76.0772 177.058ZM161.735 153.159C163.5 143.667 164.744 134.078 165.459 124.451C165.704 121.156 165.883 117.808 165.171 114.583C164.459 111.358 162.742 108.223 159.933 106.484C158.203 105.413 156.177 104.933 154.173 104.576C150.517 103.923 146.797 103.627 143.084 103.693C139.807 103.751 136.368 104.151 133.693 106.044C132.809 106.67 132.005 107.49 131.682 108.524C131.359 109.559 131.631 110.83 132.528 111.437C134.796 112.973 135.721 115.847 136.146 118.553C136.571 121.259 136.673 124.092 137.906 126.538C138.542 127.8 139.454 128.9 140.41 129.94C145.595 135.577 152.358 139.748 159.722 141.849C161.017 142.219 162.664 143.019 162.391 144.337C166.464 146.906 161.667 153.523 161.735 153.159ZM150.51 181.155C152.009 180.243 153.026 178.727 153.922 177.218C157.719 170.813 160.21 163.638 161.196 156.258C147.535 156.196 133.954 151.042 123.692 142.022C123.341 143.432 123.408 144.907 123.456 146.359C123.756 155.423 123.218 164.515 121.852 173.48C121.526 175.618 122.803 177.755 124.558 179.017C126.313 180.279 128.476 180.821 130.598 181.23C135.384 182.152 140.275 182.53 145.145 182.354C146.997 182.287 148.926 182.117 150.51 181.155ZM236.719 102.971C235.923 101.052 235.325 98.8879 233.673 97.6281C232.021 96.3679 228.91 96.9846 228.813 99.0601C230.448 98.7589 231.698 100.777 231.419 102.416C231.141 104.055 229.949 105.358 229.002 106.725C227.694 108.613 226.8 110.752 225.915 112.871C223.809 117.915 222.989 123.489 223.554 128.926C223.886 132.126 224.764 135.414 226.928 137.795C229.092 140.177 232.802 141.368 235.653 139.877C238.103 138.597 239.325 135.775 239.886 133.068C240.448 130.362 240.548 127.53 241.609 124.978C243.567 120.27 248.395 117.426 253.171 115.64C245.992 114.665 239.496 109.663 236.719 102.971ZM216.866 108.063C217.185 109.297 217.627 110.5 218.183 111.647C218.517 110.03 219.053 108.456 219.775 106.972C219.045 106.888 218.31 106.849 217.575 106.853C217.396 106.854 217.208 106.861 217.057 106.956C216.718 107.172 216.765 107.674 216.866 108.063ZM130.329 106.793C129.877 107.157 129.612 107.94 130.089 108.27C130.82 107.538 131.551 106.806 132.282 106.075C132.131 105.887 131.911 105.757 131.674 105.714C131.384 106.216 130.781 106.429 130.329 106.793Z" fill="white"/>
<path d="M256.885 101.55C258.446 101.55 259.712 100.285 259.712 98.7234C259.712 97.1619 258.446 95.8965 256.885 95.8965C255.323 95.8965 254.058 97.1619 254.058 98.7234C254.058 100.285 255.323 101.55 256.885 101.55Z" fill="#FFB61D"/>
<path d="M240.695 98.7234C241.546 98.7234 242.236 98.0331 242.236 97.1815C242.236 96.3298 241.546 95.6395 240.695 95.6395C239.843 95.6395 239.153 96.3298 239.153 97.1815C239.153 98.0331 239.843 98.7234 240.695 98.7234Z" fill="#FFB61D"/>
<path fill-rule="evenodd" clip-rule="evenodd" d="M94.6868 58.1592C99.3126 58.1885 103.938 58.2178 108.564 58.2471C108.781 58.2487 109.013 58.2548 109.188 58.3828C109.544 58.645 109.402 59.2586 109.035 59.5054C108.668 59.7521 108.191 59.7418 107.749 59.7264C103.678 59.585 99.5948 59.7968 95.5606 60.3575C94.9469 60.4429 94.2998 60.5323 93.7257 60.2995C93.1521 60.0661 92.7131 59.3789 92.9773 58.8187C93.2533 58.2333 94.0397 58.1551 94.6868 58.1592ZM79.2182 57.7049C79.5111 57.9968 79.3708 58.5334 79.0449 58.7889C78.7196 59.0443 78.2832 59.0952 77.8715 59.1368C73.7705 59.5521 69.6695 59.9674 65.569 60.3827C65.0838 60.4321 64.5821 60.4793 64.1185 60.3298C63.6544 60.1807 63.2345 59.7793 63.2237 59.2921C63.2124 58.7894 63.639 58.3623 64.116 58.2019C64.5924 58.0416 65.11 58.0863 65.6116 58.1258C69.8134 58.4563 74.0563 58.2656 78.2113 57.5599C78.5597 57.5003 78.9678 57.4556 79.2182 57.7049ZM78.6435 49.8328C78.9499 50.08 78.8409 50.6099 78.5335 50.8561C78.2262 51.1023 77.8078 51.1429 77.4151 51.1738L64.245 52.213C63.7521 52.2516 63.2412 52.2886 62.7765 52.1205C62.3114 51.9519 61.9033 51.5187 61.93 51.0247C61.9572 50.5246 62.4193 50.1366 62.906 50.0184C63.3928 49.9001 63.9027 49.9885 64.3981 50.062C68.8682 50.7225 73.4133 50.1201 77.9132 49.711C78.1655 49.6879 78.4462 49.6735 78.6435 49.8328ZM97.0367 47.2233C99.7845 47.5744 102.57 47.6278 105.33 47.3827C106.427 47.285 107.753 47.2393 108.376 48.147C107.636 48.7452 106.62 48.83 105.671 48.8902C102.523 49.0881 99.3769 49.2865 96.2303 49.4848C95.5123 49.5301 94.6174 49.4756 94.3219 48.8203C94.0567 48.2318 94.5234 47.524 95.1232 47.2861C95.723 47.0476 96.3963 47.1416 97.0367 47.2233ZM73.2966 43.8594C73.2997 44.3343 72.704 44.5394 72.2337 44.6087L65.3181 45.6223C64.8242 45.6948 64.3143 45.7662 63.8322 45.6372C63.3501 45.5087 62.8994 45.1253 62.8546 44.6283C62.7991 44.0202 63.3702 43.5068 63.9664 43.3742C64.5626 43.2416 65.1804 43.3803 65.7864 43.4585C67.8752 43.7273 69.9825 43.2683 72.0877 43.1958C72.6027 43.1783 73.2925 43.3438 73.2966 43.8594ZM106.667 42.2038C107.202 42.2635 107.751 42.5826 107.894 43.1018C106.944 43.8208 105.687 43.9514 104.501 44.0567C102.469 44.2366 100.438 44.4165 98.4065 44.5969C97.6905 44.6601 96.975 44.7239 96.2596 44.7871C95.7364 44.8334 95.1921 44.877 94.7002 44.6915C94.2088 44.5059 93.7889 44.0182 93.8624 43.498C93.9775 42.6782 95.0538 42.4655 95.8813 42.4829C98.9523 42.5492 102.061 43.0128 105.07 42.3945C105.598 42.2861 106.132 42.1437 106.667 42.2038ZM109.364 34.449C94.3116 36.4787 78.8784 35.4276 64.0327 38.6389C63.1522 38.8291 61.9233 38.8388 61.6956 37.9671C61.7162 36.9402 63.0443 36.5696 64.0687 36.4966C78.5109 35.4666 92.9527 34.4366 107.394 33.4066C108.242 33.346 109.431 33.6024 109.364 34.449Z" fill="#E7EAEE"/>
<path fill-rule="evenodd" clip-rule="evenodd" d="M56.414 190.483C56.5713 192.304 54.061 192.921 52.2328 192.928C42.7329 192.966 33.2423 194.728 24.3624 198.103C23.007 198.618 21.5565 199.267 20.8971 200.558C20.0234 202.268 20.9768 204.456 22.5218 205.595C24.0673 206.734 26.0395 207.082 27.9345 207.39C77.1874 215.41 127.173 218.926 177.064 217.879L177.866 217.861C183.62 217.728 189.492 217.419 194.763 215.14C190.4 212.082 186.036 209.024 181.672 205.965C189.226 204.456 197.021 205.531 204.687 206.288C222.232 208.02 239.946 208.055 257.498 206.393C256.262 208.368 253.545 208.642 251.217 208.691C229.138 209.167 207.032 208.383 185.041 206.344C187.911 208.231 190.78 210.12 193.649 212.008C194.688 212.692 195.839 213.56 195.898 214.804C195.989 216.672 193.693 217.604 191.848 217.909C185.725 218.921 179.495 219.082 173.289 219.173C124.822 219.881 76.2941 216.413 28.4202 208.819C26.0842 208.449 23.6639 208.035 21.7159 206.694C19.7679 205.352 18.4402 202.8 19.2586 200.581C20.0727 198.374 22.5501 197.338 24.7864 196.607C35.0202 193.264 45.6719 191.202 56.414 190.483ZM121.754 25.6888C121.855 48 121.956 70.3113 122.058 92.6225C122.082 97.9329 123.128 104.653 128.264 106.005C135.36 102.729 143.358 101.435 151.126 102.306C155.572 102.805 160.189 104.149 163.199 107.46C167.328 112 167.334 118.839 166.891 124.96C165.993 137.368 164.223 149.714 161.599 161.874C163.684 161.743 165.81 162.579 167.246 164.096C165.034 165.107 162.399 165.15 160.155 164.209C161.696 172.562 154.892 180.802 146.742 183.195C138.593 185.588 129.75 183.331 122.087 179.669C121.368 182.468 125.113 184.112 127.971 184.535C135.227 185.607 142.483 186.68 149.739 187.752C140.778 188.021 131.788 187.288 122.989 185.57C121.368 187.864 125.038 190.181 127.811 190.63C135.165 191.82 142.52 193.01 149.875 194.2C141.568 194.145 133.264 193.591 125.023 192.543C130.264 197.27 137.418 199.813 144.468 199.452C140.491 200.759 136.073 200.681 132.146 199.232C137.059 205.812 147.111 207.03 154.451 203.35C161.792 199.67 166.585 192.141 168.929 184.272C171.274 176.402 171.502 168.085 171.917 159.884C172.684 144.747 174.15 129.629 176.801 114.705C178.587 104.656 182.974 92.6729 193.082 91.2528C175.074 90.4227 157.049 89.9755 139.023 89.9102C133.545 89.8907 126.741 90.7866 124.911 95.95C123.347 96.1124 123.696 93.4598 124.881 92.4262C129.306 88.5693 135.754 88.4274 141.623 88.4871L181.01 88.8905C193.73 89.0205 208.986 90.6339 214.745 101.977C214.577 98.6057 217.633 95.4247 221.008 95.4556C224.689 95.4895 227.767 92.2961 228.842 88.7754C229.916 85.2546 229.442 81.4718 228.958 77.8225C223.023 72.0757 221.47 62.3066 225.329 55.0019C226.421 52.9357 228.034 48.0093 237.041 44.8385C243.046 42.7245 248.982 42.9569 254.849 45.5355C265.867 43.405 273.437 44.1616 277.562 47.8042C283.749 53.2688 283.868 57.7471 280.307 61.7222C284.332 60.1484 289.063 62.8175 291.079 66.6404C293.096 70.4629 292.99 75.0429 292.384 79.3223C290.881 89.9195 286.561 100.104 279.986 108.55L279.079 111.221C294.985 115.321 307.853 129.38 310.532 145.586C305.244 133.667 298.085 121.043 285.751 116.812C282.968 119.731 280.106 122.778 278.799 126.593C277.492 130.409 278.198 135.23 281.513 137.529C279.431 138.011 277.349 138.494 275.268 138.977C275.961 140.206 276.653 141.434 277.346 142.663C269.481 148.643 268.576 159.953 268.623 169.833C268.671 179.714 268.491 190.856 261.323 197.657C254.934 203.718 245.182 204.133 236.38 203.853C214.737 203.166 193.16 200.416 172.038 195.651C170.242 195.246 167.967 194.999 166.932 196.522C159.439 207.538 143.77 208.523 130.482 207.564C113.412 206.332 96.441 203.743 79.7804 199.83C70.3304 197.61 60.295 194.52 54.4079 186.801C47.5448 177.803 48.3373 165.327 49.4511 154.065C42.6846 157.828 34.663 159.284 27.0057 158.141C35.0772 152.864 38.9912 142.769 39.0647 133.125C39.1382 123.483 35.9197 114.136 32.3383 105.182C24.4482 109.759 20.2968 119.405 20.9146 128.505C21.5319 137.605 26.3602 146.052 32.8384 152.473C24.8522 147.433 19.568 138.354 19.1306 128.921C18.6932 119.487 23.1149 109.958 30.6 104.2C29.404 100.11 23.2331 99.61 19.9987 102.386C16.7645 105.16 15.7495 109.665 14.9176 113.845C13.3803 121.568 11.8367 129.472 12.9536 137.267C14.0706 145.062 18.3765 152.864 25.5918 156.019C22.2201 158.449 17.7287 154.95 15.4893 151.448C6.40788 137.247 6.13362 117.89 14.8091 103.437C15.8512 101.701 17.0536 99.9899 18.7507 98.8853C20.5497 97.714 22.7428 97.329 24.8815 97.1393C33.3158 96.3925 41.9697 98.3611 49.2512 102.684C49.1859 79.0185 49.1212 55.3535 49.0559 31.6884C49.0523 30.3331 49.0708 28.8949 49.7934 27.7483C50.8384 26.0902 52.9791 25.5762 54.906 25.2164C72.4342 21.9444 90.1607 19.7374 107.956 18.6123C113.77 18.2448 121.728 19.8628 121.754 25.6888ZM109.869 20.0381C91.0021 20.9262 72.2034 23.2587 53.6914 27.0081C52.9035 27.1675 52.0693 27.354 51.4968 27.9179C50.7166 28.6863 50.6564 29.9039 50.6461 30.9987C50.4251 54.563 50.5187 78.1299 50.9263 101.691C53.1919 101.126 55.4575 100.561 57.7226 99.9965C56.837 95.1621 55.9478 90.2618 56.3266 85.361C56.7049 80.4603 58.5033 75.4767 62.2024 72.2397C66.2058 68.7364 71.7927 67.7465 77.0995 67.3739C82.2023 67.0156 87.3364 67.0989 92.4253 67.6216C97.6201 68.1556 103.092 69.3095 106.84 72.9459C112.254 78.1993 112.341 86.7097 112.061 94.2477C111.317 114.259 110.573 134.27 109.829 154.281C109.654 158.979 109.469 163.739 108.087 168.232C106.705 172.724 103.961 176.994 99.8091 179.199C95.7353 181.362 90.8608 181.301 86.2776 180.78C81.9021 180.283 77.5688 179.415 73.3388 178.19C70.7694 177.446 68.1985 176.549 66.0146 175.004C58.7891 169.891 57.9348 159.687 57.7591 150.837C54.9846 150.336 52.2724 152.448 51.1267 155.024C49.9816 157.6 50.0319 160.527 50.1034 163.346C50.2807 170.376 50.5546 177.758 54.1438 183.806C59.6813 193.137 71.3121 196.585 81.9319 198.813C100.781 202.768 119.918 205.347 139.142 206.523C130.563 202.154 122.957 194.675 121.147 185.219C120.656 182.65 120.603 180.02 120.552 177.405C119.55 126.275 118.548 75.1457 117.546 24.0158C117.483 20.7823 113.1 19.8859 109.869 20.0381ZM183.007 103.983C182.53 105.148 182.183 106.439 182.5 107.656C182.818 108.873 184.001 109.936 185.241 109.729C190.799 108.804 196.79 111.541 199.728 116.348C202.152 120.315 202.488 125.168 202.761 129.809L205.247 172.081C205.513 176.598 205.644 181.569 202.836 185.118C199.193 189.723 192.353 189.876 186.51 189.304C181.689 188.833 176.617 188.031 172.874 184.955C173.006 186.746 172.484 188.577 171.428 190.028C170.125 191.819 172.229 194.176 174.276 195.023C176.776 196.058 179.495 196.418 182.179 196.766C194.468 198.362 206.766 199.9 219.07 201.381C228.541 202.521 238.163 203.625 247.579 202.095C241.622 200.424 235.922 197.84 230.739 194.463C228.153 192.778 225.652 190.853 223.888 188.319C221.01 184.185 220.403 178.931 219.924 173.915C218.499 159 217.439 144.051 216.744 129.085C216.232 118.046 212.692 107.162 206.613 97.9339C205.526 96.2836 204.196 94.5715 202.274 94.112C194.633 92.2853 185.988 96.7148 183.007 103.983ZM147.969 199.511C148.617 199.621 149.282 199.766 149.817 200.15C150.351 200.533 150.723 201.214 150.559 201.85C150.394 202.487 149.554 202.905 149.023 202.517C148.438 202.089 147.658 202.074 146.96 201.877C146.262 201.679 145.53 201.1 145.656 200.385C145.815 199.479 147.062 199.357 147.969 199.511ZM121.058 199.78C121.862 199.947 122.803 200.52 122.638 201.325C122.494 202.035 121.616 202.271 120.898 202.367C120.093 202.474 119.234 202.574 118.503 202.221C117.773 201.866 117.299 200.868 117.778 200.213C118.101 199.771 118.706 199.654 119.253 199.632C119.858 199.607 120.465 199.657 121.058 199.78ZM169.17 190.836C168.407 191.387 167.883 192.198 167.344 192.97C164.889 196.488 161.777 199.545 158.217 201.938C158.306 202.316 158.872 202.221 159.207 202.026C163.33 199.638 166.272 195.692 169.095 191.855C169.326 191.541 169.516 191.015 169.17 190.836ZM206.031 95.8046C208.231 98.4017 210.447 101.023 212.056 104.022C213.8 107.273 214.78 110.876 215.569 114.48C219.983 134.642 218.805 155.604 221.665 176.044C222.181 179.732 222.864 183.499 224.783 186.691C227.031 190.43 230.762 193.022 234.563 195.164C237.637 196.896 240.846 198.417 244.222 199.443C249.591 201.074 256.041 201.189 260.157 197.374C262.468 195.232 263.683 192.176 264.633 189.172C268.703 176.293 269.15 162.292 265.911 149.18C265.992 157.022 267.011 164.845 266.778 172.684C266.545 180.523 264.936 188.595 260.328 194.941C259.415 196.198 258.357 197.404 256.978 198.118C255.161 199.06 253.002 199.042 250.971 198.794C247.424 198.361 243.956 197.288 240.782 195.645C238.372 194.396 236.142 192.828 233.981 191.184C231.47 189.274 229.004 187.217 227.244 184.598C225.5 182.002 224.527 178.97 223.756 175.939C218.126 153.808 222.152 129.937 215.471 108.1C213.896 102.954 211.161 97.4328 206.031 95.8046ZM71.7048 193.163C84.7028 195.169 97.7013 197.175 110.699 199.182C110.37 200.042 109.182 200.072 108.269 199.95C97.1529 198.465 86.0366 196.98 74.9203 195.495C73.6636 195.327 72.4069 195.159 71.1497 194.991C70.5535 194.911 69.8129 194.695 69.7373 194.099C69.6309 193.257 70.8665 193.034 71.7048 193.163ZM222.491 116.784C219.745 119.839 219.943 124.449 220.303 128.541C221.09 137.497 221.877 146.453 222.664 155.409C222.701 155.828 222.746 156.27 222.992 156.611C223.393 157.169 224.171 157.266 224.857 157.315C234.202 157.973 243.548 158.632 252.893 159.291C252.194 160.395 250.619 160.412 249.316 160.311C240.518 159.632 231.684 159.411 222.864 159.652C222.711 164.175 223.378 168.725 224.822 173.015C225.447 174.874 227.856 175.27 229.817 175.35C237.291 175.652 244.766 175.955 252.241 176.257C252.585 177.032 251.377 177.516 250.53 177.506C242.847 177.417 235.164 177.329 227.48 177.241C226.427 177.229 226.047 178.719 226.443 179.694C227.48 182.242 230.78 182.791 233.525 182.963L250.703 184.039C251.095 184.063 251.177 184.679 250.891 184.948C250.604 185.218 250.168 185.225 249.775 185.217L229.662 184.79C234.863 190.979 242.157 195.377 250.058 197.087C251.76 197.456 253.565 197.698 255.219 197.152C257.198 196.498 258.658 194.818 259.801 193.075C265.86 183.829 265.457 171.934 264.838 160.897L264.136 148.387C264.381 148.05 264.885 147.933 265.253 148.128C265.396 147.515 264.598 147.15 263.979 147.037C250.308 144.526 236.279 142.011 222.598 144.463C222.16 144.284 222.165 143.603 222.498 143.267C222.83 142.931 223.334 142.849 223.803 142.785C225.673 142.528 227.543 142.271 229.413 142.013C225.121 140.075 222.52 135.47 221.743 130.825C220.965 126.18 221.724 121.431 222.491 116.784ZM155.3 192.834C156.518 193.061 157.924 193.433 158.399 194.577C157.044 195.501 155.263 195.406 153.628 195.276C153.178 195.24 152.686 195.185 152.37 194.862C151.811 194.292 152.228 193.242 152.948 192.895C153.667 192.55 154.515 192.688 155.3 192.834ZM62.5622 184.477C76.5665 188.878 91.0787 191.66 105.717 192.75C106.853 192.835 108.379 193.376 108.161 194.494C92.6792 192.743 77.2918 190.155 62.0888 186.746C61.1189 186.528 59.8741 185.837 60.2354 184.911C60.5531 184.097 61.729 184.216 62.5622 184.477ZM113.856 191.269C114.571 191.268 115.261 191.513 115.93 191.767C116.27 191.896 116.644 192.063 116.776 192.402C117.057 193.125 116.06 193.641 115.297 193.779C114.784 193.872 114.27 193.966 113.757 194.059C113.324 194.138 112.858 194.212 112.459 194.026C111.812 193.722 111.643 192.788 112.015 192.177C112.386 191.566 113.141 191.271 113.856 191.269ZM179.801 189.726C185.995 190.904 192.34 190.971 198.646 191.034C199.134 191.038 199.265 191.806 198.917 192.148C198.568 192.489 198.024 192.504 197.536 192.495C191.65 192.379 185.757 191.758 179.888 192.221C179.249 192.271 178.585 192.332 177.986 192.107C177.385 191.882 176.874 191.275 176.988 190.645C177.086 190.101 177.616 189.721 178.158 189.616C178.701 189.51 179.258 189.622 179.801 189.726ZM193.796 92.6158C186.782 93.6633 180.889 99.9056 180.248 106.968C179.649 113.565 177.828 119.979 176.532 126.474C172.37 147.332 173.633 168.949 169.953 189.897C171.297 187.45 171.66 184.602 171.998 181.83L180.921 108.758C181.158 106.814 181.401 104.847 182.099 103.017C184.008 98.0162 188.942 94.8742 193.796 92.6158ZM161.905 187.256C162.287 187.377 162.679 187.536 162.933 187.846C163.188 188.156 163.252 188.656 162.974 188.944C162.764 189.162 162.435 189.201 162.134 189.228C161.148 189.315 160.162 189.402 159.176 189.489C158.644 189.536 158.094 189.581 157.587 189.413C157.08 189.245 156.622 188.806 156.608 188.272C156.583 187.367 157.699 186.912 158.602 186.853C159.715 186.781 160.842 186.918 161.905 187.256ZM182.666 111.609C181.85 111.902 181.632 112.932 181.54 113.794L178.462 142.457C178.28 144.154 180.472 145.238 182.127 144.817C183.781 144.397 185.045 143.104 186.475 142.173C187.906 141.241 189.923 140.705 191.236 141.795C192.721 143.028 194.92 141.659 196.209 140.224C197.499 138.788 199.179 137.058 201.013 137.657C198.861 139.715 196.71 141.774 194.558 143.832C193.844 144.515 193.215 145.878 194.117 146.281C196.589 145.404 198.824 143.867 200.528 141.873C201.316 141.848 201.353 143.085 200.914 143.739C199.257 146.205 195.358 146.754 194.354 149.549C192.011 156.074 184.703 160.408 177.854 159.335C176.449 159.115 175.748 160.963 175.579 162.375C174.905 168.005 174.23 173.635 173.556 179.265C173.401 180.56 173.256 181.93 173.789 183.121C174.68 185.107 177.059 185.859 179.169 186.393C183.133 187.397 187.161 188.408 191.247 188.264C195.332 188.12 199.557 186.659 202.145 183.493C201.428 182.563 199.832 183.756 198.788 183.218C197.768 182.691 198.31 180.938 199.406 180.593C200.502 180.248 201.659 180.796 202.677 181.328C203.316 180.081 203.973 178.746 203.842 177.35C203.71 175.955 202.429 174.575 201.063 174.888C200.165 175.095 199.799 173.539 200.524 172.969C201.247 172.399 202.287 172.584 203.183 172.797C203.233 169.428 203.283 166.06 203.333 162.692C203.343 162.005 203.345 161.283 203.019 160.678C202.693 160.072 201.921 159.648 201.301 159.947C200.457 160.353 199.725 158.916 200.29 158.169C200.855 157.421 201.922 157.325 202.858 157.292C202.93 154.3 202.737 151.303 202.281 148.345C198.755 150.112 198.139 154.773 197.783 158.7C197.101 166.232 195.729 173.701 193.69 180.984C193.233 182.615 192.719 184.284 191.652 185.599C190.584 186.915 188.825 187.809 187.186 187.381C187.554 186.184 188.806 185.542 189.723 184.69C191.373 183.156 191.986 180.838 192.524 178.65C194.385 171.089 196.256 163.437 196.233 155.652L196.23 155.129C196.217 153.647 196.202 152.144 196.691 150.751C197.237 149.195 198.605 147.787 200.255 147.78C201.994 147.771 202.409 145.358 202.254 143.626C201.717 137.653 201.181 131.68 200.645 125.707C200.474 123.799 200.299 121.873 199.72 120.047C197.58 113.297 189.331 109.215 182.666 111.609ZM208.911 184.457C209.728 184.677 210.522 185.517 210.182 186.292C209.858 187.033 208.839 187.074 208.034 186.998C207.641 186.961 207.221 186.913 206.914 186.664C206.375 186.229 206.451 185.304 206.955 184.829C207.461 184.354 208.241 184.278 208.911 184.457ZM110.674 183.629C111.212 183.746 111.772 183.902 112.159 184.294C112.545 184.686 112.673 185.384 112.289 185.777C111.975 186.099 111.469 186.105 111.019 186.089C110.373 186.067 109.727 186.044 109.081 186.021C108.707 186.008 108.307 185.986 108.007 185.763C107.365 185.285 107.646 184.167 108.336 183.762C109.025 183.355 109.892 183.46 110.674 183.629ZM60.8959 177.768C64.5122 179.45 68.4858 180.184 72.4151 180.868C80.3695 182.254 88.3479 183.502 96.3454 184.612C97.4643 184.767 98.7041 184.987 99.3861 185.888C96.2889 186.1 93.1937 185.584 90.1325 185.07C80.0405 183.375 69.9486 181.68 59.8566 179.985C58.7988 179.808 57.4332 179.221 57.6393 178.168C57.8834 176.92 59.743 177.232 60.8959 177.768ZM123.692 142.022C123.341 143.432 123.408 144.907 123.456 146.359C123.756 155.423 123.218 164.515 121.852 173.48C121.526 175.618 122.803 177.755 124.558 179.017C126.313 180.279 128.476 180.821 130.598 181.23C135.384 182.152 140.275 182.53 145.145 182.354C146.997 182.287 148.926 182.117 150.51 181.155C152.01 180.243 153.026 178.727 153.922 177.218C157.719 170.813 160.21 163.638 161.196 156.258C147.534 156.196 133.954 151.042 123.692 142.022ZM159.424 177.96C160.357 178.268 161.29 178.575 162.222 178.883C162.533 178.986 162.866 179.105 163.051 179.375C163.363 179.833 163.06 180.502 162.578 180.773C162.095 181.045 161.51 181.03 160.956 181.008C159.95 180.968 158.837 180.883 158.134 180.161C157.432 179.439 157.673 177.881 158.678 177.816C158.932 177.799 159.182 177.88 159.424 177.96ZM208.318 178.095C208.873 178.183 209.458 178.286 209.886 178.65C210.313 179.014 210.489 179.736 210.095 180.137C209.936 180.298 209.715 180.381 209.502 180.456C208.676 180.743 207.759 180.973 206.943 180.66C206.126 180.347 205.569 179.267 206.083 178.56C206.555 177.909 207.524 177.968 208.318 178.095ZM63.2997 147.919C62.7251 148.191 62.1099 148.502 61.8262 149.071C61.6144 149.496 61.6252 149.992 61.6411 150.466C61.856 156.924 62.1269 163.613 65.0149 169.393C65.7951 170.954 66.7871 172.456 68.1918 173.491C69.0424 174.118 70.0164 174.554 70.9822 174.983C72.6577 175.73 74.3374 176.476 76.0772 177.058C80.0621 178.393 84.2798 178.845 88.459 179.289C90.2311 179.478 92.1185 179.646 93.7082 178.841C95.5796 177.893 96.5767 175.839 97.3816 173.901C101.87 163.098 104.433 151.498 104.913 139.808C104.981 138.148 102.855 137.414 101.196 137.303C87.9553 136.414 75.2919 142.235 63.2997 147.919ZM106.969 139.34C106.63 139.787 106.587 140.384 106.554 140.945C105.761 154.164 102.472 167.229 96.9082 179.247C102.208 176.564 106.157 171.356 107.309 165.528C107.705 163.525 107.786 161.474 107.866 159.433C108.118 152.999 108.369 146.564 108.621 140.129C108.635 139.79 108.637 139.417 108.421 139.155C108.065 138.722 107.309 138.893 106.969 139.34ZM109.165 171.537C109.837 171.574 110.469 171.853 111.123 172.016C111.708 172.161 111.885 172.995 111.558 173.502C111.231 174.009 110.601 174.229 110.004 174.313C109.38 174.401 108.71 174.368 108.173 174.038C107.637 173.708 107.289 173.018 107.503 172.426C107.732 171.793 108.492 171.501 109.165 171.537ZM208.703 169.79C209.333 169.92 209.872 170.309 210.389 170.689C210.67 170.895 210.969 171.126 211.061 171.463C211.179 171.892 210.896 172.354 210.505 172.568C210.115 172.781 209.648 172.797 209.205 172.761C208.574 172.711 207.923 172.555 207.448 172.138C206.972 171.722 206.731 170.991 207.027 170.432C207.328 169.865 208.075 169.66 208.703 169.79ZM59.1088 149.799C58.9371 150.106 58.9715 150.481 59.0116 150.831L59.9455 159.057C60.4528 163.522 61.1169 168.332 64.2372 171.565C64.7574 171.318 64.4639 170.536 64.136 170.063C61.6082 166.415 61.1215 161.778 60.7114 157.359C60.4713 154.769 60.2308 152.179 59.9908 149.589C59.7492 149.334 59.281 149.493 59.1088 149.799ZM225.497 166.65C234.07 166.862 242.642 167.073 251.215 167.285C252.527 167.317 253.843 167.35 255.141 167.545C254.87 168.483 253.638 168.659 252.662 168.65C244.065 168.568 235.44 168.036 226.89 168.93C226.159 169.007 225.369 169.082 224.735 168.711C224.101 168.339 223.816 167.321 224.4 166.874C224.702 166.641 225.116 166.641 225.497 166.65ZM201.944 164.966C202.133 165.028 202.326 165.093 202.48 165.218C202.992 165.636 202.801 166.527 202.277 166.929C201.753 167.331 201.047 167.378 200.386 167.394C199.699 167.411 198.897 167.357 198.505 166.792C198.013 166.082 198.598 165.032 199.412 164.744C200.226 164.456 201.123 164.697 201.944 164.966ZM208.212 163.233C209.011 163.32 209.789 163.6 210.46 164.043C210.973 164.382 210.87 165.233 210.404 165.633C209.937 166.033 209.271 166.089 208.657 166.067C208.036 166.044 207.388 165.95 206.886 165.584C206.383 165.219 206.084 164.512 206.354 163.952C206.66 163.313 207.506 163.157 208.212 163.233ZM121.852 143.67C121.385 150.398 121.176 157.144 121.225 163.889C121.227 164.173 121.421 164.578 121.664 164.43C122.18 158.761 122.434 153.068 122.423 147.376C122.421 146.115 122.395 144.808 121.852 143.67ZM112.687 160.93C113.423 160.986 114.071 161.413 114.671 161.843C114.856 161.975 115.046 162.116 115.149 162.319C115.363 162.738 115.107 163.277 114.705 163.523C114.303 163.768 113.806 163.787 113.336 163.765C112.267 163.715 110.923 163.134 111.043 162.07C111.125 161.337 111.952 160.875 112.687 160.93ZM209.993 156.398C210.708 156.692 211.445 157.459 211.075 158.139C210.825 158.599 210.215 158.698 209.691 158.704C209.083 158.71 208.474 158.66 207.875 158.556C207.032 158.409 206.903 157.083 207.557 156.531C208.212 155.981 209.201 156.073 209.993 156.398ZM293.412 143.233C293.707 143.727 293.712 144.335 293.708 144.91C293.683 148.981 293.658 153.053 293.633 157.124C293.63 157.619 293.564 158.218 293.115 158.426C292.727 158.605 292.249 158.353 292.033 157.984C291.817 157.615 291.798 157.167 291.791 156.74C291.728 153.105 292.133 149.384 291.103 145.897C290.798 144.861 290.432 143.567 291.231 142.842C291.857 142.274 292.978 142.508 293.412 143.233ZM188.737 142.761C185.651 144.676 182.404 146.645 178.782 146.906C178.123 146.954 177.826 147.741 177.696 148.389C177.111 151.303 176.788 154.271 176.733 157.242C176.729 157.424 176.731 157.62 176.836 157.768C177.003 158.004 177.344 158.013 177.632 157.998C180.458 157.85 183.323 157.555 185.948 156.497C188.573 155.439 190.96 153.522 192.03 150.902C193.099 148.282 192.585 144.941 190.401 143.141C189.931 142.754 189.254 142.44 188.737 142.761ZM165.11 154.222C166.101 154.482 167.093 154.742 168.084 155.003C168.455 155.1 168.867 155.229 169.044 155.569C169.253 155.969 169.01 156.485 168.633 156.732C168.255 156.979 167.785 157.026 167.335 157.066C166.623 157.129 165.889 157.19 165.205 156.98C164.521 156.769 163.891 156.218 163.813 155.507C163.735 154.795 164.418 154.04 165.11 154.222ZM27.5619 99.9657C31.2728 101.469 34.0662 104.72 35.7989 108.33C37.531 111.939 38.3199 115.919 39.0076 119.863C40.1456 126.392 41.0517 133.056 40.2222 139.63C39.3921 146.205 36.6438 152.76 31.5488 156.998C35.2602 157.196 39.6917 157.049 41.7065 153.926C42.6106 152.525 44.557 151.904 46.1051 152.524C45.1317 151.682 45.8667 150.115 46.5893 149.051C49.5493 144.687 51.5805 139.672 52.3063 134.449C53.7141 124.323 50.1753 114.06 44.925 105.287C41.5184 99.5951 33.5728 97.1599 27.5619 99.9657ZM115.553 152.423C116.319 152.724 116.141 153.99 115.425 154.396C114.709 154.803 113.817 154.62 113.02 154.418C112.648 154.322 112.253 154.212 112 153.923C111.411 153.248 112.088 152.108 112.961 151.906C113.834 151.705 114.72 152.095 115.553 152.423ZM143.084 103.693C139.807 103.751 136.368 104.151 133.693 106.044C132.809 106.67 132.005 107.49 131.682 108.524C131.359 109.559 131.631 110.83 132.528 111.437C134.796 112.973 135.721 115.847 136.146 118.553C136.571 121.259 136.673 124.092 137.906 126.538C138.542 127.8 139.454 128.9 140.41 129.94C145.595 135.577 152.358 139.748 159.722 141.849C161.017 142.219 162.664 143.019 162.391 144.337C151.795 142.114 142.133 135.721 135.946 126.836C134.066 132.61 130.357 137.774 125.486 141.4C134.988 149.485 147.284 154.223 159.754 154.602C160.319 154.62 160.958 154.598 161.339 154.181C161.589 153.907 161.667 153.523 161.735 153.159C163.5 143.667 164.744 134.078 165.459 124.451C165.704 121.156 165.883 117.808 165.171 114.583C164.459 111.358 162.742 108.223 159.933 106.484C158.203 105.413 156.177 104.933 154.173 104.576C150.517 103.923 146.797 103.627 143.084 103.693ZM208.189 149.887C209.048 149.888 210.132 150.139 210.283 150.984C210.434 151.827 209.473 152.455 208.624 152.564C208.002 152.643 207.328 152.568 206.835 152.181C206.342 151.795 206.113 151.038 206.455 150.513C206.806 149.975 207.548 149.886 208.189 149.887ZM271.668 132.961C270.091 139.069 269.171 145.325 268.253 151.567C268.208 151.877 268.181 152.245 268.416 152.454C270.874 149.4 273.129 146.183 275.161 142.83C275.361 142.499 275.558 142.067 275.333 141.752C274.824 141.04 274.315 140.328 273.806 139.616C273.428 139.088 273.039 138.392 273.371 137.834C273.641 137.38 274.246 137.285 274.772 137.236L279.09 136.838C279.043 136.571 278.88 136.34 278.722 136.12C277.566 134.511 276.305 132.819 274.454 132.113C273.427 131.722 271.943 131.898 271.668 132.961ZM71.6632 69.769C68.5063 70.2989 65.0868 71.2117 63.255 73.8366C62.2296 75.3061 61.8524 77.1204 61.5512 78.8865C60.3665 85.8329 59.9964 92.918 60.4513 99.9503C74.0604 93.6186 89.9834 92.4159 104.39 96.6315C105.611 96.9893 107.124 98.0727 106.482 99.1721C95.6757 95.1754 83.6389 94.5792 72.4907 97.4888C68.8831 98.4305 65.3772 99.7252 61.7907 100.742C56.4597 102.254 50.9545 103.147 45.4195 103.4C55.5001 117.086 56.8046 136.684 48.6267 151.587C53.7151 150.624 58.4956 148.486 63.1872 146.294C70.1912 143.02 77.1653 139.568 84.6057 137.467C92.046 135.366 100.091 134.679 107.471 136.982C108.334 137.252 108.81 136.006 108.844 135.102L110.444 93.2018C110.686 86.8541 110.706 79.8358 106.551 75.0316C102.874 70.7805 96.8774 69.4509 91.2771 68.9729C84.7403 68.4147 78.1331 68.683 71.6632 69.769ZM169.165 147.538C169.371 147.673 169.585 147.843 169.633 148.085C169.731 148.576 169.133 148.889 168.652 149.025C167.952 149.224 167.231 149.423 166.508 149.347C165.784 149.271 165.049 148.855 164.811 148.168C164.573 147.48 165.051 146.578 165.778 146.565C166.97 146.543 168.167 146.887 169.165 147.538ZM271.816 121.172C269.184 122.649 266.039 123.188 263.065 122.673C263.445 123.734 265.113 124.104 265.121 125.231C265.126 125.917 264.48 126.4 264.112 126.979C263.83 127.425 263.707 127.952 263.594 128.467C262.535 133.319 261.926 138.269 261.78 143.233C261.755 144.089 261.967 145.218 262.818 145.311C264.58 145.505 266.239 146.492 267.249 147.95C268.076 142.745 268.903 137.54 269.73 132.336C269.922 131.128 270.083 129.779 269.375 128.782C268.402 127.41 269.25 125.53 270.103 124.081L271.816 121.172ZM115.07 143.668C115.969 143.848 116.99 144.624 116.65 145.474C116.44 145.999 115.807 146.21 115.243 146.24C114.68 146.27 114.093 146.187 113.565 146.387C112.944 146.623 112.212 146.072 112.137 145.412C112.061 144.752 112.52 144.111 113.118 143.821C113.715 143.531 114.418 143.538 115.07 143.668ZM208.179 142.864C208.745 142.943 209.342 143.067 209.755 143.464C210.167 143.86 210.28 144.614 209.841 144.981C209.696 145.102 209.513 145.166 209.335 145.228C208.556 145.493 207.724 145.753 206.926 145.556C206.127 145.359 205.433 144.512 205.71 143.737C206.028 142.844 207.239 142.735 208.179 142.864ZM259.742 132.165C259.143 132.309 258.705 132.81 258.309 133.284L255.928 136.136C255.462 136.694 256.281 137.471 257.005 137.531C257.729 137.592 258.574 137.422 259.089 137.934C259.629 138.47 259.406 139.406 258.964 140.025C258.523 140.644 257.896 141.151 257.629 141.863C257.23 142.928 257.891 144.263 258.98 144.591C259.571 144.769 260.401 144.495 260.407 143.877C260.437 140.266 260.648 136.657 261.039 133.066C261.106 132.453 260.342 132.02 259.742 132.165ZM138.873 133.958C139.329 134.261 139.624 134.747 139.929 135.202C142.542 139.115 146.913 141.805 151.584 142.373C152.665 142.505 153.939 142.637 154.481 143.58C153.463 144.588 151.805 144.465 150.41 144.141C145.464 142.99 140.932 140.133 137.763 136.167C137.257 135.535 136.795 134.572 137.359 133.991C137.741 133.598 138.417 133.655 138.873 133.958ZM257.174 116.667C253.681 117.525 250.194 118.736 247.363 120.954C244.533 123.173 242.427 126.543 242.45 130.14C242.478 134.7 240.237 139.22 236.59 141.959L242.73 142.681C243.449 142.766 244.255 142.827 244.818 142.372C245.641 141.706 245.431 140.428 245.223 139.389C245.015 138.351 245.061 136.979 246.049 136.597C247.275 136.122 248.291 137.824 248.104 139.126C247.919 140.428 247.163 141.681 247.4 142.975C250.308 143.388 253.225 143.735 256.149 144.018C255.567 143.54 255.504 142.635 255.798 141.943C256.092 141.25 256.664 140.72 257.219 140.212C257.81 139.672 256.958 138.718 256.161 138.632C255.364 138.547 254.426 138.738 253.864 138.167C253.166 137.456 253.69 136.264 254.286 135.465C255.443 133.914 256.876 132.045 256.132 130.26C254.316 125.906 254.716 120.693 257.174 116.667ZM123.24 104.77C122.754 116.689 122.82 128.63 123.44 140.543C127.993 138.073 131.32 133.726 133.383 128.974C134.641 126.075 135.484 122.88 134.981 119.761C134.605 117.434 133.504 115.284 132.223 113.306C129.951 109.797 126.985 106.629 123.24 104.77ZM228.813 99.0601C230.448 98.7589 231.698 100.777 231.419 102.416C231.141 104.055 229.949 105.358 229.002 106.725C227.694 108.613 226.8 110.752 225.915 112.871C223.809 117.915 222.989 123.489 223.554 128.926C223.886 132.126 224.764 135.414 226.928 137.795C229.092 140.177 232.802 141.368 235.653 139.877C238.103 138.597 239.325 135.775 239.886 133.068C240.448 130.362 240.548 127.53 241.609 124.978C243.567 120.27 248.395 117.426 253.171 115.64C245.992 114.665 239.496 109.663 236.719 102.971C235.923 101.052 235.325 98.8879 233.673 97.6281C232.021 96.3679 228.91 96.9846 228.813 99.0601ZM168.128 137.455C168.633 137.551 169.128 137.698 169.604 137.892C170.39 138.212 171.235 139.096 170.729 139.777C170.453 140.15 169.922 140.194 169.459 140.206C168.614 140.228 167.703 140.23 167.013 139.742C166.323 139.254 166.084 138.074 166.78 137.594C167.162 137.331 167.672 137.367 168.128 137.455ZM206.189 135.443C206.873 135.501 207.553 135.596 208.227 135.727C208.56 135.791 208.919 135.882 209.129 136.149C209.446 136.554 209.246 137.189 208.845 137.511C208.443 137.832 207.909 137.923 207.401 138.003C206.624 138.124 205.796 138.239 205.08 137.916C204.363 137.592 203.874 136.646 204.312 135.993C204.694 135.423 205.506 135.385 206.189 135.443ZM10.7913 131.766C10.2123 131.76 10.012 132.533 10.0296 133.112C10.0801 134.774 10.4167 136.428 11.0203 137.979C11.1883 138.15 11.3834 137.792 11.3599 137.554L10.7913 131.766ZM122.037 136.048C121.676 136.244 121.538 136.763 121.755 137.112L121.764 137.125L121.756 137.133C121.746 137.145 121.736 137.159 121.725 137.175C121.579 137.395 121.783 137.744 122.046 137.726C122.224 137.185 122.221 136.587 122.037 136.048ZM114.512 133.694C115.296 133.867 116.146 134.517 115.951 135.296C115.822 135.812 115.279 136.114 114.76 136.229C114.242 136.345 113.693 136.337 113.197 136.53C112.567 136.774 111.808 136.266 111.678 135.602C111.548 134.939 111.955 134.246 112.541 133.91C113.128 133.573 113.852 133.548 114.512 133.694ZM119.046 23.9088C119.091 59.7881 119.916 95.6668 121.518 131.511L121.687 135.216L121.712 134.024C121.758 131.238 121.717 128.451 121.676 125.665C121.198 93.0054 120.72 60.3463 120.241 27.6866C120.222 26.3194 120.114 24.7631 119.046 23.9088ZM170.365 128.447C170.804 128.579 171.245 128.779 171.53 129.138C171.815 129.497 171.897 130.05 171.615 130.412C171.342 130.762 170.847 130.828 170.405 130.868L168.517 131.035C168.209 131.062 167.877 131.085 167.609 130.93C167.392 130.805 167.249 130.576 167.183 130.335C166.984 129.608 167.476 128.819 168.156 128.495C168.836 128.171 169.643 128.231 170.365 128.447ZM18.3119 100.361C16.3492 102.29 15.3284 104.955 14.3853 107.54C11.7572 114.743 9.25958 122.387 10.5563 129.944C10.9574 130.017 11.1485 129.472 11.1782 129.066C11.7113 121.775 13.1681 114.553 15.5026 107.627C16.3934 104.984 17.4648 102.3 19.4436 100.335C19.4163 99.8557 18.6538 100.025 18.3119 100.361ZM259.588 116.117C259.246 116.201 259.024 116.525 258.846 116.828C257.157 119.694 256.362 123.078 256.597 126.396C256.695 127.766 257.136 129.344 258.415 129.843C259.455 128.845 260.495 127.846 261.536 126.847C261.701 126.688 261.87 126.524 261.961 126.314C262.19 125.789 261.863 125.203 261.564 124.714C260.081 122.302 258.967 119.244 260.202 116.697C260.356 116.38 259.931 116.033 259.588 116.117ZM281.203 113.025C281.037 113.112 280.909 113.255 280.785 113.395C277.714 116.868 274.749 120.434 271.893 124.086C271.297 124.849 270.675 125.709 270.733 126.675C270.785 127.534 271.39 128.283 272.122 128.735C272.855 129.186 273.708 129.392 274.545 129.592C274.769 129.645 275.012 129.697 275.223 129.604C275.417 129.518 275.54 129.328 275.652 129.148C277.4 126.329 279.172 123.455 279.998 120.243C280.174 119.558 280.768 119.079 281.243 118.555C282.175 117.525 282.721 116.153 282.753 114.764C282.764 114.294 282.708 113.797 282.436 113.414C282.164 113.03 281.62 112.807 281.203 113.025ZM206.416 126.773C206.839 126.878 207.306 127.038 207.496 127.43C207.83 128.122 207.045 128.843 206.311 129.07C205.742 129.246 205.108 129.307 204.562 129.069C204.017 128.83 203.603 128.228 203.727 127.645C203.947 126.612 205.39 126.518 206.416 126.773ZM115.213 125.263C115.412 125.442 115.597 125.652 115.673 125.909C115.826 126.427 115.464 126.998 114.968 127.211C114.472 127.423 113.894 127.341 113.394 127.137C112.868 126.923 112.355 126.513 112.288 125.948C112.212 125.303 112.796 124.709 113.44 124.616C114.083 124.523 114.729 124.829 115.213 125.263ZM172.123 119.589C172.637 119.799 172.69 120.575 172.336 121.001C171.982 121.427 171.392 121.569 170.84 121.616C170.288 121.662 169.716 121.642 169.201 121.844C168.408 122.155 167.546 121.197 167.734 120.367C167.923 119.536 168.815 119.02 169.665 118.981C170.515 118.941 171.335 119.268 172.123 119.589ZM205.536 118.341C206.264 118.376 206.984 118.568 207.633 118.898C207.915 119.04 208.206 119.238 208.286 119.544C208.451 120.174 207.662 120.606 207.022 120.728C206.456 120.837 205.881 120.902 205.305 120.922C204.593 120.947 203.734 120.81 203.451 120.156C203.231 119.649 203.499 119.027 203.95 118.706C204.4 118.386 204.984 118.314 205.536 118.341ZM252.441 71.8727C248.196 72.5579 243.933 73.1253 239.657 73.575C236.56 73.9004 233.642 75.6576 231.906 78.2435C231.55 78.7749 231.304 79.6225 231.855 79.9483C233.413 78.1504 235.529 76.8419 237.834 76.2508C238.658 76.0395 239.56 75.9244 240.337 76.2703C241.113 76.6167 241.668 77.5696 241.317 78.3437C240.777 79.533 239.055 79.2005 237.752 79.1208C234.127 78.8998 230.992 83.0486 232.194 86.4758C233.038 83.2044 237.709 81.7843 240.326 83.9198C242.945 86.0554 242.624 90.746 239.825 92.6369C238.899 93.2614 237.711 93.6972 237.289 94.7308C236.927 95.6169 237.275 96.6177 237.623 97.5094C238.168 98.9095 238.713 100.31 239.258 101.709C240.4 104.644 241.614 107.687 243.927 109.824C245.706 111.469 248.013 112.447 250.366 113.02C258.85 115.087 268.4 111.797 273.81 104.942C274.244 104.393 275.233 104.914 275.31 105.609C275.387 106.305 274.912 106.93 274.442 107.448C272.019 110.114 268.966 112.204 265.604 113.495C264.015 114.106 262.126 114.767 261.638 116.398C261.232 117.748 262.084 119.241 263.306 119.944C264.529 120.647 266.019 120.706 267.42 120.553C270.215 120.247 272.92 119.153 275.142 117.429C275.815 116.907 276.467 116.296 276.766 115.498C277.05 114.742 276.985 113.906 276.917 113.102L276.857 112.411C276.595 109.412 276.255 106.378 275.033 103.636C274.444 102.317 273.658 101.081 273.225 99.7026C272.691 98.0033 272.723 96.1808 272.364 94.4358C272.005 92.6914 271.097 90.8791 269.436 90.2361C269.874 89.1218 270.969 88.4202 271.678 87.4545C272.386 86.4887 272.491 84.8018 271.375 84.3655C270.841 84.1568 270.234 84.3367 269.725 84.6009C267.582 85.7136 266.426 88.4372 267.114 90.7516C267.563 92.2622 265.177 93.2758 263.892 92.363C262.607 91.4506 262.29 89.7134 262.037 88.1581C261.055 82.1286 259.084 75.6289 253.935 72.342C253.484 72.0552 252.968 71.7879 252.441 71.8727ZM114.763 114.641C115.44 114.86 116.115 115.469 115.974 116.166C115.841 116.826 115.081 117.135 114.418 117.248C113.478 117.409 112.251 117.225 111.986 116.308C111.735 115.435 112.648 114.599 113.551 114.503C113.958 114.46 114.373 114.514 114.763 114.641ZM223.334 102.083C222.703 102.681 222.395 103.535 222.109 104.356C221.461 106.208 220.806 108.114 220.88 110.074C220.928 111.336 220.196 112.473 219.673 113.623C219.151 114.772 218.867 116.245 219.687 117.206C221.643 115.561 222.113 112.791 222.543 110.271C223.058 107.258 223.757 104.135 225.706 101.78C225.024 101.241 223.965 101.485 223.334 102.083ZM171.772 110.479C172.276 110.641 172.846 110.965 172.852 111.494C172.86 112.138 172.068 112.433 171.434 112.549C171.117 112.607 170.8 112.666 170.483 112.724C169.674 112.871 168.808 113.014 168.056 112.68C167.304 112.347 166.803 111.333 167.294 110.673C167.611 110.247 168.195 110.131 168.726 110.098C169.753 110.034 170.792 110.164 171.772 110.479ZM98.2384 101.186C99.123 101.609 100.113 102.443 99.785 103.367C90.6696 101.38 80.9312 102.363 72.3966 106.132C68.5562 107.828 64.9517 110.07 60.9771 111.422C59.6176 111.884 58.1327 112.239 56.7594 111.82C55.3855 111.401 54.2404 109.943 54.6418 108.564C55.0191 107.27 56.4603 106.655 57.7375 106.222C64.0311 104.091 70.4348 102.285 76.914 100.811C83.9832 99.203 91.698 98.0578 98.2384 101.186ZM229.125 101.077C228.474 101.074 227.927 101.552 227.499 102.042C226.461 103.232 225.723 104.658 225.174 106.139C224.492 107.978 224.089 109.92 223.982 111.878C225.867 108.636 227.882 105.469 230.021 102.389C230.393 101.854 229.776 101.08 229.125 101.077ZM217.575 106.853C217.396 106.854 217.208 106.861 217.057 106.956C216.718 107.172 216.765 107.674 216.866 108.063C217.185 109.297 217.627 110.5 218.183 111.647C218.517 110.03 219.053 108.456 219.775 106.972C219.045 106.888 218.31 106.849 217.575 106.853ZM74.7368 102.687C69.341 104.345 63.9453 106.003 58.5501 107.662C57.9056 107.859 57.1577 108.165 57.02 108.826C57.4589 109.466 58.2946 109.737 59.0697 109.7C59.8448 109.662 60.5803 109.365 61.2988 109.071C66.7727 106.835 72.2466 104.598 77.7204 102.361C76.7428 102.088 75.7072 102.389 74.7368 102.687ZM131.674 105.714C131.384 106.216 130.781 106.429 130.329 106.793C129.877 107.157 129.612 107.94 130.089 108.27C130.82 107.538 131.551 106.806 132.282 106.075C132.131 105.887 131.911 105.757 131.674 105.714ZM188.603 105.324C192.525 105.733 196.483 105.941 200.411 105.603C201.428 105.515 202.643 105.474 203.247 106.297C202.485 107.072 201.288 107.166 200.202 107.212C196.124 107.387 192.046 107.562 187.969 107.737C187.173 107.77 186.166 107.669 185.908 106.916C185.705 106.323 186.167 105.669 186.746 105.431C187.326 105.193 187.98 105.259 188.603 105.324ZM249.238 101.039C250.187 102.193 250.533 103.817 250.138 105.258C250.041 105.614 249.898 105.963 249.671 106.253C249.074 107.014 247.973 107.24 247.032 107.014C246.091 106.789 245.285 106.19 244.567 105.541C243.827 104.873 243.133 104.111 242.778 103.18C242.422 102.248 242.464 101.114 243.094 100.342C243.613 99.7051 244.453 99.3993 245.272 99.3397C246.762 99.2302 248.288 99.8845 249.238 101.039ZM117.025 103.722C117.4 104.025 117.337 104.654 117.017 105.014C116.697 105.374 116.21 105.528 115.742 105.645C115.19 105.782 114.61 105.89 114.056 105.758C113.502 105.627 112.983 105.197 112.916 104.633C112.817 103.813 113.674 103.172 114.49 103.043C115.38 102.903 116.324 103.156 117.025 103.722ZM244.895 101.311C244.48 101.848 244.753 102.819 245.426 102.911C246.204 103.018 246.81 103.835 246.684 104.61C246.586 105.219 247.328 105.727 247.917 105.544C248.505 105.361 248.846 104.702 248.833 104.085C248.82 103.469 248.526 102.894 248.192 102.376C247.825 101.805 247.375 101.25 246.755 100.971C246.135 100.693 245.311 100.773 244.895 101.311ZM242.824 46.0602C237.17 47.0959 231.568 49.5656 227.922 54.0089C224.275 58.4517 223.014 65.1016 225.865 70.0928C226.872 71.8568 228.41 73.3951 230.344 74.016C232.279 74.6369 234.618 74.18 235.908 72.6108C237.372 70.8314 240.326 72.5383 242.529 71.863C245.577 70.9285 248.744 70.3863 251.928 70.2537C252.683 70.2223 253.462 70.2177 254.167 70.4912C254.932 70.7877 255.536 71.3824 256.117 71.9611C258.133 73.9692 260.19 76.0359 261.383 78.6187C263.276 82.7151 262.807 87.7094 265.198 91.5365C265.477 89.1367 265.757 86.737 266.036 84.3372C266.139 83.4465 266.255 82.5218 266.736 81.7658C267.218 81.0092 268.18 80.4788 269.022 80.7846C270.509 81.3248 272.056 81.9045 273.123 83.0718C274.19 84.239 274.585 86.1849 273.559 87.3887C272.568 88.5518 273.692 90.233 274.219 91.6681C275.13 94.1537 274.058 96.9939 274.775 99.5427C275.368 101.654 277.084 103.23 278.723 104.688C279.202 105.114 279.76 105.569 280.399 105.51C280.934 105.462 281.363 105.063 281.729 104.669C283.907 102.322 285.398 99.3453 285.975 96.1957C286.208 94.9251 285.766 93.0738 284.485 93.247C284.835 90.1981 287.638 88.1211 289.284 85.5306C291.06 82.7372 291.479 79.3018 291.56 75.9928C291.641 72.6673 291.317 69.053 289.1 66.5721C286.438 63.5915 281.264 63.3684 278.355 66.1095C277.63 66.7926 276.674 67.6956 275.809 67.2012C276.487 65.9851 277.165 64.7685 277.843 63.5525C278.948 61.57 280.076 59.5162 280.301 57.2583C280.745 52.8026 277.353 48.5844 273.158 47.0173C268.964 45.4507 264.229 46.1003 260.022 47.6325C258.967 48.017 257.722 48.8419 258.007 49.9269C258.173 50.5555 258.81 50.9348 259.136 51.4966C259.34 51.8471 259.319 51.9592 259.089 52.2424C258.95 52.414 258.7 52.9095 258.474 52.8129C256.09 50.0503 253.509 47.1581 250.013 46.1137C247.695 45.4209 245.204 45.6244 242.824 46.0602ZM215.734 103.033C215.436 102.857 214.865 102.741 214.921 103.082C215.082 103.919 215.835 104.542 216.648 104.798C217.461 105.054 218.333 105.01 219.184 104.965C219.517 104.947 219.872 104.921 220.137 104.718C220.359 104.549 220.481 104.283 220.594 104.027C220.788 103.589 220.981 103.151 221.175 102.714C219.594 101.684 217.357 103.995 215.734 103.033ZM170.066 100.175C170.731 100.225 171.391 100.341 172.034 100.521C172.59 100.677 173.23 101.003 173.257 101.58C173.294 102.34 172.305 102.65 171.547 102.716C170.776 102.782 170.004 102.849 169.233 102.916C168.671 102.964 168.035 102.989 167.622 102.605C167.067 102.089 167.291 101.089 167.892 100.628C168.492 100.166 169.311 100.118 170.066 100.175ZM188.107 100.01C191.796 100.504 195.536 100.623 199.249 100.365C199.685 100.334 200.16 100.309 200.518 100.558C200.877 100.807 200.966 101.449 200.575 101.642C200.456 101.701 200.319 101.707 200.187 101.712C195.697 101.881 191.208 102.051 186.719 102.221C186.309 102.236 185.859 102.238 185.544 101.976C184.98 101.507 185.304 100.503 185.95 100.156C186.596 99.81 187.38 99.9128 188.107 100.01ZM223.93 96.353C222.496 96.4306 221.038 96.5632 219.714 97.1193C218.391 97.6749 217.204 98.7209 216.808 100.101C216.728 100.381 216.698 100.725 216.913 100.922C217.081 101.075 217.333 101.077 217.559 101.069C219.94 100.975 222.311 100.621 224.615 100.014C225.76 99.7118 227.141 98.9835 226.987 97.8091C226.905 97.1907 226.371 96.7071 225.782 96.5025C225.193 96.298 224.552 96.3196 223.93 96.353ZM58.5753 96.1803C58.3471 97.3902 58.291 98.6319 58.4103 99.8573C58.7063 100.177 59.0959 99.5525 59.0707 99.1176C59.0137 98.1241 58.8472 97.1373 58.5753 96.1803ZM135.242 94.701C143.495 95.0742 151.748 95.4468 160.001 95.82C160.771 95.8549 161.794 96.1499 161.749 96.9194C160.764 97.5521 159.493 97.421 158.331 97.2858C150.974 96.4285 143.531 96.3103 136.15 96.9327C135.514 96.9867 134.837 97.0386 134.268 96.7462C133.699 96.4542 133.333 95.675 133.702 95.1528C134.025 94.6959 134.683 94.6759 135.242 94.701ZM115.229 93.8355C115.592 93.8905 115.971 93.9851 116.234 94.2405C116.837 94.8249 116.465 95.9356 115.74 96.3591C115.015 96.7821 114.116 96.723 113.279 96.6506C112.361 96.5714 112.064 95.1939 112.667 94.4975C113.27 93.8006 114.318 93.6977 115.229 93.8355ZM144.256 90.783C157.707 91.4804 171.157 92.1784 184.607 92.8759C185.328 92.9134 186.281 93.1905 186.243 93.911C184.025 94.3104 181.728 94.2662 179.528 93.781L181.482 95.4628C180.55 96.0502 179.557 96.6567 178.456 96.6809C177.355 96.7055 176.156 95.8935 176.188 94.7925C176.745 94.5355 177.302 94.2786 177.859 94.0211C166.994 93.0902 156.077 92.7505 145.175 93.0044C144.546 93.0188 143.874 93.0244 143.344 92.6873C142.812 92.3501 142.543 91.5298 142.983 91.0801C143.297 90.7583 143.807 90.7593 144.256 90.783ZM231.35 92.5814C230.865 92.6081 230.454 92.9299 230.078 93.2372C229.633 93.6016 229.188 93.966 228.742 94.3305C228.276 94.7118 227.77 95.1677 227.743 95.7696C227.728 96.0965 227.977 96.4845 228.296 96.411C228.385 96.3905 228.462 96.3365 228.536 96.2841C229.597 95.5357 230.658 94.7874 231.719 94.0395C231.935 93.8869 232.167 93.7137 232.236 93.4587C232.365 92.9905 231.834 92.5547 231.35 92.5814ZM247.849 88.6623C247.891 89.7535 247.349 90.7758 247.157 91.8505C246.964 92.9252 247.331 94.294 248.394 94.5453C248.707 94.6198 248.798 95.068 248.622 95.3373C248.444 95.6061 248.11 95.7223 247.793 95.7799C246.809 95.9587 245.643 95.6426 245.191 94.7504C244.964 94.3037 244.947 93.7841 244.934 93.2835C244.899 91.9425 244.865 90.6021 244.83 89.2616C244.807 88.3452 244.91 87.2165 245.748 86.8464C246.748 86.406 247.807 87.5711 247.849 88.6623ZM233.218 94.7437C233.024 94.8341 232.892 95.0439 232.894 95.2577L232.846 95.2705C232.953 95.509 233.341 95.5465 233.492 95.3327C233.644 95.1184 233.48 94.7658 233.218 94.7437ZM231.363 87.7372C230.918 87.7485 230.42 87.8292 230.157 88.1884C229.875 88.5724 229.989 89.1357 230.278 89.514C230.568 89.8923 230.993 90.1354 231.39 90.3975C233.064 91.5015 234.4 93.1092 235.179 94.957C235.709 94.2595 236.238 93.5626 236.768 92.8656C237.163 92.345 237.58 91.7493 237.497 91.1011C237.437 90.6324 237.122 90.2387 236.788 89.9046C235.373 88.4886 233.364 87.6863 231.363 87.7372ZM60.773 76.9524C60.1511 77.0032 59.8283 77.7017 59.633 78.2944C59.3349 79.1974 59.0368 80.1005 58.7392 81.0035C58.4134 81.9904 58.0854 82.988 57.9965 84.0231C57.9369 84.7088 57.9842 85.3991 58.031 86.0863C58.1774 88.2316 58.3234 90.3769 58.4699 92.5218C58.4982 92.9365 58.8138 93.5091 59.1566 93.2747C59.0142 87.7947 59.5585 82.2977 60.773 76.9524ZM236.717 84.8404C236.152 85.0557 235.553 85.4335 235.471 86.0323C235.389 86.6311 236.271 87.1867 236.612 86.6881C237.049 86.0523 238.139 86.3844 238.5 87.0659C238.861 87.7474 238.755 88.5672 238.75 89.3387C238.744 90.1097 238.921 90.9942 239.594 91.372C239.706 90.3404 239.819 89.3089 239.932 88.2773C240.071 87.0042 240.063 85.4248 238.943 84.8013C238.274 84.4282 237.434 84.5675 236.717 84.8404ZM254.849 84.2575C255.765 84.2986 256.744 84.6178 257.245 85.3862C257.747 86.1546 257.48 87.4134 256.597 87.6606C255.337 88.0137 254.158 86.2374 252.926 86.6784C252.155 86.9544 251.679 88.0383 250.875 87.8826C250.377 87.7865 250.101 87.1893 250.2 86.6917C250.3 86.1937 250.671 85.7953 251.069 85.4798C252.129 84.6399 253.498 84.1974 254.849 84.2575ZM114.503 83.3504C115.386 83.4932 116.251 84.4605 115.786 85.2248C115.655 85.4392 115.442 85.5918 115.22 85.7085C114.669 85.9984 113.989 86.097 113.42 85.8442C112.851 85.5913 112.451 84.9349 112.605 84.3321C112.799 83.5739 113.731 83.2255 114.503 83.3504ZM256.286 78.3206C256.894 78.8988 257.367 79.9874 256.687 80.4777C255.967 80.9969 255.104 80.1205 254.415 79.5613C253.646 78.9363 252.603 78.6603 251.624 78.8227C250.999 78.9271 250.409 79.199 249.782 79.2899C249.154 79.3809 248.424 79.237 248.081 78.703C247.722 78.1432 247.95 77.3507 248.445 76.9051C248.939 76.46 249.625 76.2965 250.288 76.2364C252.461 76.0375 254.704 76.8172 256.286 78.3206ZM114.472 76.5489C115.015 76.867 115.307 77.6169 115.005 78.1684C114.606 78.8973 113.561 78.8875 112.754 78.687C112.463 78.6151 112.158 78.5195 111.966 78.2902C111.507 77.7429 112.021 76.8845 112.662 76.5684C113.226 76.2898 113.93 76.2307 114.472 76.5489Z" fill="#00160A"/>
<path fill-rule="evenodd" clip-rule="evenodd" d="M41.6577 149.855C41.7317 150.062 41.8001 150.292 41.7153 150.493C41.5631 150.855 41.0682 150.869 40.6755 150.866C37.9149 150.844 35.3481 153.215 35.1523 155.969C35.1317 156.26 34.7318 156.393 34.4728 156.259C34.2143 156.124 34.0811 155.833 33.9917 155.555C33.4875 153.99 33.8123 152.236 34.6162 150.802C35.4206 149.368 36.6644 148.224 38.0162 147.288C38.5404 146.925 39.1937 146.576 39.7868 146.81C40.1785 146.965 40.4344 147.339 40.6482 147.702C41.0502 148.387 41.3884 149.109 41.6577 149.855ZM40.0541 149.542C39.811 148.799 38.8246 148.532 38.0881 148.795C37.3516 149.057 36.8145 149.683 36.3134 150.284C35.8379 150.853 35.3409 151.474 35.2849 152.213C36.5549 150.868 38.2428 149.922 40.0541 149.542Z" fill="#FFB61D"/>
</svg>
