<svg width="11" height="11" viewBox="0 0 11 11" fill="none" xmlns="http://www.w3.org/2000/svg">
<path d="M4.64782 1.40648C4.94717 0.485172 6.25058 0.485171 6.54993 1.40648L7.08042 3.03914C7.21429 3.45117 7.59825 3.73013 8.03147 3.73013H9.74815C10.7169 3.73013 11.1197 4.96974 10.3359 5.53914L8.94712 6.54818C8.59663 6.80283 8.44997 7.25419 8.58385 7.66622L9.11433 9.29888C9.41368 10.2202 8.3592 10.9863 7.57549 10.4169L6.18666 9.40787C5.83617 9.15323 5.36158 9.15323 5.01109 9.40787L3.62227 10.4169C2.83855 10.9863 1.78407 10.2202 2.08343 9.29888L2.61391 7.66622C2.74778 7.2542 2.60113 6.80283 2.25064 6.54818L0.861815 5.53914C0.0781009 4.96974 0.480876 3.73013 1.4496 3.73013H3.16628C3.59951 3.73013 3.98346 3.45117 4.11734 3.03914L4.64782 1.40648Z" fill="#FFB61D"/>
</svg>
