<svg width="15" height="15" viewBox="0 0 15 15" fill="none" xmlns="http://www.w3.org/2000/svg">
<path d="M10.5999 0.543945C12.9625 0.543945 14.5503 2.20218 14.5503 4.67001V10.3651C14.5503 12.8329 12.9625 14.4904 10.5992 14.4904H4.55481C2.19158 14.4904 0.603775 12.8329 0.603775 10.3651V4.67001C0.603775 2.20218 2.19158 0.543945 4.55481 0.543945H10.5999ZM5.37417 5.70345C4.37421 5.70345 3.56043 6.51722 3.56043 7.51719C3.56043 8.51785 4.37421 9.33162 5.37417 9.33162C6.19143 9.33162 6.87621 8.78492 7.10214 8.04018H8.57489V8.80863C8.57489 9.09732 8.80919 9.33162 9.09788 9.33162C9.38657 9.33162 9.62087 9.09732 9.62087 8.80863V8.04018H10.5483V8.80863C10.5483 9.09732 10.7826 9.33162 11.0713 9.33162C11.36 9.33162 11.5943 9.09732 11.5943 8.80863V7.51719C11.5943 7.22849 11.36 6.99419 11.0713 6.99419H7.10214C6.87621 6.25015 6.19143 5.70345 5.37417 5.70345ZM5.37424 6.74936C5.79752 6.74936 6.14269 7.09384 6.14269 7.51781C6.14269 7.94109 5.79752 8.28557 5.37424 8.28557C4.95096 8.28557 4.60579 7.94109 4.60579 7.51781C4.60579 7.09384 4.95096 6.74936 5.37424 6.74936Z" fill="#BAC0CB"/>
</svg>
